<?xml version="1.0" standalone="no"?>
<!DOCTYPE svg PUBLIC "-//W3C//DTD SVG 20010904//EN"
 "http://www.w3.org/TR/2001/REC-SVG-20010904/DTD/svg10.dtd">
<svg version="1.0" xmlns="http://www.w3.org/2000/svg"
 width="1440.000000pt" height="300.000000pt" viewBox="0 0 1440.000000 300.000000"
 preserveAspectRatio="xMidYMid meet">

<g transform="translate(0.000000,300.000000) scale(0.100000,-0.100000)"
fill="#000000" stroke="none">
<path d="M0 2930 l0 -70 40 0 c22 0 40 -4 40 -10 0 -5 -18 -10 -40 -10 l-40 0
0 -110 c0 -99 2 -110 18 -110 10 0 24 9 32 20 11 16 26 20 70 20 63 0 95 -14
70 -30 -8 -5 -36 -10 -62 -10 -41 0 -48 -3 -48 -20 0 -17 -7 -20 -40 -20 l-40
0 0 -280 c0 -274 0 -280 19 -270 11 5 37 9 58 9 33 -2 34 -3 8 -6 -16 -2 -42
-9 -58 -15 l-27 -10 0 -1004 0 -1004 3591 0 3591 0 -33 38 c-18 20 -40 46 -49
56 -8 10 -23 27 -32 38 -10 10 -18 27 -18 39 0 11 -5 17 -10 14 -20 -12 -9
-37 35 -84 50 -53 58 -72 20 -47 -13 9 -31 16 -40 16 -9 0 -48 15 -88 34 -104
49 -217 96 -231 96 -26 0 -147 101 -159 133 -17 45 110 48 203 4 30 -14 87
-37 125 -52 39 -15 84 -34 100 -43 17 -8 38 -19 48 -24 29 -14 35 1 9 22 -16
13 -19 21 -10 26 7 5 20 -3 32 -21 44 -61 99 -99 62 -43 -14 21 -13 26 6 56
19 31 24 33 57 27 45 -8 146 -42 183 -61 15 -8 34 -14 43 -14 8 0 50 -17 94
-39 43 -21 110 -48 150 -61 62 -19 70 -24 59 -37 -10 -12 -9 -17 5 -28 21 -15
23 -39 2 -31 -8 3 -15 2 -15 -3 0 -5 25 -9 55 -10 39 -1 53 2 50 12 -3 6 -1
25 3 41 l8 29 18 -42 c24 -51 41 -53 41 -4 0 37 1 38 35 37 43 -1 170 -39 196
-59 16 -12 179 -14 1064 -15 1142 0 1117 -2 903 55 -11 3 -24 12 -27 21 -4 11
-2 12 12 5 18 -10 93 -22 272 -46 58 -7 121 -18 140 -24 22 -7 169 -11 410
-11 359 1 374 2 343 18 -17 9 -90 46 -162 82 -71 35 -129 65 -127 67 6 6 76
-19 76 -27 0 -6 7 -10 15 -10 8 0 15 4 15 9 0 5 -7 14 -15 21 -27 23 -15 32
14 11 19 -14 51 -23 93 -26 34 -3 58 -3 51 1 -7 3 -9 12 -6 21 4 11 2 14 -5 9
-7 -4 -12 -2 -12 6 -1 18 -86 68 -116 68 -14 0 -27 7 -31 16 -12 33 -50 64
-68 58 -14 -6 -16 -3 -10 17 5 18 4 20 -4 9 -8 -12 -12 -9 -21 15 -16 43 -60
72 -60 40 0 -8 5 -15 11 -15 8 0 8 -4 0 -14 -7 -9 -8 -17 -2 -20 5 -3 8 -12 7
-19 -3 -22 -17 -37 -28 -31 -7 4 -6 9 2 14 20 13 3 40 -25 40 -16 0 -25 6 -25
16 0 8 -7 23 -16 31 -16 16 -15 39 1 104 4 17 2 31 -8 41 -8 8 -12 20 -8 27 5
8 11 3 19 -14 6 -14 18 -25 27 -25 8 0 15 -4 15 -10 0 -17 14 -11 28 10 15 24
5 50 -10 29 -8 -11 -11 -11 -15 -1 -2 7 -12 20 -21 29 -16 15 -15 16 12 9 33
-8 116 -62 116 -76 0 -17 68 -77 111 -99 24 -12 60 -36 79 -53 31 -26 126 -91
240 -163 19 -12 61 -38 92 -58 32 -20 62 -37 67 -37 5 0 11 -7 15 -15 3 -8 10
-15 16 -15 6 0 18 -7 26 -15 17 -17 54 -20 54 -5 0 17 24 11 54 -15 25 -20 28
-26 17 -39 -11 -13 -11 -16 2 -16 9 0 19 5 22 10 4 6 13 7 23 1 10 -5 138 -10
286 -10 l269 -1 -29 22 c-50 40 -139 130 -137 139 2 5 -8 16 -22 25 -14 9 -25
22 -25 29 0 14 -22 25 -51 25 -14 0 -19 7 -19 29 0 33 -16 49 -33 32 -28 -28
-71 5 -46 35 6 7 8 18 4 23 -3 6 0 8 8 5 8 -3 13 -15 12 -27 -3 -21 1 -22 63
-21 80 1 102 -4 102 -22 0 -21 44 -17 65 6 10 12 25 18 33 15 18 -7 82 13 82
26 0 5 -7 9 -16 9 -12 0 -14 3 -6 13 17 21 25 77 12 77 -10 0 -10 3 -1 14 13
15 -1 30 -28 31 -20 0 -26 24 -7 31 13 5 12 9 -8 25 -28 22 -43 24 -49 6 -3
-9 -7 -9 -18 0 -8 7 -25 10 -37 6 -13 -3 -22 -1 -22 6 0 6 -17 11 -40 11 -36
0 -40 -2 -40 -25 0 -18 -5 -25 -18 -25 -15 0 -19 -8 -20 -36 -2 -43 -8 -52
-24 -36 -7 7 -20 12 -30 12 -13 0 -16 7 -14 34 3 34 28 71 39 59 4 -3 12 6 18
20 16 34 32 39 79 23 22 -7 49 -11 62 -9 13 2 34 0 48 -5 21 -8 31 -4 68 29
24 21 56 39 70 41 17 2 26 8 24 17 -2 9 3 11 13 7 9 -3 13 -2 10 4 -3 6 -16 8
-29 4 -22 -5 -35 5 -100 75 -16 18 -23 47 -25 104 -1 13 -8 18 -23 16 -13 -2
-29 0 -35 4 -9 6 -13 0 -13 -19 0 -21 4 -25 19 -21 14 3 17 0 14 -14 -11 -42
-45 -1 -41 48 3 40 -7 51 -38 45 -19 -3 -25 -1 -20 7 5 8 -8 10 -48 8 -45 -3
-54 -1 -45 10 9 10 8 13 -5 13 -9 0 -16 5 -16 10 0 6 8 10 18 8 13 -2 18 5 20
30 3 28 0 33 -15 30 -10 -2 -38 6 -62 19 -68 35 -94 26 -51 -17 24 -24 49 -28
30 -5 -9 11 -10 15 -1 15 17 0 48 -33 35 -37 -12 -4 5 -93 18 -93 5 0 8 -9 8
-19 0 -10 7 -21 15 -25 8 -3 15 -16 15 -30 0 -14 7 -31 15 -40 18 -18 25 -76
12 -93 -12 -16 -51 -16 -94 -1 -26 9 -38 10 -53 1 -14 -10 -19 -9 -24 2 -12
31 -66 10 -66 -26 0 -17 -56 -66 -81 -69 -31 -5 -39 1 -39 30 0 17 -4 30 -10
30 -11 0 -14 50 -2 50 4 0 13 4 20 9 11 6 10 16 -4 50 -10 26 -14 55 -11 76 3
19 2 35 -2 35 -4 0 -9 12 -10 27 -1 16 -3 39 -6 53 -2 14 -4 28 -4 33 -1 4 -8
7 -16 7 -11 0 -15 -8 -13 -27 4 -36 -22 -41 -61 -14 -16 12 -34 21 -40 21 -6
0 -11 6 -11 13 0 8 -3 8 -9 -2 -6 -9 -6 -22 1 -34 12 -24 5 -31 -25 -23 -38 9
-67 40 -56 57 8 11 12 11 16 2 2 -7 14 -13 26 -13 16 0 18 3 9 12 -9 9 -8 15
3 28 14 15 13 18 -10 28 -20 9 -25 9 -25 -3 0 -7 -5 -17 -11 -21 -8 -5 -10 1
-7 18 4 21 2 25 -16 21 -16 -4 -18 -3 -7 5 10 7 -5 9 -50 5 -35 -3 -65 -7 -67
-8 -10 -8 20 -78 39 -94 18 -14 21 -23 14 -47 -5 -16 -7 -34 -6 -41 2 -16 -16
-25 -38 -18 -12 4 -17 13 -16 30 3 19 -3 26 -27 34 -17 6 -38 11 -48 11 -9 0
-25 8 -36 19 -11 10 -30 21 -41 25 -42 13 -97 86 -91 118 2 7 -1 12 -7 13 -5
0 -15 4 -21 8 -13 7 -24 -13 -24 -43 0 -13 -7 -18 -27 -17 -16 1 -30 4 -33 7
-3 3 -16 11 -30 18 -24 12 -23 12 12 7 20 -3 39 -1 43 5 5 9 -30 14 -82 13 -6
0 -14 15 -18 33 -3 19 -19 48 -36 66 -28 30 -30 38 -28 98 0 36 1 70 0 76 -1
13 -40 27 -86 30 -27 2 -75 45 -75 67 0 19 -36 52 -52 49 -10 -2 -19 5 -23 18
-9 27 -47 65 -69 66 -20 2 -86 -60 -86 -81 0 -9 -4 -14 -9 -10 -6 3 -15 -4
-21 -15 -16 -30 -50 -26 -50 6 0 14 6 32 14 40 13 12 13 18 0 42 -7 15 -14 42
-14 60 0 18 -7 49 -15 69 -13 31 -17 34 -28 21 -6 -9 -24 -18 -39 -22 -31 -7
-34 -14 -15 -40 12 -16 14 -16 34 3 29 28 35 16 12 -25 -23 -42 -23 -44 -4
-44 19 0 19 -15 2 -32 -16 -15 -10 -51 7 -41 6 3 6 0 -1 -8 -7 -7 -13 -27 -13
-44 l1 -30 13 31 c18 40 36 52 36 24 0 -11 7 -32 16 -45 9 -14 12 -25 6 -25
-5 0 -12 -6 -15 -13 -4 -11 7 -13 49 -10 l54 3 0 -39 c0 -22 -3 -47 -6 -56 -6
-14 -8 -15 -24 0 -17 15 -17 13 -13 -30 5 -39 3 -45 -11 -39 -9 4 -23 19 -31
35 -18 33 -81 52 -96 28 -7 -11 -9 -9 -9 8 0 12 6 24 13 27 9 3 7 9 -6 19 -15
13 -17 27 -14 91 4 71 3 75 -16 73 -19 -2 -21 4 -21 55 0 38 -4 54 -10 48 -18
-18 -28 -10 -23 17 3 15 3 33 0 40 -8 22 -39 15 -51 -12 -8 -17 -16 -23 -28
-18 -12 4 -15 2 -12 -8 2 -8 16 -15 31 -17 22 -3 28 -10 33 -40 4 -20 13 -41
20 -47 11 -9 18 -76 15 -149 -1 -25 -3 -27 -17 -15 -12 9 -14 23 -10 49 4 29
1 42 -15 59 -12 12 -22 21 -24 19 -2 -2 1 -29 6 -61 5 -32 7 -62 4 -68 -4 -5
-19 -9 -36 -9 -26 0 -29 3 -29 34 0 19 -5 38 -10 41 -5 3 -10 15 -10 26 0 20
-16 54 -37 76 -6 7 -15 27 -18 45 -4 18 -12 39 -17 45 -13 16 -29 7 -21 -12 3
-9 -1 -15 -11 -15 -9 0 -16 5 -16 10 0 6 -4 10 -10 10 -15 0 -12 -28 6 -55 9
-14 14 -32 10 -40 -3 -9 -2 -13 4 -10 5 3 18 1 27 -4 17 -10 17 -10 1 -11 -10
0 -18 -4 -18 -9 0 -13 43 -22 54 -11 15 15 26 12 26 -5 0 -9 -8 -19 -17 -22
-10 -4 -27 -17 -39 -30 -26 -28 -34 -29 -34 -3 0 11 -4 20 -10 20 -6 0 -10
-32 -10 -75 0 -57 4 -76 16 -83 14 -8 14 -10 0 -21 -9 -8 -16 -24 -16 -37 0
-30 -17 -74 -29 -74 -24 0 -69 53 -80 92 -14 55 -46 108 -66 108 -8 0 -15 4
-15 9 0 12 -100 62 -111 55 -14 -8 -25 31 -38 129 -18 137 -32 157 -69 105
-19 -26 -39 -22 -46 7 -4 14 -10 23 -15 21 -5 -3 -21 7 -36 21 -19 20 -35 27
-56 24 -17 -1 -35 2 -42 7 -7 5 -31 12 -54 15 -32 4 -43 2 -43 -9 0 -8 -6 -11
-15 -8 -8 4 -15 12 -15 18 0 7 -6 21 -14 31 -11 16 -17 17 -29 7 -13 -11 -15
-8 -11 25 2 30 -1 42 -18 54 -12 9 -18 21 -14 28 6 9 11 9 22 0 11 -9 16 -6
25 14 10 22 9 29 -7 44 -15 15 -17 15 -12 2 4 -9 1 -22 -5 -28 -14 -14 -47
-14 -47 0 0 5 4 8 9 4 5 -3 12 -1 16 5 3 5 2 10 -3 10 -5 0 -12 11 -14 25 -3
14 -1 25 3 25 5 0 9 -9 9 -20 0 -24 6 -25 26 -6 21 22 17 63 -8 80 -29 20 -36
20 -41 -1 -3 -15 -6 -14 -16 7 -10 22 -11 22 -7 3 2 -12 -1 -24 -7 -26 -9 -3
-9 -11 0 -30 8 -16 9 -27 3 -27 -6 0 -10 -10 -9 -22 0 -22 1 -22 8 -3 8 20 8
20 15 0 3 -12 -3 -45 -13 -74 -16 -47 -22 -54 -47 -56 -16 -2 -39 -6 -51 -10
-15 -5 -23 -3 -23 4 0 6 -13 30 -30 53 -16 22 -30 49 -30 58 0 10 -7 34 -15
53 -8 20 -15 49 -15 65 0 16 -9 41 -20 55 -11 14 -20 30 -20 36 0 5 -11 21
-24 36 -13 14 -33 52 -45 86 -13 33 -30 63 -39 66 -9 3 -26 16 -37 29 -17 19
-33 25 -80 28 -37 3 -61 9 -64 17 -2 7 -19 27 -37 45 -30 28 -35 29 -47 15
-25 -30 -39 -73 -27 -85 5 -5 10 -16 10 -24 0 -8 9 -26 19 -41 19 -26 19 -81
0 -81 -5 0 -9 -7 -9 -15 0 -9 -6 -12 -15 -9 -11 5 -13 2 -9 -10 3 -9 1 -16 -5
-16 -6 0 -11 5 -11 11 0 5 -4 7 -10 4 -5 -3 -10 -17 -10 -31 0 -24 -33 -67
-44 -57 -3 4 -6 22 -6 42 0 27 -3 32 -12 23 -26 -26 -41 -14 -35 31 4 28 3 37
-3 26 -5 -9 -11 -42 -12 -73 -2 -38 -6 -56 -15 -56 -7 0 -13 5 -13 10 0 23
-19 8 -25 -19 -3 -17 -20 -49 -36 -71 -30 -42 -32 -77 -4 -66 9 3 22 -5 32
-22 10 -15 25 -32 34 -39 19 -15 44 -71 35 -80 -3 -3 -6 -1 -6 5 0 21 -17 13
-25 -11 -4 -12 -8 -103 -10 -202 -1 -123 -6 -180 -14 -183 -6 -2 -11 -16 -12
-30 0 -24 -1 -25 -9 -7 -11 25 -12 66 -2 63 9 -4 12 5 12 33 0 11 -5 17 -10
14 -6 -4 -8 -11 -5 -16 4 -5 -1 -16 -10 -25 -15 -16 -15 -67 1 -146 8 -40 -7
-34 -34 12 -32 57 -27 143 11 171 4 3 7 10 6 15 -1 5 1 34 5 64 5 39 2 67 -8
95 l-15 40 -7 -33 c-4 -22 -15 -38 -32 -45 -24 -11 -24 -14 -19 -89 3 -53 1
-82 -7 -94 -12 -15 -14 -14 -19 14 -4 18 -4 39 -1 47 4 10 0 15 -10 15 -9 0
-16 7 -16 15 0 8 -9 20 -20 27 -11 7 -20 21 -20 31 0 9 -6 26 -12 37 -10 16
-10 24 -1 39 10 15 9 20 -2 25 -27 10 -38 94 -20 154 7 22 -8 32 -20 12 -11
-18 -21 -10 -44 36 -17 33 -21 54 -17 80 4 18 2 62 -5 96 -6 35 -11 80 -11
100 1 26 -8 49 -31 79 -39 51 -80 112 -106 159 -11 19 -40 57 -65 83 -25 27
-46 53 -46 58 0 5 -7 9 -14 9 -16 0 -88 36 -126 63 -31 21 -38 15 -46 -39 -5
-34 -3 -48 7 -54 11 -7 10 -12 -4 -28 -21 -23 -22 -42 -2 -42 12 0 14 -7 9
-27 -4 -16 -11 -31 -16 -34 -5 -3 -3 -9 6 -12 20 -8 23 -123 4 -130 -7 -2 -10
-8 -6 -12 16 -17 37 8 63 77 32 84 31 83 68 92 22 5 27 3 27 -13 0 -26 -17
-36 -22 -14 -2 10 -12 -18 -23 -62 -10 -44 -21 -84 -25 -90 -4 -5 -11 -35 -14
-66 -4 -32 -15 -65 -25 -76 -10 -11 -21 -43 -25 -78 -4 -32 -9 -61 -11 -63
-14 -14 -33 26 -38 77 -2 32 -10 68 -17 81 l-12 22 -19 -32 c-11 -17 -17 -35
-15 -39 3 -4 1 -13 -3 -20 -7 -10 -14 -9 -37 5 -16 10 -31 21 -34 24 -3 4 -13
9 -22 13 -10 3 -18 16 -18 27 0 14 -4 19 -12 14 -7 -5 -25 -7 -39 -6 -18 2
-29 -3 -31 -14 -3 -14 -7 -13 -29 5 -24 18 -27 29 -31 95 -3 77 -11 97 -29 79
-7 -7 -6 -14 3 -24 7 -8 13 -37 13 -66 1 -46 -1 -50 -16 -42 -10 5 -27 9 -38
9 -12 0 -21 6 -21 14 0 21 -61 40 -77 24 -18 -18 -29 -78 -14 -78 6 0 11 10
11 22 0 28 14 14 28 -29 11 -34 5 -143 -8 -143 -5 0 -11 27 -15 60 -4 33 -11
58 -15 55 -8 -5 -25 27 -58 110 -11 28 -27 64 -36 80 -9 17 -16 40 -16 53 0
24 -34 32 -44 10 -2 -7 -4 1 -3 19 1 18 -2 32 -8 33 -5 0 -11 -17 -12 -38 -2
-36 -1 -39 21 -35 17 4 25 -1 29 -16 6 -23 -3 -27 -21 -9 -14 14 -13 17 -18
-84 -1 -38 1 -68 7 -68 5 0 9 -13 9 -29 0 -17 4 -33 10 -36 5 -3 7 -19 3 -35
-7 -38 14 -41 23 -3 5 17 1 37 -9 56 -19 32 -23 122 -7 132 6 4 8 15 5 26 -4
10 -3 19 2 19 10 0 50 -85 64 -134 6 -21 19 -46 29 -56 17 -17 18 -29 13 -87
-7 -76 -13 -95 -13 -40 0 21 -6 46 -12 57 -11 17 -10 22 0 29 8 5 12 16 10 24
-2 13 -8 11 -28 -10 -14 -15 -19 -23 -12 -19 9 5 12 -4 12 -38 0 -25 5 -48 10
-51 6 -3 10 -10 10 -14 0 -13 -37 -52 -46 -49 -5 1 -19 -3 -30 -10 -17 -9 -24
-9 -32 1 -22 26 -42 91 -52 168 -12 88 -24 129 -38 129 -5 0 -16 19 -25 43
-16 41 -17 196 -2 250 5 18 4 19 -4 5 -6 -9 -32 -29 -58 -44 -49 -28 -73 -51
-72 -69 0 -5 3 -4 6 3 5 14 33 17 33 3 0 -5 -7 -14 -15 -21 -8 -7 -13 -16 -10
-20 3 -5 1 -11 -5 -15 -5 -3 -10 -14 -9 -23 0 -14 2 -14 8 2 5 14 10 16 15 8
4 -7 4 -17 0 -23 -4 -8 0 -9 15 -4 17 5 21 2 21 -17 1 -13 7 -34 15 -48 l14
-25 1 25 c0 33 15 15 29 -34 7 -26 7 -45 0 -58 -7 -14 -6 -20 5 -24 8 -3 12
-13 9 -22 -3 -9 -7 -24 -9 -32 -4 -11 -7 -12 -13 -2 -12 20 -61 -6 -61 -32 0
-12 3 -16 8 -10 4 6 18 15 32 19 25 8 25 7 6 -13 -10 -12 -16 -27 -13 -34 4
-8 6 -7 6 5 1 9 6 17 12 17 8 0 9 -11 5 -32 -4 -24 -3 -29 4 -18 8 13 10 13
10 -1 0 -13 -11 -18 -46 -21 -55 -4 -60 -1 -70 36 -4 19 -2 31 7 38 9 6 10 11
3 14 -7 3 -9 29 -7 69 4 58 2 65 -19 78 -13 8 -38 18 -55 22 -31 6 -33 5 -33
-21 0 -15 -4 -41 -10 -58 -5 -17 -12 -61 -16 -98 -4 -54 -9 -68 -25 -73 -10
-4 -19 -12 -19 -19 0 -8 -6 -19 -14 -25 -20 -17 -32 8 -46 93 -6 37 -17 85
-24 107 -8 22 -10 42 -5 45 15 9 10 21 -10 27 -14 3 -21 18 -28 58 -6 33 -14
53 -21 52 -16 -4 -16 14 0 19 8 3 2 18 -19 44 -18 23 -37 65 -47 104 -13 50
-24 72 -49 93 -18 15 -40 25 -50 23 -10 -3 -35 1 -56 9 -42 15 -174 6 -226
-16 -16 -6 -41 -13 -55 -15 -14 -2 -36 -17 -50 -34 -14 -16 -33 -30 -42 -30
-10 0 -18 -8 -18 -17 -1 -13 -12 -6 -38 25 -36 40 -64 53 -76 33 -17 -27 -116
-15 -116 14 -1 28 -21 38 -83 41 -49 2 -68 -1 -78 -12 -9 -11 -23 -13 -52 -8
-25 4 -37 3 -33 -4 3 -5 -1 -24 -10 -41 -9 -18 -14 -43 -11 -56 3 -16 0 -22
-7 -18 -6 3 -5 0 2 -8 11 -12 14 -12 22 1 5 8 10 23 10 33 0 9 4 17 9 17 14 0
4 -76 -15 -111 -8 -17 -11 -28 -5 -25 7 5 11 -3 11 -18 0 -50 39 -15 41 36 0
13 3 17 6 10 4 -9 8 -10 18 -2 22 18 29 -8 10 -36 -15 -23 -71 -64 -87 -64 -5
0 -8 8 -8 18 0 11 -3 13 -8 5 -10 -17 -82 -28 -82 -13 0 18 34 57 46 53 7 -2
14 4 18 13 4 11 0 18 -14 21 -17 5 -18 7 -6 17 9 7 16 36 19 76 2 36 6 72 8
80 3 11 -4 15 -26 15 -27 0 -30 -4 -37 -40 -4 -22 -4 -48 -1 -59 3 -13 1 -16
-7 -11 -7 4 -10 20 -8 36 7 43 -10 35 -18 -8 -4 -21 -11 -43 -16 -50 -5 -6
-10 -31 -12 -55 -2 -23 -6 -56 -10 -73 l-8 -30 21 25 21 25 -10 -31 c-6 -17
-18 -31 -26 -31 -13 0 -15 8 -9 44 7 48 -1 87 -16 77 -12 -7 -10 -98 2 -132 5
-12 5 -50 0 -85 -6 -47 -5 -67 5 -82 16 -23 18 -45 4 -45 -5 0 -10 9 -10 20 0
11 -5 20 -11 20 -6 0 -8 -7 -5 -16 3 -9 6 -21 6 -28 0 -20 52 -7 72 18 l18 21
0 -24 c0 -24 0 -24 14 -5 8 10 12 29 10 41 -3 12 -1 30 5 40 9 15 11 11 12
-22 3 -81 -6 -119 -22 -94 -6 10 -9 6 -9 -13 0 -16 5 -28 10 -28 9 0 7 -44 -6
-107 -5 -25 -28 -31 -41 -11 -4 7 -10 31 -13 52 -6 49 -33 57 -51 15 -6 -16
-8 -33 -4 -37 4 -4 10 -1 12 6 7 19 35 -39 30 -60 -6 -20 8 -34 18 -19 3 6 12
8 20 5 12 -5 11 -10 -5 -31 -28 -36 -25 -46 10 -41 23 3 30 1 26 -9 -7 -17 2
-17 20 1 8 8 14 23 14 33 0 10 9 26 20 36 19 16 24 48 23 150 0 9 4 17 9 17 4
0 8 9 8 20 0 26 27 80 40 80 5 0 13 19 18 43 9 37 10 38 11 12 1 -17 8 -40 16
-52 13 -19 14 -32 4 -88 -13 -77 -5 -140 17 -131 8 3 14 0 14 -8 0 -8 -9 -16
-20 -19 -18 -5 -20 -11 -15 -49 5 -34 4 -39 -5 -25 -10 15 -13 16 -26 2 -9 -8
-24 -15 -34 -15 -11 0 -24 -9 -30 -20 -6 -11 -16 -18 -21 -14 -6 3 -20 -5 -33
-18 -12 -12 -37 -31 -55 -41 -18 -9 -35 -25 -38 -35 -4 -19 -53 -29 -53 -12 0
6 4 10 9 10 17 0 24 43 9 54 -8 6 -17 19 -21 29 -8 21 -36 23 -43 2 -4 -8 -13
-15 -21 -15 -9 0 -13 6 -9 15 3 9 0 15 -9 15 -8 0 -12 6 -10 13 3 6 -4 18 -15
25 -18 11 -20 10 -20 -12 0 -13 6 -26 13 -29 9 -3 9 -7 -1 -19 -9 -11 -10 -17
-2 -20 9 -3 8 -11 -1 -31 -14 -31 -24 -34 -33 -10 -6 14 -9 14 -27 -6 -12 -13
-19 -30 -16 -42 3 -10 2 -19 -2 -19 -4 0 -14 -12 -21 -28 -7 -16 -14 -22 -17
-14 -3 7 2 23 11 36 11 18 14 38 9 73 -4 35 -1 58 11 81 9 17 16 48 16 69 0
21 7 60 15 87 8 27 15 91 16 145 0 53 1 112 2 131 2 30 -2 35 -22 38 -33 5
-43 -9 -43 -62 -1 -67 -23 -59 -24 9 0 35 4 56 13 59 10 4 10 12 0 40 -14 42
-33 43 -29 1 2 -26 1 -27 -9 -12 -19 31 -39 2 -39 -57 0 -93 -1 -96 -21 -96
-28 0 -33 23 -14 60 9 17 14 37 12 43 -2 7 -1 24 4 38 4 16 3 31 -4 38 -17 17
-27 13 -27 -9 0 -11 -3 -19 -7 -19 -21 3 -23 -3 -7 -29 15 -27 15 -31 1 -53
-18 -27 -12 -69 9 -69 16 0 19 -16 4 -25 -6 -3 -10 -14 -10 -24 0 -10 -9 -21
-20 -24 -19 -5 -20 -1 -19 90 1 70 -2 98 -12 104 -20 12 -33 -6 -21 -27 13
-24 0 -150 -16 -166 -15 -15 -16 -55 -1 -64 7 -4 9 -24 6 -51 -4 -41 3 -68 34
-125 13 -25 11 -31 -6 -24 -8 3 -14 0 -12 -6 3 -16 -65 -29 -80 -16 -7 6 -11
13 -8 17 2 4 -6 7 -18 7 -16 -1 -23 6 -25 24 -6 42 -17 42 -60 0 -23 -22 -46
-40 -51 -40 -13 0 -23 18 -12 22 5 2 5 13 0 26 -6 15 -17 22 -34 22 -14 0 -25
4 -25 10 0 16 -46 23 -69 10 -18 -9 -21 -8 -21 7 0 28 -15 44 -33 37 -20 -7
-23 -44 -4 -45 6 0 3 -4 -8 -9 -25 -10 -58 24 -50 51 9 27 -42 55 -92 50 -7 0
-13 -8 -13 -16 0 -11 -7 -14 -22 -10 -85 19 -82 20 -117 -38 -18 -30 -22 -49
-19 -96 3 -61 -10 -90 -41 -92 -9 0 -11 -2 -6 -5 11 -5 11 -139 -1 -168 -5
-13 -3 -21 4 -24 17 -5 15 -22 -3 -22 -8 0 -15 4 -15 8 0 14 -36 52 -49 52 -6
0 -11 -6 -11 -14 0 -8 -4 -18 -10 -21 -6 -3 -7 1 -4 9 3 9 2 16 -4 16 -5 0 5
16 23 36 28 30 33 43 33 84 l0 49 -42 9 c-24 5 -46 5 -53 0 -8 -6 -19 -2 -32
11 -12 12 -29 21 -40 21 -10 0 -24 7 -31 15 -16 20 -96 17 -93 -2 2 -7 -4 -13
-12 -13 -8 0 -15 -4 -15 -10 0 -19 -27 -10 -55 20 -16 17 -34 30 -39 30 -6 0
-17 9 -24 20 -7 11 -21 20 -33 20 -11 0 -29 5 -40 11 -15 8 -32 6 -66 -5 -26
-9 -61 -16 -79 -16 -28 0 -40 -9 -78 -56 -26 -31 -46 -66 -46 -79 0 -29 -10
-55 -20 -55 -4 0 -13 14 -19 32 -13 37 -30 28 -33 -17 -1 -17 -5 -32 -8 -35
-3 -3 -10 -18 -15 -35 -13 -38 -47 -55 -110 -55 -27 0 -67 -5 -89 -11 -35 -10
-40 -8 -67 17 -16 15 -31 36 -35 46 -5 18 -7 18 -18 2 -10 -13 -21 -16 -46
-11 -19 4 -38 2 -46 -4 -11 -9 -14 -8 -14 5 0 20 -11 20 -56 1 -38 -16 -54
-13 -54 11 0 8 -5 14 -11 14 -7 0 -9 11 -6 26 5 30 -21 84 -41 84 -7 0 -16 10
-21 23 -10 23 -45 57 -61 57 -5 0 -13 7 -18 16 -5 9 -24 19 -43 23 -21 4 -38
15 -44 29 -5 12 -13 22 -17 22 -5 0 -8 11 -8 24 0 24 -16 36 -51 36 -10 0 -19
7 -19 15 0 8 -6 15 -14 15 -7 0 -16 9 -19 20 -3 11 -14 20 -24 20 -11 0 -30
11 -43 25 -26 28 -61 32 -80 10 -7 -8 -19 -15 -26 -15 -8 0 -14 -4 -14 -8 0
-7 -91 -9 -123 -3 -4 0 -12 12 -17 26 -6 16 -17 25 -30 25 -27 0 -50 23 -50
49 0 33 -31 104 -53 124 -12 11 -23 36 -26 60 -4 30 -11 43 -25 45 -10 2 -22
-1 -26 -8 -6 -9 -14 -8 -34 5 -20 14 -30 15 -39 6 -6 -6 -23 -11 -39 -11 -21
0 -26 -4 -21 -16 5 -12 0 -15 -23 -12 -17 2 -28 8 -27 16 4 18 -63 16 -71 -3
-3 -8 -12 -15 -21 -15 -8 0 -15 -4 -15 -10 0 -5 -26 -22 -57 -37 -32 -15 -64
-33 -72 -40 -15 -16 -50 -8 -67 15 -11 14 -36 17 -96 8 -16 -2 -28 1 -28 5 0
5 10 9 22 9 17 0 19 3 10 12 -9 9 -16 8 -30 -5 -24 -22 -56 -22 -73 0 -13 15
-11 16 15 11 51 -10 56 -3 56 83 l0 79 40 0 c34 0 40 3 40 21 0 11 10 29 23
40 l22 18 -22 1 c-18 0 -23 6 -23 25 0 23 -4 25 -40 25 -29 0 -40 4 -40 15 0
11 11 15 40 15 22 0 40 -4 40 -10 0 -5 22 -10 49 -10 42 0 53 -4 74 -30 29
-34 37 -37 37 -15 0 11 11 15 40 15 29 0 40 -4 40 -15 0 -8 7 -15 15 -15 11 0
15 -11 15 -40 0 -28 -4 -40 -14 -40 -8 0 -16 6 -18 12 -4 10 -10 10 -29 1
l-24 -12 28 0 c16 -1 27 -7 27 -15 0 -20 90 -27 110 -9 11 10 12 16 4 21 -16
9 13 82 32 82 8 0 14 5 14 10 0 6 9 10 19 10 12 0 23 11 29 29 l11 30 -70 7
c-38 4 -69 11 -69 15 0 16 -154 11 -176 -6 -21 -16 -64 -20 -64 -6 0 5 -39 12
-87 16 -48 4 -102 14 -119 21 -22 9 -34 10 -36 3 -4 -12 -84 6 -102 23 -6 4
-20 8 -33 8 -17 0 -23 6 -23 21 0 18 -4 20 -32 14 -18 -4 -35 -7 -38 -7 -49
-1 -90 4 -90 11 0 12 127 23 148 12 27 -14 172 -1 172 15 0 9 13 14 38 14 l37
1 -24 19 c-13 11 -29 20 -37 20 -8 0 -14 9 -14 21 0 18 4 20 28 13 15 -4 79
-9 143 -9 64 -1 121 -5 127 -9 7 -4 21 -4 32 -1 42 13 17 24 -62 27 -79 3 -82
4 -55 17 33 17 34 25 5 38 -19 8 -22 16 -19 56 2 42 0 47 -18 47 -16 0 -21 6
-21 25 0 23 -4 25 -40 25 l-40 0 0 -40 c0 -43 -17 -53 -40 -25 -7 8 -19 15
-26 15 -8 0 -14 11 -14 26 0 42 -21 54 -94 54 -36 0 -66 -4 -66 -9 0 -12 -59
-71 -71 -71 -5 0 -9 9 -9 19 0 10 -7 21 -15 25 -8 3 -15 12 -15 21 0 12 -13
15 -65 15 -59 0 -65 -2 -65 -20 0 -12 11 -31 25 -44 18 -17 25 -34 25 -60 0
-32 -3 -36 -25 -36 -16 0 -25 -6 -25 -15 0 -19 -4 -19 -43 2 l-32 17 38 14
c28 11 37 20 37 38 0 19 -5 24 -25 24 -22 0 -25 4 -25 40 l0 40 -55 0 -55 0 0
-70z m7447 -352 c-3 -7 -5 -2 -5 12 0 14 2 19 5 13 2 -7 2 -19 0 -25z m-2280
-34 c-3 -3 -12 -4 -19 -1 -8 3 -5 6 6 6 11 1 17 -2 13 -5z m-4687 -115 c0 -8
24 -9 80 -4 78 7 80 6 80 -15 0 -21 -2 -22 -83 -15 -49 4 -98 3 -120 -3 -37
-10 -37 -10 -37 19 0 27 2 29 40 29 23 0 40 -5 40 -11z m4491 -3 c14 8 10 -6
-6 -22 -8 -9 -15 -26 -15 -39 0 -13 -3 -26 -7 -28 -10 -6 -8 50 3 83 4 13 9
19 12 12 2 -7 8 -10 13 -6z m156 -18 c-3 -8 -6 -5 -6 6 -1 11 2 17 5 13 3 -3
4 -12 1 -19z m-4837 -18 c0 -5 -4 -10 -10 -10 -5 0 -10 5 -10 10 0 6 5 10 10
10 6 0 10 -4 10 -10z m6243 -45 c4 -8 2 -17 -3 -20 -6 -4 -10 3 -10 14 0 25 6
27 13 6z m-6133 -34 c0 -5 15 -11 33 -14 99 -18 95 -15 99 -65 4 -35 1 -51
-11 -61 -14 -12 -11 -13 22 -8 20 3 37 2 37 -3 0 -10 -26 -20 -54 -20 -12 0
-27 -5 -34 -12 -9 -9 -12 -9 -12 0 0 8 -24 12 -80 12 -64 0 -80 -3 -80 -15 0
-8 5 -15 12 -15 9 0 9 -3 0 -12 -8 -8 -9 -15 -1 -25 9 -10 5 -13 -19 -13 -17
0 -34 -5 -37 -11 -4 -6 -13 -8 -21 -5 -8 3 -14 1 -14 -4 0 -5 -9 -2 -20 7 -17
15 -28 43 -16 43 2 0 11 3 20 6 9 3 16 1 16 -5 0 -6 -8 -11 -17 -11 -14 0 -15
-2 -4 -9 15 -10 101 17 101 31 0 4 -17 8 -37 8 -74 1 -140 7 -152 14 -17 11
-13 36 7 37 9 1 32 0 50 -1 26 -1 32 2 32 19 0 18 -6 21 -40 21 -33 0 -40 3
-40 20 0 17 7 20 50 20 28 0 50 -4 50 -9 0 -5 10 -11 23 -14 12 -2 30 -8 40
-12 14 -6 17 -2 17 19 0 14 4 26 9 26 5 0 18 16 30 35 19 33 41 47 41 26z
m4770 -20 c0 -6 -4 -12 -9 -15 -4 -3 -11 -18 -14 -33 -4 -17 -16 -33 -31 -39
-23 -11 -25 -9 -31 18 -8 34 -8 34 37 58 40 21 48 23 48 11z m60 -16 c0 -8 -9
-19 -20 -25 -17 -9 -20 -8 -20 8 0 21 19 44 32 36 4 -3 8 -12 8 -19z m-25 -87
c-2 -18 -3 -40 -4 -49 -1 -20 -23 -30 -40 -19 -10 6 -9 14 3 38 15 29 15 32
-2 42 -15 9 -14 10 6 5 16 -5 22 -2 22 10 0 9 4 14 9 11 5 -3 7 -20 6 -38z
m-4208 6 c-3 -3 -12 -4 -19 -1 -8 3 -5 6 6 6 11 1 17 -2 13 -5z m3567 -40 c3
-8 2 -12 -4 -9 -6 3 -10 10 -10 16 0 14 7 11 14 -7z m3793 -35 c6 -6 9 -18 6
-25 -8 -22 -22 -16 -16 6 3 11 0 20 -6 20 -6 0 -11 -7 -11 -17 0 -9 -3 -14 -6
-10 -8 8 3 37 14 37 4 0 13 -5 19 -11z m-7925 -20 c-24 -11 -49 -18 -55 -15
-7 2 -4 5 7 5 10 1 16 6 13 14 -3 8 9 13 37 14 l41 2 -43 -20z m4151 5 c-3
-15 -20 -15 -26 0 -4 9 0 13 11 12 9 -2 16 -7 15 -12z m2767 -14 c0 -5 -4 -10
-10 -10 -5 0 -10 5 -10 10 0 6 5 10 10 10 6 0 10 -4 10 -10z m-2683 -22 c-3
-8 -6 -5 -6 6 -1 11 2 17 5 13 3 -3 4 -12 1 -19z m258 13 c3 -5 1 -12 -5 -16
-5 -3 -10 1 -10 9 0 18 6 21 15 7z m2038 -68 c-3 -10 -10 -21 -15 -24 -5 -3 2
-24 14 -47 22 -39 22 -42 6 -58 -21 -21 -57 -11 -38 11 9 11 9 22 -1 49 -10
29 -10 39 3 67 9 18 14 39 11 48 -3 9 2 6 11 -6 9 -12 13 -29 9 -40z m-318
-17 c5 -41 11 -53 21 -49 8 3 14 0 14 -6 0 -19 -44 -12 -57 9 -7 10 -16 37
-19 60 -6 36 -4 40 14 40 17 0 22 -8 27 -54z m-2061 -11 c-11 -8 -23 -15 -27
-15 -5 0 -6 -4 -3 -9 4 -5 0 -12 -6 -14 -8 -3 -6 -6 5 -6 22 -1 12 -21 -10
-21 -12 0 -14 7 -10 35 3 19 13 42 21 51 9 8 16 21 16 27 0 6 7 1 16 -11 15
-22 15 -24 -2 -37z m1851 -34 c-15 -15 -16 -14 -9 14 10 44 18 53 22 26 2 -13
-4 -31 -13 -40z m-1915 41 c0 -13 -12 -22 -22 -16 -10 6 -1 24 13 24 5 0 9 -4
9 -8z m3033 -54 c-6 -56 -9 -65 -19 -55 -9 8 6 107 16 107 5 0 6 -24 3 -52z
m-683 -14 c0 -8 -4 -14 -10 -14 -5 0 -10 9 -10 21 0 11 5 17 10 14 6 -3 10
-13 10 -21z m-5848 -36 c-7 -7 -12 -8 -12 -2 0 14 12 26 19 19 2 -3 -1 -11 -7
-17z m61 -49 c-14 -14 -67 -23 -59 -10 4 6 12 8 18 5 7 -5 9 -2 6 8 -5 11 0
14 19 10 13 -2 21 -8 16 -13z m6492 1 c-3 -5 -10 -10 -16 -10 -5 0 -9 5 -9 10
0 6 7 10 16 10 8 0 12 -4 9 -10z m-505 -21 c0 -5 -10 -9 -21 -9 -18 0 -19 2
-9 15 12 15 30 12 30 -6z m-6037 -16 c-7 -2 -19 -2 -25 0 -7 3 -2 5 12 5 14 0
19 -2 13 -5z m2857 -22 c22 -19 31 -34 27 -45 -9 -24 -27 -20 -28 7 -1 16 -2
18 -6 5 -2 -10 -12 -18 -21 -18 -12 0 -13 -3 -4 -12 16 -16 15 -28 -1 -28 -8
0 -20 -18 -27 -40 -17 -51 -37 -53 -35 -2 1 20 -3 43 -8 50 -6 8 -5 17 3 27
16 19 3 37 -21 30 -24 -8 -26 13 -1 22 9 4 23 13 30 20 22 21 57 15 92 -16z
m-3120 15 c0 -2 -7 -6 -15 -10 -8 -3 -15 -1 -15 4 0 6 7 10 15 10 8 0 15 -2
15 -4z m2946 -8 c-3 -7 -9 -21 -12 -30 -10 -28 -24 -21 -24 12 0 24 4 30 21
30 13 0 19 -5 15 -12z m724 2 c0 -5 -4 -10 -10 -10 -5 0 -10 5 -10 10 0 6 5
10 10 10 6 0 10 -4 10 -10z m-405 -39 c-3 -5 -1 -12 3 -15 5 -3 8 -44 7 -90
-1 -54 2 -87 9 -89 15 -6 -6 -41 -26 -45 -19 -4 -32 39 -15 50 11 7 10 9 -12
12 -20 2 -21 15 -6 59 8 24 16 63 17 86 1 28 6 41 15 41 8 0 12 -4 8 -9z m435
-15 c0 -8 9 -21 20 -29 14 -10 17 -20 12 -38 -10 -33 -34 -34 -62 -4 -22 23
-22 26 -7 43 10 10 17 24 17 30 0 7 5 12 10 12 6 0 10 -6 10 -14z m-727 -28
c-5 -27 -23 -40 -23 -17 0 13 20 52 25 47 2 -1 1 -15 -2 -30z m-2913 18 c0 -2
-7 -7 -16 -10 -8 -3 -12 -2 -9 4 6 10 25 14 25 6z m-43 -12 c-3 -3 -12 -4 -19
-1 -8 3 -5 6 6 6 11 1 17 -2 13 -5z m3203 -20 c0 -14 -12 -19 -23 -8 -9 9 4
35 14 28 5 -3 9 -12 9 -20z m1167 -11 c-3 -10 -5 -4 -5 12 0 17 2 24 5 18 2
-7 2 -21 0 -30z m-4447 5 c-14 -5 -33 -7 -43 -4 -10 2 -34 -2 -52 -10 -19 -8
-40 -14 -47 -13 -35 1 83 37 122 37 39 -1 42 -2 20 -10z m3240 -17 c0 -20 -9
-36 -25 -49 -14 -11 -25 -27 -25 -35 0 -8 -10 -17 -22 -20 -30 -8 -35 -1 -15
21 10 10 17 23 17 29 0 6 11 14 25 17 14 4 25 11 25 17 0 8 -5 7 -15 -1 -19
-16 -20 2 -3 30 19 29 38 25 38 -9z m1130 -26 c5 -14 14 -25 20 -25 6 0 8 5 5
10 -3 6 2 18 11 28 17 16 18 16 10 -3 -4 -11 -10 -35 -13 -52 -6 -33 -23 -46
-23 -18 0 8 -7 15 -15 15 -10 0 -15 11 -15 35 0 41 7 45 20 10z m-1590 -15 c0
-5 -4 -10 -10 -10 -5 0 -10 5 -10 10 0 6 5 10 10 10 6 0 10 -4 10 -10z m1685
-37 c-4 -21 -10 -32 -12 -25 -3 6 -11 12 -19 12 -8 0 -14 5 -14 10 0 6 8 10
18 8 11 -2 18 5 20 20 2 13 6 21 9 18 3 -3 2 -22 -2 -43z m-1072 -18 c-34 -27
-49 -16 -18 13 21 18 31 23 33 14 2 -8 -5 -20 -15 -27z m-320 -26 c-1 -28 1
-69 7 -92 5 -22 5 -48 1 -55 -15 -26 -33 51 -25 107 6 50 0 63 -23 40 -7 -7
-13 -7 -17 -1 -3 6 2 13 13 17 11 3 22 12 25 20 12 32 22 13 19 -36z m1265 26
c-3 -3 -9 2 -12 12 -6 14 -5 15 5 6 7 -7 10 -15 7 -18z m4922 15 c0 -5 -4 -10
-10 -10 -5 0 -10 5 -10 10 0 6 5 10 10 10 6 0 10 -4 10 -10z m-4838 -55 c-2
-14 -8 -22 -13 -19 -5 3 -9 -5 -9 -18 0 -19 2 -20 11 -8 8 11 9 8 4 -15 -3
-16 -11 -34 -16 -39 -14 -15 -11 81 3 104 17 27 26 25 20 -5z m-1389 -37 c3
-21 -1 -39 -10 -50 -20 -22 -5 -94 19 -92 10 1 14 -5 11 -17 -8 -29 -21 -32
-56 -16 -18 8 -41 14 -52 12 -34 -3 -109 -26 -122 -37 -7 -5 -20 -8 -30 -6
-10 2 -22 -2 -28 -8 -5 -7 -19 -14 -30 -16 -15 -2 -20 3 -20 21 0 14 -7 27
-19 30 -16 6 -14 10 17 34 20 15 40 27 46 27 6 0 11 7 11 15 0 9 -6 12 -17 9
-16 -5 -16 -4 1 10 10 8 23 13 28 10 11 -7 -2 -57 -19 -67 -13 -8 -19 -37 -7
-37 3 0 15 12 26 26 15 18 23 22 28 13 6 -9 12 -6 21 10 8 11 17 21 22 21 4 0
6 -4 2 -9 -3 -5 -1 -12 4 -15 5 -4 12 -2 16 3 3 6 13 7 22 4 13 -5 15 -2 10
11 -6 15 -3 17 12 13 12 -3 18 1 17 11 0 8 5 17 12 19 6 3 12 -2 12 -11 0 -26
19 -18 26 11 4 15 13 34 21 41 8 8 11 23 7 38 -3 13 -2 24 4 24 5 0 12 -15 15
-32z m1483 -26 l2 -57 -10 43 c-8 37 -6 72 4 72 2 0 4 -26 4 -58z m1895 15
c-10 -9 -11 -8 -5 6 3 10 9 15 12 12 3 -3 0 -11 -7 -18z m-2201 9 c0 -3 -4 -8
-10 -11 -5 -3 -10 -1 -10 4 0 6 5 11 10 11 6 0 10 -2 10 -4z m-1222 -20 c-7
-8 -15 -12 -17 -11 -5 6 10 25 20 25 5 0 4 -6 -3 -14z m-2868 -11 c-33 -19
-50 -18 -26 0 11 8 27 15 35 15 10 -1 7 -6 -9 -15z m2993 0 c4 -8 2 -17 -3
-20 -6 -4 -10 3 -10 14 0 25 6 27 13 6z m4252 -33 c-11 -11 -27 17 -20 35 6
16 8 16 16 -6 5 -13 7 -26 4 -29z m2500 9 c3 -5 1 -12 -5 -16 -5 -3 -10 1 -10
9 0 18 6 21 15 7z m-6815 -21 c0 -5 -5 -10 -11 -10 -5 0 -7 5 -4 10 3 6 8 10
11 10 2 0 4 -4 4 -10z m4460 -19 c0 -9 4 -21 10 -27 5 -5 7 -20 3 -33 -4 -17
-8 -19 -14 -9 -6 9 -11 10 -16 2 -5 -6 -15 -13 -24 -16 -13 -5 -14 1 -9 41 3
25 9 51 13 58 10 17 37 5 37 -16z m-2965 10 c3 -5 1 -12 -5 -16 -5 -3 -10 1
-10 9 0 18 6 21 15 7z m52 -33 c-3 -7 -5 -2 -5 12 0 14 2 19 5 13 2 -7 2 -19
0 -25z m5341 5 c8 -8 11 -17 7 -21 -4 -4 -10 -1 -12 6 -3 6 -13 12 -23 12 -10
0 -21 7 -24 16 -5 12 -1 14 16 8 12 -4 28 -13 36 -21z m-8008 -12 c0 -5 -6
-14 -14 -20 -12 -10 -13 -8 -9 8 5 21 23 30 23 12z m2700 -57 c0 -8 5 -12 10
-9 6 4 8 11 5 16 -4 5 -1 9 4 9 13 0 15 -57 2 -65 -5 -3 -7 -21 -4 -40 4 -23
2 -35 -6 -35 -8 0 -10 -12 -6 -37 6 -36 6 -37 -7 -14 -17 33 -38 38 -45 12 -4
-17 -8 -19 -19 -10 -8 6 -11 15 -8 20 3 5 -1 6 -9 3 -11 -4 -13 4 -7 42 8 53
34 81 57 63 10 -9 13 -7 13 8 0 11 -3 23 -7 27 -4 3 -8 16 -10 27 -3 17 0 18
17 9 11 -6 20 -18 20 -26z m-60 -17 c0 -5 -4 -5 -10 -2 -5 3 -10 14 -10 23 0
15 2 15 10 2 5 -8 10 -19 10 -23z m-1914 4 c-3 -5 1 -11 9 -15 18 -6 20 -32 4
-42 -21 -13 -79 -22 -85 -13 -3 5 0 9 7 9 7 0 9 3 6 7 -4 3 -15 -1 -24 -9 -27
-23 -53 -30 -46 -12 3 7 8 14 12 14 4 0 31 16 61 35 58 37 64 40 56 26z m6941
-27 c13 -4 22 -13 21 -23 -1 -9 0 -27 1 -41 l2 -25 25 29 c31 36 43 26 22 -18
-12 -25 -23 -33 -42 -33 -14 0 -23 3 -20 8 3 5 -9 9 -25 9 -17 0 -31 5 -31 10
0 6 9 10 20 10 11 0 20 5 20 10 0 6 -4 10 -10 10 -5 0 -7 7 -4 15 4 8 1 22 -6
30 -13 16 -7 18 27 9z m-69 -27 c2 -12 -4 -15 -24 -13 -33 4 -43 22 -17 29 26
7 38 2 41 -16z m227 3 c3 -5 1 -10 -4 -10 -6 0 -11 5 -11 10 0 6 2 10 4 10 3
0 8 -4 11 -10z m-515 -19 c0 -15 -38 -56 -45 -49 -14 14 5 58 25 58 11 0 20
-4 20 -9z m650 -1 c0 -5 -11 -10 -25 -10 -14 0 -25 5 -25 10 0 6 11 10 25 10
14 0 25 -4 25 -10z m-7390 -27 c-8 -4 -20 -13 -27 -22 -7 -9 -13 -11 -13 -5 0
15 22 34 40 33 13 0 13 -1 0 -6z m88 -5 c-2 -6 -13 -16 -24 -22 -10 -6 -22
-15 -26 -21 -4 -5 -11 -6 -15 -1 -4 4 6 19 22 32 33 26 49 31 43 12z m2101
-49 c1 -13 12 -36 22 -50 23 -32 25 -56 4 -56 -8 0 -15 9 -15 20 0 11 -7 25
-15 31 -21 15 -34 90 -14 84 8 -2 16 -15 18 -29z m5356 -68 c-4 -12 -11 -21
-17 -19 -5 2 -8 7 -6 10 2 4 -6 14 -17 21 -17 13 -17 17 -5 31 12 16 15 16 33
-2 13 -14 17 -26 12 -41z m-6858 -33 c-3 -8 -6 -5 -6 6 -1 11 2 17 5 13 3 -3
4 -12 1 -19z m6718 -8 c-18 -20 -45 -27 -45 -12 0 9 37 30 54 31 5 1 1 -8 -9
-19z m815 0 c0 -5 -4 -10 -9 -10 -6 0 -13 5 -16 10 -3 6 1 10 9 10 9 0 16 -4
16 -10z m-5560 -74 c-13 -38 -26 -26 -27 25 l-1 51 18 -29 c10 -17 14 -36 10
-47z m6160 38 c0 -8 -4 -14 -10 -14 -5 0 -10 9 -10 21 0 11 5 17 10 14 6 -3
10 -13 10 -21z m-9050 -9 c0 -13 4 -14 20 -5 16 8 20 8 20 -3 0 -8 -7 -20 -15
-27 -11 -9 -12 -16 -3 -30 10 -15 7 -22 -18 -44 -23 -21 -26 -27 -15 -35 11
-7 6 -13 -24 -25 -22 -9 -45 -14 -52 -12 -16 7 -114 -43 -127 -63 -5 -8 -24
-28 -42 -45 -19 -17 -34 -38 -34 -46 0 -21 -64 -55 -82 -44 -26 17 -60 10 -82
-17 -13 -15 -41 -32 -62 -39 -61 -18 -141 -24 -148 -11 -4 7 -1 9 8 5 10 -4
27 12 52 50 20 31 41 56 45 56 5 0 9 10 9 23 1 26 32 92 42 90 15 -4 88 26
125 51 21 15 46 26 56 26 15 0 18 5 15 25 -3 14 -1 28 4 31 4 3 6 10 3 15 -4
5 -2 9 4 9 6 0 19 10 31 22 21 23 26 18 11 -11 -8 -14 -5 -17 17 -19 19 -1 23
1 13 7 -11 7 -3 14 32 30 25 12 52 21 59 21 8 0 19 5 26 12 19 19 25 1 11 -32
-8 -16 -22 -33 -31 -36 -21 -6 -24 -24 -5 -24 16 1 48 29 70 63 9 15 24 27 32
27 8 0 15 5 15 10 0 6 5 10 10 10 6 0 10 -7 10 -15z m2559 -22 c2 -2 -5 -3
-16 -3 -13 0 -23 8 -26 21 -5 20 -5 20 16 3 12 -11 24 -20 26 -21z m5478 -25
c-3 -7 -5 -2 -5 12 0 14 2 19 5 13 2 -7 2 -19 0 -25z m640 -6 c6 -4 15 -32 18
-62 6 -50 6 -53 -8 -35 -8 11 -17 30 -21 43 -4 12 -12 20 -17 17 -16 -11 -10
-43 16 -82 26 -37 30 -73 9 -80 -6 -2 -19 18 -28 44 -9 26 -23 61 -31 76 -19
36 -19 57 -1 57 7 0 19 7 26 15 14 17 20 18 37 7z m-9270 -109 c-3 -10 -5 -2
-5 17 0 19 2 27 5 18 2 -10 2 -26 0 -35z m8681 35 c-6 -18 -28 -21 -28 -4 0 9
7 16 16 16 9 0 14 -5 12 -12z m-7295 -18 c-10 -11 -24 -20 -31 -20 -9 0 -5 8
9 20 31 25 43 25 22 0z m8371 -2 c16 -19 17 -20 1 -15 -9 4 -26 7 -37 7 -17 0
-18 3 -8 15 16 20 22 19 44 -7z m-9794 -10 c0 -18 -2 -20 -9 -8 -6 8 -7 18 -5
22 9 14 14 9 14 -14z m190 5 c0 -10 -14 -26 -30 -35 -24 -14 -30 -14 -30 -3 0
8 -10 21 -22 29 l-22 16 22 0 c14 0 22 -6 22 -17 0 -14 3 -13 20 5 25 27 40
28 40 5z m-436 -35 c-10 -19 -19 -28 -22 -20 -3 10 -7 10 -18 1 -8 -6 -12 -15
-9 -19 3 -5 -4 -6 -15 -3 -15 4 -19 2 -15 -9 4 -9 -4 -21 -18 -31 -13 -8 -39
-32 -58 -52 -19 -20 -47 -46 -63 -57 l-28 -21 11 21 c7 12 18 22 25 22 8 0 19
13 25 28 7 16 25 36 41 46 17 9 30 24 30 31 0 17 79 71 98 67 6 -2 12 4 12 13
0 8 5 15 10 15 6 0 3 -15 -6 -32z m1609 -11 c-17 -31 -76 -97 -86 -97 -5 0 -4
7 3 15 21 25 -2 17 -32 -12 -40 -38 -43 -24 -4 17 18 19 35 43 39 53 3 9 15
17 25 17 10 0 27 6 38 14 22 17 29 14 17 -7z m-1332 -19 c-5 -13 -17 -25 -27
-27 -17 -3 -16 0 5 23 30 32 33 32 22 4z m8699 -22 c0 -27 -15 -42 -25 -26 -8
13 3 50 16 50 5 0 9 -11 9 -24z m-9135 2 c-11 -6 -29 -20 -40 -31 -27 -25 -58
-42 -54 -29 5 13 90 72 104 72 6 -1 1 -6 -10 -12z m9395 -13 c0 -8 -4 -15 -10
-15 -5 0 -10 7 -10 15 0 8 5 15 10 15 6 0 10 -7 10 -15z m-1315 -45 c3 -5 1
-19 -6 -31 -9 -17 -13 -19 -20 -8 -14 22 -11 49 5 49 8 0 18 -4 21 -10z m1839
-30 c-10 -4 -21 -6 -24 -3 -8 7 24 22 34 16 5 -4 1 -10 -10 -13z m-9537 -12
c-3 -8 -6 -5 -6 6 -1 11 2 17 5 13 3 -3 4 -12 1 -19z m-532 2 c-3 -5 -14 -10
-23 -9 -14 0 -13 2 3 9 27 11 27 11 20 0z m1785 6 c0 -2 -7 -7 -16 -10 -8 -3
-12 -2 -9 4 6 10 25 14 25 6z m5617 -18 c36 -41 37 -48 6 -48 -15 0 -39 -1
-53 -2 -21 -3 -25 1 -22 21 5 52 36 65 69 29z m393 -24 c0 -28 -21 -32 -41 -8
-11 14 -10 18 5 30 24 17 36 10 36 -22z m-7775 7 c-3 -6 -16 -11 -29 -11 -12
0 -28 -6 -35 -12 -10 -11 -11 -10 -6 3 3 8 20 19 38 25 36 11 42 10 32 -5z
m1713 5 c-7 -8 -15 -12 -17 -11 -5 6 10 25 20 25 5 0 4 -6 -3 -14z m-1308 -51
c0 -8 -2 -15 -4 -15 -2 0 -12 -3 -21 -6 -15 -6 -15 -4 -4 15 16 25 29 27 29 6z
m6305 -5 c10 -11 16 -20 13 -20 -3 0 -13 9 -23 20 -10 11 -16 20 -13 20 3 0
13 -9 23 -20z m-6265 1 c0 -5 8 -12 18 -15 10 -3 7 -4 -7 -3 -24 2 -44 27 -22
27 6 0 11 -4 11 -9z m90 -7 c0 -2 -7 -4 -15 -4 -8 0 -15 4 -15 10 0 5 7 7 15
4 8 -4 15 -8 15 -10z m1160 -34 c0 -11 -7 -20 -15 -20 -8 0 -15 9 -15 20 0 11
7 20 15 20 8 0 15 -9 15 -20z m-1323 4 c-3 -3 -12 -4 -19 -1 -8 3 -5 6 6 6 11
1 17 -2 13 -5z m10074 -31 c1 -10 1 -26 0 -35 -2 -12 5 -18 18 -18 16 0 21 -6
21 -26 0 -25 -2 -26 -36 -21 -44 7 -51 14 -36 29 7 7 12 21 12 31 0 18 -5 19
-45 14 -24 -4 -46 -3 -49 1 -10 17 11 31 54 35 25 2 48 4 53 5 4 1 8 -6 8 -15z
m-335 -39 c-5 -14 -9 -15 -19 -5 -9 9 -9 14 3 21 18 11 24 6 16 -16z m-8356 6
c0 -13 -11 -13 -30 0 -12 8 -11 10 8 10 12 0 22 -4 22 -10z m80 -10 c0 -5 -2
-10 -4 -10 -3 0 -8 5 -11 10 -3 6 -1 10 4 10 6 0 11 -4 11 -10z m8219 -19 c12
-21 5 -32 -15 -24 -16 6 -19 43 -4 43 5 0 14 -8 19 -19z m250 -12 c-16 -10
-23 -4 -14 10 3 6 11 8 17 5 6 -4 5 -9 -3 -15z m45 -4 c-4 -8 -11 -12 -16 -9
-6 4 -5 10 3 15 19 12 19 11 13 -6z m-209 -15 c3 -6 -4 -10 -17 -10 -18 0 -20
2 -8 10 19 12 18 12 25 0z m-9046 -17 c-10 -2 -19 -13 -22 -24 -3 -12 -13 -19
-29 -18 l-23 0 23 11 c12 6 22 17 22 25 0 7 10 12 23 12 15 -1 17 -3 6 -6z
m3571 -16 c26 -21 54 -57 44 -57 -15 1 -88 70 -73 70 8 0 21 -6 29 -13z m3215
-6 c3 -5 1 -12 -5 -16 -5 -3 -10 1 -10 9 0 18 6 21 15 7z m290 -1 c3 -5 1 -10
-4 -10 -6 0 -11 5 -11 10 0 6 2 10 4 10 3 0 8 -4 11 -10z m1361 -32 c31 -26
87 -86 98 -106 4 -7 -6 -5 -24 6 -29 18 -100 93 -100 106 0 9 10 7 26 -6z
m453 -17 c12 -8 12 -12 2 -25 -7 -8 -10 -20 -6 -26 3 -5 2 -10 -2 -10 -11 0
-33 57 -25 64 7 8 15 7 31 -3z m119 -30 c3 -8 -1 -12 -9 -9 -7 2 -15 10 -17
17 -3 8 1 12 9 9 7 -2 15 -10 17 -17z m-8830 -3 c-3 -7 -13 -15 -24 -17 -16
-3 -17 -1 -5 13 16 19 34 21 29 4z m8752 -58 c0 -5 -2 -10 -4 -10 -3 0 -8 5
-11 10 -3 6 -1 10 4 10 6 0 11 -4 11 -10z m-355 -30 c3 -5 -1 -10 -10 -10 -9
0 -13 5 -10 10 3 6 8 10 10 10 2 0 7 -4 10 -10z m55 -42 c0 -6 -7 -7 -16 -4
-9 3 -18 6 -20 6 -3 0 -3 4 1 10 7 11 35 2 35 -12z m380 2 c0 -5 -4 -10 -10
-10 -5 0 -10 5 -10 10 0 6 5 10 10 10 6 0 10 -4 10 -10z m-2061 -34 c9 -10 8
-15 -4 -20 -8 -3 -15 -4 -15 -2 0 3 -3 11 -6 20 -8 20 9 21 25 2z m1755 -9
c22 -12 41 -28 44 -34 7 -24 -33 -13 -66 16 -50 47 -42 53 22 18z m451 3 c3
-5 1 -10 -4 -10 -6 0 -11 5 -11 10 0 6 2 10 4 10 3 0 8 -4 11 -10z m-2139 -67
c-3 -4 -6 -1 -6 5 0 6 -7 9 -15 6 -8 -4 -15 -2 -15 4 0 17 24 20 33 5 5 -8 6
-17 3 -20z m1864 7 c8 -5 12 -12 9 -15 -8 -8 -39 5 -39 16 0 11 11 11 30 -1z
m74 -42 c-3 -5 -12 -4 -20 3 -19 16 -18 18 6 12 11 -3 17 -9 14 -15z m174 1
c-5 -14 -21 -14 -26 0 -2 6 4 11 13 11 9 0 15 -5 13 -11z"/>
<path d="M3802 1725 c-13 -16 -5 -19 22 -9 9 3 16 10 16 15 0 14 -24 10 -38
-6z"/>
<path d="M5325 1250 c-3 -5 -1 -10 4 -10 6 0 11 5 11 10 0 6 -2 10 -4 10 -3 0
-8 -4 -11 -10z"/>
<path d="M5260 1221 c0 -6 5 -13 10 -16 6 -3 10 1 10 9 0 9 -4 16 -10 16 -5 0
-10 -4 -10 -9z"/>
<path d="M2573 776 c-12 -14 -7 -26 9 -26 5 0 6 5 3 10 -3 6 1 10 10 10 9 0
13 5 10 10 -8 13 -18 12 -32 -4z"/>
<path d="M2573 683 c9 -2 25 -2 35 0 9 3 1 5 -18 5 -19 0 -27 -2 -17 -5z"/>
<path d="M2657 660 c-3 -11 -2 -20 3 -20 4 0 10 9 13 20 3 11 2 20 -3 20 -4 0
-10 -9 -13 -20z"/>
<path d="M2631 654 c0 -11 3 -14 6 -6 3 7 2 16 -1 19 -3 4 -6 -2 -5 -13z"/>
<path d="M730 2993 c1 -5 7 -19 15 -33 l14 -25 1 25 c1 24 2 24 17 -7 9 -18
21 -33 25 -33 5 0 21 -13 35 -30 13 -16 29 -30 34 -30 13 0 11 58 -2 62 -9 3
-9 9 0 25 24 47 17 53 -64 53 -41 0 -75 -3 -75 -7z"/>
<path d="M1600 2850 c0 -5 18 -10 40 -10 22 0 40 5 40 10 0 6 -18 10 -40 10
-22 0 -40 -4 -40 -10z"/>
<path d="M960 2830 c0 -5 9 -10 20 -10 11 0 20 5 20 10 0 6 -9 10 -20 10 -11
0 -20 -4 -20 -10z"/>
<path d="M1840 2818 c0 -19 2 -20 10 -8 13 19 13 30 0 30 -5 0 -10 -10 -10
-22z"/>
<path d="M2000 2821 c0 -11 6 -21 14 -21 7 0 24 -8 37 -19 24 -18 109 -35 109
-22 0 4 -18 16 -40 27 -22 10 -40 25 -40 32 0 6 -8 12 -17 12 -10 0 -28 3 -40
6 -19 5 -23 2 -23 -15z"/>
<path d="M1730 2770 c0 -5 7 -10 15 -10 8 0 15 5 15 10 0 6 -7 10 -15 10 -8 0
-15 -4 -15 -10z"/>
<path d="M1890 2770 c-12 -8 -11 -10 8 -10 12 0 22 5 22 10 0 13 -11 13 -30 0z"/>
<path d="M7244 2716 c-3 -14 2 -37 12 -57 25 -47 25 -58 3 -80 -10 -10 -19
-23 -19 -29 0 -5 -4 -10 -10 -10 -5 0 -10 13 -10 29 0 17 -4 33 -10 36 -6 3
-7 -1 -4 -9 4 -11 0 -16 -10 -16 -22 0 -34 -36 -30 -87 2 -24 0 -43 -6 -43 -5
0 -7 -7 -4 -15 4 -8 1 -15 -6 -15 -18 0 -7 -44 12 -48 11 -2 22 6 29 22 7 14
16 26 21 26 5 0 4 -9 -2 -19 -15 -29 -12 -44 6 -37 14 5 15 -3 12 -59 -3 -36
-8 -68 -11 -72 -11 -10 -8 -83 3 -83 16 0 30 37 36 98 4 39 3 62 -4 66 -8 4
-9 35 -6 89 4 63 12 96 35 143 16 34 32 84 36 111 5 45 3 52 -18 67 -32 22
-48 20 -55 -8z"/>
<path d="M7021 2658 c-1 -15 4 -30 9 -33 12 -7 12 12 0 40 -8 18 -9 17 -9 -7z"/>
<path d="M7160 2652 c0 -15 -5 -33 -12 -40 -16 -16 -4 -25 22 -17 17 5 20 12
15 28 -4 12 -7 30 -8 40 -2 28 -17 19 -17 -11z"/>
<path d="M7201 2664 c0 -11 3 -14 6 -6 3 7 2 16 -1 19 -3 4 -6 -2 -5 -13z"/>
<path d="M6961 2638 c1 -22 3 -26 6 -13 3 11 13 25 22 32 14 11 14 12 -6 13
-20 0 -23 -5 -22 -32z"/>
<path d="M6981 2624 c0 -11 3 -14 6 -6 3 7 2 16 -1 19 -3 4 -6 -2 -5 -13z"/>
<path d="M7057 2613 c-2 -5 -4 -32 -3 -61 1 -30 -2 -56 -6 -59 -14 -8 -8 -23
10 -23 10 0 13 -3 6 -8 -13 -8 -44 -66 -44 -82 0 -6 7 -18 15 -26 9 -9 15 -11
15 -4 0 6 4 9 9 6 12 -8 36 108 36 175 0 39 -5 60 -17 72 -9 10 -19 14 -21 10z"/>
<path d="M1600 2586 c0 -25 -3 -26 -50 -26 -32 0 -61 -7 -82 -20 -21 -12 -51
-20 -80 -20 -52 0 -56 -3 -33 -27 16 -16 50 -20 215 -29 82 -5 101 -3 143 16
48 21 61 40 30 40 -10 1 -29 10 -42 21 -21 17 -23 23 -13 40 11 17 9 19 -15
19 -16 0 -38 3 -50 6 -20 5 -23 2 -23 -20z"/>
<path d="M1251 2538 c-21 -7 -23 -11 -10 -22 22 -21 79 -29 79 -11 0 8 -9 15
-19 15 -11 0 -21 6 -23 14 -2 10 -9 11 -27 4z"/>
<path d="M6976 2541 c-4 -7 -5 -15 -2 -18 9 -9 19 4 14 18 -4 11 -6 11 -12 0z"/>
<path d="M2320 2505 c0 -14 2 -25 4 -25 16 0 36 14 36 25 0 8 10 16 23 18 12
2 3 5 -20 6 -40 1 -43 -1 -43 -24z"/>
<path d="M2608 2513 c6 -2 18 -2 25 0 6 3 1 5 -13 5 -14 0 -19 -2 -12 -5z"/>
<path d="M6245 2450 c-3 -5 1 -10 9 -10 9 0 16 5 16 10 0 6 -4 10 -9 10 -6 0
-13 -4 -16 -10z"/>
<path d="M6311 2413 c0 -13 -5 -23 -10 -23 -5 0 -11 -9 -14 -20 -3 -11 -2 -20
3 -20 17 0 31 30 27 57 -3 22 -4 23 -6 6z"/>
<path d="M1760 2405 c0 -16 16 -20 24 -6 3 5 -1 11 -9 15 -9 3 -15 0 -15 -9z"/>
<path d="M6885 2410 c3 -5 10 -10 16 -10 5 0 9 5 9 10 0 6 -7 10 -16 10 -8 0
-12 -4 -9 -10z"/>
<path d="M6400 2401 c0 -5 -3 -17 -6 -25 -5 -12 -2 -15 10 -10 17 7 22 44 6
44 -5 0 -10 -4 -10 -9z"/>
<path d="M7300 2400 c0 -5 5 -10 10 -10 6 0 10 5 10 10 0 6 -4 10 -10 10 -5 0
-10 -4 -10 -10z"/>
<path d="M6255 2371 c-10 -16 -13 -91 -4 -91 5 0 9 12 9 26 0 14 5 34 10 44
10 19 -3 39 -15 21z"/>
<path d="M6440 2370 c0 -5 5 -10 10 -10 6 0 10 5 10 10 0 6 -4 10 -10 10 -5 0
-10 -4 -10 -10z"/>
<path d="M7196 2305 c-9 -26 -7 -32 5 -12 6 10 9 21 6 23 -2 3 -7 -2 -11 -11z"/>
<path d="M8220 2311 c0 -5 -3 -18 -7 -28 -6 -16 -5 -16 10 -4 19 15 23 41 7
41 -5 0 -10 -4 -10 -9z"/>
<path d="M798 2293 c-4 -16 1 -18 39 -14 57 4 61 31 4 31 -28 0 -40 -5 -43
-17z"/>
<path d="M4800 2298 c0 -7 -3 -23 -6 -35 -4 -14 -2 -23 5 -23 6 0 11 9 11 19
0 11 5 23 10 26 12 7 4 25 -11 25 -5 0 -9 -6 -9 -12z"/>
<path d="M1618 2283 c12 -2 32 -2 45 0 12 2 2 4 -23 4 -25 0 -35 -2 -22 -4z"/>
<path d="M1340 2269 c0 -5 5 -7 10 -4 6 3 10 8 10 11 0 2 -4 4 -10 4 -5 0 -10
-5 -10 -11z"/>
<path d="M2397 2243 c-4 -20 -4 -39 -2 -42 3 -2 5 3 5 12 0 11 8 17 25 17 25
0 25 1 9 25 -22 34 -30 31 -37 -12z"/>
<path d="M3315 2270 c3 -5 8 -10 11 -10 2 0 4 5 4 10 0 6 -5 10 -11 10 -5 0
-7 -4 -4 -10z"/>
<path d="M6284 2235 c1 -25 2 -45 3 -45 1 0 9 7 17 16 28 27 16 74 -18 74 -2
0 -2 -20 -2 -45z"/>
<path d="M1600 2240 c0 -17 7 -20 40 -20 33 0 40 3 40 20 0 17 -7 20 -40 20
-33 0 -40 -3 -40 -20z"/>
<path d="M8130 2244 c0 -8 5 -12 10 -9 6 4 8 11 5 16 -9 14 -15 11 -15 -7z"/>
<path d="M1840 2240 c0 -5 5 -10 10 -10 6 0 10 5 10 10 0 6 -4 10 -10 10 -5 0
-10 -4 -10 -10z"/>
<path d="M6217 2216 c-15 -23 -16 -26 -2 -26 17 0 29 22 23 41 -2 6 -12 0 -21
-15z"/>
<path d="M690 2190 c0 -5 5 -10 10 -10 6 0 10 5 10 10 0 6 -4 10 -10 10 -5 0
-10 -4 -10 -10z"/>
<path d="M8015 2185 c-3 -8 -7 -22 -10 -30 -2 -9 2 -18 10 -21 8 -4 15 -12 15
-20 0 -8 4 -14 9 -14 13 0 24 34 12 38 -6 2 -8 14 -5 26 6 27 -23 46 -31 21z"/>
<path d="M6255 2152 c-6 -4 -10 -22 -11 -40 -1 -25 3 -32 15 -30 18 4 26 40
14 62 -5 8 -13 12 -18 8z"/>
<path d="M8077 2123 c-8 -44 -3 -51 19 -29 10 11 14 25 10 41 -9 36 -22 31
-29 -12z"/>
<path d="M6491 2134 c0 -11 3 -14 6 -6 3 7 2 16 -1 19 -3 4 -6 -2 -5 -13z"/>
<path d="M1421 2104 c0 -11 3 -14 6 -6 3 7 2 16 -1 19 -3 4 -6 -2 -5 -13z"/>
<path d="M7925 2109 c-4 -6 -5 -13 -2 -16 7 -7 27 6 27 18 0 12 -17 12 -25 -2z"/>
<path d="M8978 2095 c-3 -14 -1 -25 3 -25 5 0 9 11 9 25 0 14 -2 25 -4 25 -2
0 -6 -11 -8 -25z"/>
<path d="M8899 2078 c-9 -17 -9 -23 0 -26 9 -3 9 -7 0 -18 -9 -11 -8 -14 5
-14 9 0 16 -7 16 -15 0 -8 5 -15 10 -15 6 0 10 10 10 23 0 13 5 28 11 34 13
13 5 29 -21 43 -15 8 -21 6 -31 -12z"/>
<path d="M2227 2064 c-11 -15 -28 -24 -45 -24 -23 -1 -25 -2 -9 -11 9 -6 34
-9 55 -7 32 3 37 7 40 29 4 35 -19 42 -41 13z"/>
<path d="M1785 2059 l-30 -19 33 0 c25 0 32 4 32 20 0 11 -1 20 -2 19 -2 0
-16 -9 -33 -20z"/>
<path d="M1835 2050 c-4 -6 5 -10 20 -10 15 0 24 4 20 10 -3 6 -12 10 -20 10
-8 0 -17 -4 -20 -10z"/>
<path d="M4292 2053 c-15 -3 -22 -10 -19 -21 2 -9 8 -16 14 -15 16 3 35 -55
20 -60 -7 -2 -8 -8 -4 -13 4 -4 17 2 29 14 19 18 20 26 12 58 -10 40 -15 44
-52 37z"/>
<path d="M7930 2050 c0 -5 5 -10 10 -10 6 0 10 5 10 10 0 6 -4 10 -10 10 -5 0
-10 -4 -10 -10z"/>
<path d="M4368 2043 c7 -3 16 -2 19 1 4 3 -2 6 -13 5 -11 0 -14 -3 -6 -6z"/>
<path d="M8970 2039 c0 -5 5 -7 10 -4 6 3 10 8 10 11 0 2 -4 4 -10 4 -5 0 -10
-5 -10 -11z"/>
<path d="M1408 2033 c6 -2 18 -2 25 0 6 3 1 5 -13 5 -14 0 -19 -2 -12 -5z"/>
<path d="M1711 2036 c2 -2 15 -9 29 -15 24 -11 24 -11 6 3 -16 13 -49 24 -35
12z"/>
<path d="M6780 2021 c0 -6 5 -13 10 -16 6 -3 10 1 10 9 0 9 -4 16 -10 16 -5 0
-10 -4 -10 -9z"/>
<path d="M8975 2010 c3 -5 8 -10 11 -10 2 0 4 5 4 10 0 6 -5 10 -11 10 -5 0
-7 -4 -4 -10z"/>
<path d="M9181 2002 c-7 -13 -7 -23 -1 -27 5 -3 7 -12 3 -20 -3 -8 -3 -15 0
-15 11 0 25 58 17 70 -6 9 -11 7 -19 -8z"/>
<path d="M7925 1990 c-3 -11 -14 -20 -23 -21 -14 0 -13 -2 3 -8 27 -11 45 -3
45 19 0 27 -17 34 -25 10z"/>
<path d="M4862 1980 c0 -14 2 -19 5 -12 2 6 2 18 0 25 -3 6 -5 1 -5 -13z"/>
<path d="M4888 1993 c7 -3 16 -2 19 1 4 3 -2 6 -13 5 -11 0 -14 -3 -6 -6z"/>
<path d="M8065 1970 c-3 -5 3 -10 14 -10 12 0 21 5 21 10 0 6 -6 10 -14 10 -8
0 -18 -4 -21 -10z"/>
<path d="M8126 1973 c-3 -3 -6 -16 -6 -28 0 -23 -28 -55 -48 -55 -7 0 -12 -9
-12 -19 0 -11 -4 -23 -10 -26 -15 -9 -12 -25 5 -25 9 0 15 9 15 25 0 14 5 25
10 25 6 0 10 -13 10 -30 0 -23 5 -30 19 -30 11 0 21 5 23 12 4 10 5 -15 8
-106 0 -22 3 -27 12 -18 15 15 20 186 7 234 -10 38 -21 52 -33 41z m-2 -108
c3 -8 1 -15 -4 -15 -6 0 -10 7 -10 15 0 8 2 15 4 15 2 0 6 -7 10 -15z"/>
<path d="M4275 1928 c-4 -10 -4 -26 0 -35 8 -17 8 -17 12 0 3 9 3 25 0 35 -4
16 -4 16 -12 0z"/>
<path d="M9270 1919 c-11 -8 -12 -12 -2 -16 6 -2 12 -13 12 -24 0 -10 7 -19
15 -19 10 0 17 -14 21 -40 7 -45 15 -50 29 -17 6 13 17 21 28 19 25 -4 21 5
-15 42 -18 18 -39 41 -46 50 -15 19 -22 20 -42 5z"/>
<path d="M4787 1900 c-3 -11 -1 -20 4 -20 5 0 9 9 9 20 0 11 -2 20 -4 20 -2 0
-6 -9 -9 -20z"/>
<path d="M9185 1900 c-3 -5 -1 -10 4 -10 6 0 11 5 11 10 0 6 -2 10 -4 10 -3 0
-8 -4 -11 -10z"/>
<path d="M5108 1894 c-9 -8 3 -44 13 -38 11 7 12 44 1 44 -5 0 -11 -3 -14 -6z"/>
<path d="M4345 1868 c-11 -29 -1 -83 15 -83 11 0 14 10 13 39 -3 45 -19 69
-28 44z"/>
<path d="M5072 1817 c2 -15 8 -26 13 -25 12 3 8 29 -7 43 -6 7 -8 1 -6 -18z"/>
<path d="M9225 1829 c-4 -6 -5 -13 -2 -16 7 -7 27 6 27 18 0 12 -17 12 -25 -2z"/>
<path d="M9380 1800 c0 -5 5 -10 10 -10 6 0 10 5 10 10 0 6 -4 10 -10 10 -5 0
-10 -4 -10 -10z"/>
<path d="M4177 1783 c-12 -11 -8 -23 8 -23 8 0 15 7 15 15 0 16 -12 20 -23 8z"/>
<path d="M4330 1760 c0 -5 5 -10 10 -10 6 0 10 5 10 10 0 6 -4 10 -10 10 -5 0
-10 -4 -10 -10z"/>
<path d="M4291 1744 c0 -11 3 -14 6 -6 3 7 2 16 -1 19 -3 4 -6 -2 -5 -13z"/>
<path d="M4805 1750 c-4 -6 -3 -16 3 -22 6 -6 12 -6 17 2 4 6 3 16 -3 22 -6 6
-12 6 -17 -2z"/>
<path d="M3620 1741 c0 -6 5 -13 10 -16 6 -3 10 1 10 9 0 9 -4 16 -10 16 -5 0
-10 -4 -10 -9z"/>
<path d="M9740 1691 c0 -17 -4 -33 -10 -36 -5 -3 -10 -15 -10 -26 0 -10 5 -19
10 -19 6 0 10 -4 10 -10 0 -5 -8 -10 -19 -10 -21 0 -36 -40 -19 -51 20 -13 57
22 68 62 8 28 8 50 -1 79 -14 47 -29 52 -29 11z"/>
<path d="M9640 1689 c0 -5 5 -7 10 -4 6 3 10 8 10 11 0 2 -4 4 -10 4 -5 0 -10
-5 -10 -11z"/>
<path d="M4890 1650 c0 -5 7 -10 16 -10 8 0 12 5 9 10 -3 6 -10 10 -16 10 -5
0 -9 -4 -9 -10z"/>
<path d="M9631 1604 c0 -11 3 -14 6 -6 3 7 2 16 -1 19 -3 4 -6 -2 -5 -13z"/>
<path d="M10320 1406 c0 -26 13 -35 25 -16 3 6 -1 17 -9 26 -15 14 -16 13 -16
-10z"/>
<path d="M11741 985 c-1 -22 -4 -51 -7 -65 -5 -20 -3 -22 5 -10 10 13 12 13
21 0 7 -11 10 -6 10 23 0 20 -4 37 -9 37 -5 0 -12 12 -14 28 -3 20 -4 17 -6
-13z"/>
<path d="M11810 976 c0 -22 3 -27 11 -19 8 8 8 16 0 30 -9 16 -10 14 -11 -11z"/>
<path d="M11801 935 c1 -19 18 -51 18 -35 0 8 -4 22 -9 30 -5 8 -9 11 -9 5z"/>
<path d="M14345 860 c3 -5 8 -10 11 -10 2 0 4 5 4 10 0 6 -5 10 -11 10 -5 0
-7 -4 -4 -10z"/>
<path d="M14385 797 c-24 -27 -25 -36 -5 -34 14 1 20 8 20 24 0 26 -1 27 -15
10z"/>
<path d="M13015 790 c3 -5 8 -10 11 -10 2 0 4 5 4 10 0 6 -5 10 -11 10 -5 0
-7 -4 -4 -10z"/>
<path d="M12990 772 c0 -12 19 -26 26 -19 2 2 -2 10 -11 17 -9 8 -15 8 -15 2z"/>
<path d="M12745 710 c10 -11 20 -18 23 -15 7 6 -18 35 -31 35 -5 0 -2 -9 8
-20z"/>
<path d="M13660 709 c0 -5 5 -9 11 -9 5 0 7 -4 4 -10 -3 -5 -1 -10 4 -10 6 0
11 5 11 10 0 6 1 13 3 17 1 3 -6 7 -15 9 -10 1 -18 -2 -18 -7z"/>
<path d="M13624 675 c3 -8 -3 -19 -12 -25 -15 -8 -15 -11 -2 -19 19 -13 27 -6
32 29 3 21 0 30 -10 30 -8 0 -12 -6 -8 -15z"/>
<path d="M14190 670 c-8 -5 -11 -12 -8 -16 10 -9 38 3 38 16 0 12 -10 13 -30
0z"/>
<path d="M12550 640 c0 -5 7 -10 16 -10 8 0 12 5 9 10 -3 6 -10 10 -16 10 -5
0 -9 -4 -9 -10z"/>
<path d="M12385 614 c-15 -11 -20 -25 -18 -62 2 -71 13 -125 31 -144 16 -19
82 -25 82 -8 0 6 8 10 18 10 21 1 56 29 65 53 4 10 0 28 -9 41 -8 13 -14 28
-13 32 1 5 -1 21 -5 35 -6 19 -16 28 -36 31 -26 4 -27 3 -18 -23 5 -16 8 -36
6 -46 -3 -13 -9 -7 -22 22 -30 66 -33 70 -47 72 -8 2 -23 -4 -34 -13z"/>
<path d="M12785 564 c-5 -47 -4 -69 4 -72 6 -2 11 -10 11 -19 0 -9 7 -13 18
-9 9 2 27 7 40 11 15 4 22 14 22 30 0 19 -6 24 -32 27 -25 2 -33 8 -31 22 0
10 -5 32 -12 48 -12 30 -13 29 -20 -38z"/>
<path d="M14059 593 c-13 -15 -12 -15 9 -4 23 12 28 21 13 21 -5 0 -15 -7 -22
-17z"/>
<path d="M13085 568 c-4 -10 -4 -25 -1 -34 5 -13 9 -14 21 -4 8 7 15 9 15 5 0
-4 -7 -13 -17 -20 -9 -7 -13 -17 -9 -23 11 -18 26 -14 26 7 0 11 4 21 10 23 5
2 -1 17 -14 33 -21 26 -25 28 -31 13z"/>
<path d="M13590 570 c0 -5 5 -10 11 -10 5 0 7 5 4 10 -3 6 -8 10 -11 10 -2 0
-4 -4 -4 -10z"/>
<path d="M12946 528 c-5 -31 -1 -49 16 -81 33 -58 50 -60 42 -5 -4 23 -11 51
-15 60 -6 10 -5 18 2 20 5 2 -1 13 -14 25 l-25 21 -6 -40z"/>
<path d="M10880 515 c0 -24 153 -169 290 -275 36 -27 70 -53 75 -58 6 -4 17
-11 25 -15 8 -4 29 -16 45 -27 58 -37 115 -61 130 -53 10 6 11 13 5 23 -7 11
-10 11 -10 2 0 -19 -37 4 -45 28 -4 11 -10 18 -15 15 -4 -3 -15 6 -24 20 -9
14 -20 25 -25 25 -10 0 -46 29 -97 77 -19 18 -34 30 -34 27 0 -2 -16 10 -36
28 -20 18 -42 37 -50 41 -19 11 -48 1 -39 -13 3 -5 1 -10 -4 -10 -15 0 -14 27
0 32 9 3 8 10 -2 25 -19 32 -90 61 -73 31 3 -7 -7 2 -23 20 -16 17 -34 32 -40
32 -7 0 -21 10 -33 22 -18 20 -20 20 -20 3z m150 -105 c0 -5 -2 -10 -4 -10 -3
0 -8 5 -11 10 -3 6 -1 10 4 10 6 0 11 -4 11 -10z"/>
<path d="M14372 518 c6 -18 28 -21 28 -4 0 9 -7 16 -16 16 -9 0 -14 -5 -12
-12z"/>
<path d="M12710 490 c0 -11 7 -20 15 -20 8 0 15 -6 15 -13 0 -7 9 -18 19 -24
16 -10 22 -9 33 4 10 13 10 15 0 9 -20 -12 -40 11 -34 39 4 22 1 25 -22 25
-19 0 -26 -5 -26 -20z"/>
<path d="M12603 468 c-32 -15 -29 -26 10 -36 27 -7 34 -5 43 12 6 12 9 24 7
29 -6 10 -34 8 -60 -5z"/>
<path d="M13693 466 c-49 -23 -12 -40 43 -21 21 7 40 19 43 26 3 11 1 11 -13
0 -12 -11 -23 -12 -34 -5 -11 6 -25 6 -39 0z"/>
<path d="M13797 456 c-4 -11 -1 -13 10 -9 11 4 14 2 9 -5 -4 -7 -1 -12 9 -12
12 0 15 5 11 16 -3 9 -6 18 -6 20 0 11 -29 2 -33 -10z"/>
<path d="M12693 424 c-15 -33 -6 -52 13 -27 14 19 19 53 7 53 -5 0 -13 -12
-20 -26z"/>
<path d="M14254 435 c-10 -8 -14 -15 -8 -15 6 0 17 7 24 15 16 19 9 19 -16 0z"/>
<path d="M13386 359 c6 -11 41 -12 47 -1 3 4 -8 7 -24 8 -15 1 -26 -3 -23 -7z"/>
<path d="M13840 361 c0 -6 4 -12 8 -15 5 -3 9 1 9 9 0 8 -4 15 -9 15 -4 0 -8
-4 -8 -9z"/>
<path d="M14140 349 c0 -5 5 -7 10 -4 6 3 10 8 10 11 0 2 -4 4 -10 4 -5 0 -10
-5 -10 -11z"/>
<path d="M14373 306 c-6 -10 -16 -16 -24 -14 -8 3 -25 1 -38 -4 -18 -6 -27 -4
-37 9 -10 15 -15 16 -26 5 -11 -11 -10 -14 0 -21 11 -7 10 -10 -3 -15 -9 -3
-14 -10 -11 -15 3 -5 -23 -22 -59 -39 -35 -17 -69 -41 -76 -53 -6 -12 -21 -32
-34 -43 -26 -24 -24 -56 3 -34 8 7 17 12 18 11 8 -6 113 46 131 64 10 10 34
19 53 21 19 2 49 9 65 17 17 7 38 16 48 19 18 6 23 53 8 91 -7 18 -8 18 -18 1z"/>
<path d="M13850 290 c0 -5 7 -10 16 -10 8 0 12 5 9 10 -3 6 -10 10 -16 10 -5
0 -9 -4 -9 -10z"/>
<path d="M13560 246 c0 -8 4 -17 9 -20 5 -4 7 3 4 14 -6 23 -13 26 -13 6z"/>
<path d="M13656 185 c4 -8 8 -15 10 -15 2 0 4 7 4 15 0 8 -4 15 -10 15 -5 0
-7 -7 -4 -15z"/>
<path d="M13846 184 c-27 -27 -17 -36 14 -12 17 12 30 23 30 25 0 9 -31 1 -44
-13z"/>
<path d="M12364 158 c3 -13 6 -26 6 -30 0 -5 6 -8 14 -8 8 0 17 -8 19 -17 4
-17 5 -17 6 0 0 10 -6 20 -14 23 -8 4 -15 17 -15 30 0 13 -5 24 -11 24 -7 0
-9 -9 -5 -22z"/>
<path d="M12412 160 c7 -11 15 -20 18 -20 3 0 14 -16 24 -35 22 -41 39 -46 30
-10 -8 31 -53 85 -71 85 -11 0 -11 -4 -1 -20z"/>
<path d="M13160 166 c0 -18 16 -29 30 -21 13 8 1 35 -16 35 -8 0 -14 -6 -14
-14z"/>
<path d="M7170 150 c0 -5 4 -10 8 -10 4 0 13 -15 20 -32 12 -34 71 -112 78
-105 8 8 -47 107 -72 132 -27 27 -34 30 -34 15z"/>
<path d="M13633 132 c6 -15 22 -40 35 -56 l23 -29 -5 26 c-5 31 -32 73 -51 81
-12 4 -12 0 -2 -22z"/>
<path d="M12540 146 c0 -2 7 -9 15 -16 12 -10 15 -10 15 4 0 9 -7 16 -15 16
-8 0 -15 -2 -15 -4z"/>
<path d="M13994 105 c-30 -36 -33 -52 -9 -47 10 2 13 -3 9 -13 -4 -9 0 -15 9
-15 19 0 31 16 18 24 -5 4 -5 21 -1 43 5 21 8 39 6 40 -1 2 -16 -13 -32 -32z"/>
<path d="M7480 121 c0 -4 3 -11 7 -15 4 -4 8 -17 8 -29 0 -33 49 -31 53 1 3
20 0 23 -17 17 -15 -4 -21 -2 -21 8 0 8 -7 17 -15 21 -8 3 -15 2 -15 -3z"/>
<path d="M7550 117 c0 -7 13 -28 30 -47 16 -19 29 -43 30 -52 0 -13 8 -18 26
-18 14 0 23 4 19 10 -4 6 -11 8 -16 5 -5 -4 -9 1 -9 9 0 8 8 17 18 19 10 3 6
5 -10 6 -19 1 -28 6 -28 18 0 9 -3 13 -7 10 -4 -4 -12 6 -19 23 -13 30 -34 41
-34 17z"/>
<path d="M11070 126 c0 -2 9 -6 20 -9 11 -3 18 -1 14 4 -5 9 -34 13 -34 5z"/>
<path d="M13245 120 c3 -5 11 -10 16 -10 6 0 7 5 4 10 -3 6 -11 10 -16 10 -6
0 -7 -4 -4 -10z"/>
<path d="M7338 95 c2 -14 9 -22 14 -19 5 3 4 -3 -4 -15 -24 -39 -1 -56 81 -59
72 -3 97 11 42 23 -17 3 -51 26 -76 51 -53 50 -64 54 -57 19z"/>
<path d="M13156 95 c-24 -36 -21 -46 10 -35 14 6 29 8 32 6 4 -2 18 1 31 8 14
8 19 16 13 20 -6 3 -18 -2 -28 -11 -17 -17 -18 -17 -11 1 5 12 3 23 -5 28 -20
12 -24 10 -42 -17z"/>
<path d="M11160 100 c0 -5 5 -10 11 -10 5 0 7 5 4 10 -3 6 -8 10 -11 10 -2 0
-4 -4 -4 -10z"/>
<path d="M11216 80 c5 -5 25 -12 44 -15 l35 -6 -34 15 c-38 18 -60 21 -45 6z"/>
<path d="M12988 85 c-8 -9 3 -45 13 -45 5 0 9 6 9 13 0 17 -15 39 -22 32z"/>
<path d="M13260 71 c0 -5 -10 -12 -22 -16 -14 -4 -18 -8 -10 -12 6 -2 12 -11
12 -19 0 -14 29 -20 31 -6 0 4 2 19 4 35 2 15 -1 27 -6 27 -5 0 -9 -4 -9 -9z"/>
<path d="M7676 41 c-4 -5 -2 -12 3 -15 5 -4 12 -2 15 3 4 5 2 12 -3 15 -5 4
-12 2 -15 -3z"/>
<path d="M11672 36 c7 -7 19 -11 25 -9 18 7 5 23 -18 23 -16 0 -18 -2 -7 -14z"/>
<path d="M12430 25 c0 -8 5 -15 10 -15 6 0 10 7 10 15 0 8 -4 15 -10 15 -5 0
-10 -7 -10 -15z"/>
<path d="M14255 30 c-3 -5 1 -10 9 -10 9 0 16 5 16 10 0 6 -4 10 -9 10 -6 0
-13 -4 -16 -10z"/>
<path d="M13700 16 c0 -9 5 -16 10 -16 6 0 10 4 10 9 0 6 -4 13 -10 16 -5 3
-10 -1 -10 -9z"/>
<path d="M13808 23 c7 -3 16 -2 19 1 4 3 -2 6 -13 5 -11 0 -14 -3 -6 -6z"/>
</g>
</svg>
