<?xml version="1.0" standalone="no"?>
<!DOCTYPE svg PUBLIC "-//W3C//DTD SVG 20010904//EN"
 "http://www.w3.org/TR/2001/REC-SVG-20010904/DTD/svg10.dtd">
<svg version="1.0" xmlns="http://www.w3.org/2000/svg"
 width="375.000000pt" height="200.000000pt" viewBox="0 0 375.000000 200.000000"
 preserveAspectRatio="xMidYMid meet">

<g transform="translate(0.000000,200.000000) scale(0.100000,-0.100000)"
fill="#000000" stroke="none">
<path d="M400 1992 c0 -5 7 -13 16 -16 10 -4 14 -1 12 6 -5 15 -28 23 -28 10z"/>
<path d="M440 1992 c0 -15 24 -32 47 -32 13 0 23 5 23 10 0 6 -9 10 -19 10
-11 0 -23 5 -26 10 -7 12 -25 13 -25 2z"/>
<path d="M0 1950 c0 -11 4 -20 10 -20 5 0 14 9 20 20 9 17 8 20 -10 20 -13 0
-20 -7 -20 -20z"/>
<path d="M480 1935 c0 -8 7 -15 16 -15 14 0 14 3 4 15 -7 8 -14 15 -16 15 -2
0 -4 -7 -4 -15z"/>
<path d="M1927 1719 c-3 -12 3 -41 15 -66 l20 -43 -23 -35 c-30 -43 -39 -44
-40 -2 0 17 -3 26 -6 20 -2 -7 -11 -13 -18 -13 -17 0 -27 -30 -24 -73 2 -32
-4 -56 -22 -89 -15 -29 -10 -48 11 -48 25 0 37 25 21 44 -9 11 -6 12 13 9 22
-5 24 -8 15 -30 -12 -32 -12 -33 8 -26 17 7 16 -21 -3 -174 -3 -26 -1 -43 5
-43 19 0 32 40 31 98 -2 233 -2 236 29 302 17 35 33 84 37 108 6 40 4 47 -17
63 -32 24 -45 24 -52 -2z"/>
<path d="M1701 1651 c-1 -24 2 -32 9 -25 7 7 7 19 1 35 -9 23 -10 22 -10 -10z"/>
<path d="M1840 1660 c0 -14 -3 -35 -6 -47 -5 -18 -3 -21 15 -16 12 3 21 6 21
7 0 0 -7 19 -15 41 -11 32 -14 35 -15 15z"/>
<path d="M1881 1664 c0 -11 3 -14 6 -6 3 7 2 16 -1 19 -3 4 -6 -2 -5 -13z"/>
<path d="M2087 1672 c-12 -19 -18 -92 -8 -92 16 0 13 -26 -4 -40 -8 -7 -15
-16 -15 -20 0 -13 39 -19 44 -6 3 8 5 8 5 -1 1 -6 -3 -15 -9 -18 -5 -3 -10
-17 -10 -31 0 -13 -4 -24 -9 -24 -5 0 -7 -9 -4 -21 4 -14 8 -17 13 -9 4 7 6
-21 4 -61 l-4 -74 30 65 c50 104 56 115 69 112 7 -1 19 3 27 9 11 9 14 6 14
-20 0 -24 -4 -31 -19 -31 -16 0 -21 -10 -28 -47 -4 -27 -7 -55 -6 -63 1 -8 -3
-18 -9 -21 -6 -4 -12 -20 -14 -36 -5 -47 -21 -104 -36 -121 -8 -9 -15 -33 -17
-52 -1 -19 -6 -39 -11 -44 -4 -4 -6 -15 -3 -22 3 -8 1 -14 -5 -14 -19 0 -36
33 -33 66 3 37 -18 94 -34 94 -15 0 -35 -37 -29 -54 11 -28 -15 -26 -68 6 -38
23 -53 38 -50 51 4 19 -14 24 -20 6 -3 -9 -9 -9 -25 0 -18 9 -24 8 -31 -6 -9
-15 -12 -15 -33 -1 -18 12 -24 25 -26 64 -1 27 -4 70 -6 97 -2 26 0 47 5 47 4
0 9 -8 9 -17 1 -10 10 23 20 72 20 97 17 176 -7 196 -8 6 -14 10 -15 8 -6 -30
-4 -87 3 -96 7 -8 3 -16 -11 -25 -25 -15 -27 -28 -6 -28 19 0 19 -5 0 -34 -20
-30 -37 -89 -24 -81 5 4 9 -3 9 -15 0 -12 -4 -18 -10 -15 -5 3 -10 0 -10 -9 0
-8 5 -16 11 -18 6 -2 12 -29 12 -61 2 -54 -4 -69 -18 -47 -3 6 -14 10 -23 10
-10 0 -23 9 -30 20 -7 11 -21 20 -31 20 -24 0 -36 16 -19 23 7 3 3 6 -9 6 -12
1 -24 7 -26 14 -4 7 -6 6 -6 -5 -1 -9 5 -19 12 -21 9 -4 9 -8 0 -14 -16 -12
-27 -79 -14 -87 7 -4 11 1 11 13 0 12 5 21 10 21 6 0 10 -11 10 -24 0 -14 5
-28 10 -31 11 -7 3 -104 -10 -118 -4 -5 -11 17 -14 47 -4 31 -12 56 -17 56 -5
0 -14 12 -19 28 -6 15 -15 36 -20 47 -53 116 -70 157 -70 175 0 14 -7 20 -24
20 -19 0 -23 4 -19 19 3 10 0 22 -6 26 -12 7 -16 -2 -25 -51 -4 -29 -3 -30 23
-26 22 3 29 -1 34 -17 6 -25 -8 -28 -22 -4 -16 29 -24 7 -25 -69 -1 -46 3 -79
11 -89 7 -8 14 -39 17 -68 2 -30 10 -57 16 -61 9 -5 11 -19 7 -39 -4 -20 -3
-30 3 -26 14 9 10 126 -6 157 -17 34 -19 122 -2 112 8 -5 9 2 5 25 -9 45 6 31
36 -32 34 -73 45 -142 22 -150 -12 -5 -13 -11 -7 -24 19 -36 24 -112 9 -127
-20 -21 -50 -24 -65 -6 -10 12 -11 10 -5 -15 6 -28 5 -29 -10 -13 -9 9 -17 20
-17 23 0 4 -6 21 -14 38 -8 18 -21 74 -29 125 -12 71 -21 100 -39 119 -22 23
-23 32 -23 163 0 76 -4 132 -8 124 -4 -8 -26 -23 -47 -34 -40 -21 -80 -57 -80
-73 0 -5 7 -7 15 -3 17 6 21 -9 5 -19 -6 -4 -7 -12 -4 -18 4 -7 -5 -1 -19 12
l-27 24 0 -31 c0 -17 -5 -34 -10 -37 -13 -8 -13 -25 -1 -25 5 0 13 15 17 33
l7 32 8 -30 c5 -17 5 -31 0 -33 -5 -2 -7 -22 -4 -45 3 -23 2 -39 -2 -34 -5 4
-16 0 -26 -9 -14 -12 -22 -13 -38 -4 -12 6 -21 16 -21 23 0 7 -5 4 -11 -7 -9
-14 -8 -20 1 -26 14 -9 6 -80 -9 -80 -4 0 -6 -22 -3 -49 2 -30 0 -51 -7 -55
-6 -4 -11 -18 -11 -32 0 -13 -5 -24 -10 -24 -6 0 -16 -11 -22 -25 -14 -31 -26
-32 -37 -2 -15 40 -17 102 -3 100 6 -2 12 5 12 14 0 13 -3 14 -12 5 -20 -20
-28 -14 -28 23 0 19 4 35 9 35 5 0 7 -9 4 -20 -7 -26 12 -26 31 1 9 14 12 29
7 42 -11 29 -31 33 -38 8 -3 -12 -9 -21 -14 -21 -17 0 -19 21 -3 45 9 14 17
36 18 48 1 12 9 23 18 25 14 3 16 -3 13 -33 l-5 -37 25 23 c28 28 34 76 9 86
-9 3 -19 1 -23 -5 -3 -6 -19 -15 -34 -21 -15 -6 -32 -22 -37 -36 -5 -14 -12
-25 -15 -25 -4 0 -3 5 1 11 3 6 2 14 -5 18 -6 4 -15 31 -21 60 -6 35 -20 65
-40 87 -16 19 -30 42 -30 51 0 18 -17 75 -32 108 -12 26 -64 57 -108 62 -99
14 -261 3 -268 -18 -2 -5 -13 -9 -24 -9 -30 0 -88 -30 -88 -46 0 -8 -6 -14
-14 -14 -7 0 -19 -7 -26 -16 -12 -13 -16 -12 -36 13 -13 15 -23 34 -24 41 0
17 -25 15 -65 -7 -35 -18 -75 -18 -75 0 0 5 -4 9 -10 9 -7 0 -10 -263 -10
-770 l0 -770 1875 0 1875 0 0 427 c-1 236 -4 423 -8 416 -11 -17 -34 1 -26 20
3 9 12 17 20 17 8 0 14 10 14 24 0 49 -34 37 -42 -13 -3 -21 -11 -26 -61 -36
-57 -11 -59 -11 -67 11 -5 12 -12 23 -17 25 -14 7 -43 66 -43 88 0 12 -4 29
-9 39 -6 9 -13 38 -16 65 -3 26 -10 47 -14 47 -5 0 -14 15 -22 33 -7 17 -28
50 -46 71 -18 21 -30 42 -28 47 9 14 -27 77 -51 88 -13 6 -24 16 -24 22 0 6
-6 9 -14 6 -8 -3 -22 1 -33 8 -10 8 -35 15 -56 15 -27 0 -40 5 -44 18 -10 27
-54 64 -69 58 -38 -14 -38 -86 -2 -139 16 -22 19 -37 13 -76 -6 -42 -11 -51
-36 -61 -16 -7 -29 -19 -29 -26 0 -8 -9 -19 -20 -26 -23 -15 -27 -33 -6 -25 8
3 17 -1 20 -9 3 -8 15 -14 26 -14 11 0 20 -4 20 -10 0 -5 -4 -10 -9 -10 -6 0
-18 -13 -28 -30 -20 -35 -33 -39 -33 -10 0 11 -4 20 -10 20 -5 0 -10 11 -10
25 0 14 -4 25 -10 25 -5 0 -10 19 -10 41 0 34 -2 39 -14 30 -7 -6 -20 -9 -28
-6 -11 5 -14 -1 -13 -25 2 -38 -13 -50 -32 -25 -12 17 -13 17 -13 2 0 -9 -4
-17 -10 -17 -5 0 -10 -7 -10 -16 0 -9 -14 -37 -31 -62 -22 -33 -27 -47 -18
-53 7 -4 18 -5 24 -3 7 3 22 -11 33 -30 12 -20 26 -36 31 -36 8 0 31 -52 31
-70 0 -4 -8 -10 -19 -13 -15 -4 -19 -16 -21 -68 -6 -148 -5 -284 2 -290 5 -3
-1 -15 -12 -27 -11 -11 -20 -31 -20 -44 0 -18 2 -20 9 -9 11 17 40 24 42 10 1
-5 2 -13 3 -18 0 -5 4 -13 9 -17 18 -18 5 -44 -30 -59 -48 -20 -65 -13 -91 38
-12 24 -31 52 -42 62 -11 10 -20 24 -20 31 0 7 -5 14 -11 16 -6 2 -12 23 -13
46 0 27 -5 42 -13 42 -7 0 -13 6 -13 14 0 8 -8 21 -18 28 -27 20 -48 93 -32
113 9 11 9 15 1 15 -28 0 -56 130 -31 145 20 12 10 27 -14 21 -21 -5 -27 0
-46 36 -16 31 -21 53 -17 83 3 22 0 76 -7 120 -8 44 -11 86 -9 93 3 7 -6 28
-21 46 -14 19 -50 72 -80 118 -68 104 -156 207 -177 208 -9 0 -28 9 -43 21
-18 14 -26 16 -26 7 -1 -9 -4 -8 -10 3 -12 21 -58 51 -63 41z m53 -94 c0 -10
-4 -18 -10 -18 -5 0 -10 15 -10 33 0 24 3 28 10 17 5 -8 10 -23 10 -32z m-960
-259 c0 -5 -4 -9 -10 -9 -5 0 -10 7 -10 16 0 8 5 12 10 9 6 -3 10 -10 10 -16z
m34 -59 c9 -22 16 -47 16 -56 0 -8 5 -12 11 -8 6 3 8 17 4 33 -9 36 9 15 24
-28 6 -18 8 -38 4 -44 -4 -6 -6 -28 -4 -48 1 -33 -1 -37 -19 -32 -11 3 -28 -1
-37 -8 -15 -13 -16 -10 -10 34 6 43 4 50 -12 54 -13 3 -22 21 -31 63 -13 63
-9 80 20 80 12 0 23 -14 34 -40z m2186 -32 c0 -6 -7 -5 -15 2 -8 7 -15 17 -15
22 0 6 7 5 15 -2 8 -7 15 -17 15 -22z m-2220 -100 c0 6 5 12 11 12 7 0 8 -7 4
-17 -4 -10 -7 -22 -6 -28 1 -5 3 -32 5 -60 2 -27 5 -54 5 -59 1 -6 6 -5 13 2
17 17 41 15 35 -2 -3 -8 -1 -17 6 -20 7 -3 -10 -4 -38 -3 l-50 2 -1 93 c-1 54
2 88 7 80 7 -10 9 -10 9 0z m355 -65 c-5 -10 -7 -25 -6 -33 1 -11 -1 -11 -9 2
-7 11 -8 33 -4 55 7 35 8 36 17 16 5 -12 6 -30 2 -40z m495 28 c0 -6 -4 -13
-10 -16 -5 -3 -10 1 -10 9 0 9 5 16 10 16 6 0 10 -4 10 -9z m-386 -63 c3 -14
0 -29 -9 -37 -12 -12 -11 -20 7 -54 l20 -41 -22 -18 c-18 -15 -25 -16 -31 -6
-4 7 -3 18 2 25 7 8 7 23 -2 48 -11 28 -11 40 -1 55 7 11 12 27 12 35 0 23 17
18 24 -7z m-418 -15 c-10 -10 -19 5 -10 18 6 11 8 11 12 0 2 -7 1 -15 -2 -18z
m98 -22 c5 -35 12 -51 24 -54 16 -4 16 -5 0 -6 -30 -2 -56 33 -53 70 5 42 3
39 14 39 5 0 11 -22 15 -49z m203 -23 c-3 -7 -5 -2 -5 12 0 14 2 19 5 13 2 -7
2 -19 0 -25z m708 -34 c0 -40 -3 -54 -13 -52 -16 4 -15 0 -6 66 8 66 18 59 19
-14z m-1105 32 c0 -2 -7 -7 -16 -10 -8 -3 -12 -2 -9 4 6 10 25 14 25 6z m420
-49 c0 -5 -4 -5 -10 -2 -5 3 -10 14 -10 23 0 15 2 15 10 2 5 -8 10 -19 10 -23z
m701 -80 c-13 -13 -26 -3 -16 12 3 6 11 8 17 5 6 -4 6 -10 -1 -17z m-501 -17
c0 -5 -9 -10 -21 -10 -11 0 -17 5 -14 10 3 6 13 10 21 10 8 0 14 -4 14 -10z"/>
<path d="M1174 1238 c-9 -13 7 -69 17 -62 5 3 7 10 4 15 -10 16 6 33 17 18 7
-11 8 -9 4 4 -3 10 -6 22 -6 26 0 11 -30 10 -36 -1z"/>
<path d="M1218 1135 c-3 -23 0 -35 8 -35 18 0 25 29 14 51 -15 26 -17 24 -22
-16z"/>
<path d="M1648 1653 c-9 -34 4 -45 18 -18 17 34 17 35 0 35 -7 0 -16 -8 -18
-17z"/>
<path d="M1656 1541 c-4 -7 -5 -15 -2 -18 9 -9 19 4 14 18 -4 11 -6 11 -12 0z"/>
<path d="M915 1450 c-3 -5 3 -10 14 -10 11 0 23 5 26 10 3 6 -3 10 -14 10 -11
0 -23 -4 -26 -10z"/>
<path d="M990 1425 c-1 -5 -2 -14 -1 -18 2 -14 -27 -38 -31 -26 -9 27 -38 -24
-38 -66 0 -62 17 -65 25 -4 4 31 10 47 15 39 6 -9 13 -7 28 8 16 16 19 26 12
49 -4 15 -9 24 -10 18z"/>
<path d="M1074 1396 c-8 -34 2 -45 23 -23 16 16 16 18 1 34 -16 15 -17 14 -24
-11z"/>
<path d="M1570 1409 c0 -5 5 -7 10 -4 6 3 10 8 10 11 0 2 -4 4 -10 4 -5 0 -10
-5 -10 -11z"/>
<path d="M1980 1400 c0 -5 5 -10 10 -10 6 0 10 5 10 10 0 6 -4 10 -10 10 -5 0
-10 -4 -10 -10z"/>
<path d="M1031 1364 c0 -11 3 -14 6 -6 3 7 2 16 -1 19 -3 4 -6 -2 -5 -13z"/>
<path d="M1560 1320 c0 -5 5 -10 11 -10 5 0 7 5 4 10 -3 6 -8 10 -11 10 -2 0
-4 -4 -4 -10z"/>
<path d="M901 1304 c0 -11 3 -14 6 -6 3 7 2 16 -1 19 -3 4 -6 -2 -5 -13z"/>
<path d="M1871 1294 c0 -11 3 -14 6 -6 3 7 2 16 -1 19 -3 4 -6 -2 -5 -13z"/>
<path d="M1575 1290 c-3 -5 -1 -10 4 -10 6 0 11 5 11 10 0 6 -2 10 -4 10 -3 0
-8 -4 -11 -10z"/>
<path d="M1015 1280 c3 -5 8 -10 11 -10 2 0 4 5 4 10 0 6 -5 10 -11 10 -5 0
-7 -4 -4 -10z"/>
<path d="M2697 1168 c-4 -12 -4 -24 -2 -26 8 -8 36 28 30 38 -10 16 -22 11
-28 -12z"/>
<path d="M2763 1113 c-10 -21 -10 -24 3 -19 9 3 18 6 20 6 2 0 4 6 4 14 0 26
-15 25 -27 -1z"/>
<path d="M995 1100 c3 -5 8 -10 11 -10 2 0 4 5 4 10 0 6 -5 10 -11 10 -5 0 -7
-4 -4 -10z"/>
<path d="M3588 1083 c7 -3 16 -2 19 1 4 3 -2 6 -13 5 -11 0 -14 -3 -6 -6z"/>
<path d="M967 1060 c8 -30 21 -34 15 -5 -2 14 -8 25 -12 25 -5 0 -6 -9 -3 -20z"/>
<path d="M1450 1016 c0 -8 7 -16 15 -20 10 -4 15 1 15 14 0 11 -7 20 -15 20
-8 0 -15 -6 -15 -14z"/>
<path d="M2608 976 c-3 -14 -2 -26 2 -26 13 0 21 33 12 42 -6 6 -11 -1 -14
-16z"/>
<path d="M1470 970 c0 -5 5 -10 10 -10 6 0 10 5 10 10 0 6 -4 10 -10 10 -5 0
-10 -4 -10 -10z"/>
<path d="M2750 970 c-13 -8 -12 -10 3 -10 9 0 17 5 17 10 0 12 -1 12 -20 0z"/>
<path d="M2808 945 c-1 -22 -1 -55 0 -73 1 -19 -3 -30 -8 -27 -6 3 -10 18 -10
31 0 14 -5 24 -11 22 -6 -2 -10 -7 -10 -11 1 -4 1 -22 1 -41 0 -33 16 -43 36
-23 4 4 11 7 16 7 10 0 7 -32 -5 -41 -4 -3 -1 -21 7 -39 11 -28 14 -30 19 -14
11 38 0 190 -16 220 l-16 29 -3 -40z"/>
<path d="M2730 834 c0 -8 5 -12 10 -9 6 3 10 10 10 16 0 5 -4 9 -10 9 -5 0
-10 -7 -10 -16z"/>
<path d="M2776 678 c-5 -29 -10 -38 -15 -29 -5 7 -14 10 -20 6 -12 -7 -12
-175 0 -175 4 0 10 -10 14 -22 7 -22 7 -22 12 -3 2 11 11 35 20 54 22 48 32
138 20 178 -14 44 -23 42 -31 -9z"/>
<path d="M2840 494 c0 -8 5 -12 10 -9 6 4 8 11 5 16 -9 14 -15 11 -15 -7z"/>
<path d="M2810 469 c0 -5 5 -7 10 -4 6 3 10 8 10 11 0 2 -4 4 -10 4 -5 0 -10
-5 -10 -11z"/>
<path d="M2820 408 c0 -40 10 -78 20 -78 6 0 7 27 1 93 -2 31 -21 18 -21 -15z"/>
</g>
</svg>
