<?xml version="1.0" standalone="no"?>
<!DOCTYPE svg PUBLIC "-//W3C//DTD SVG 20010904//EN"
 "http://www.w3.org/TR/2001/REC-SVG-20010904/DTD/svg10.dtd">
<svg version="1.0" xmlns="http://www.w3.org/2000/svg"
 width="882.000000pt" height="1368.000000pt" viewBox="0 0 882.000000 1368.000000"
 preserveAspectRatio="xMidYMid meet">

<g transform="translate(0.000000,1368.000000) scale(0.100000,-0.100000)"
fill="#000000" stroke="none">
<path d="M875 13670 c3 -5 10 -10 16 -10 5 0 9 5 9 10 0 6 -7 10 -16 10 -8 0
-12 -4 -9 -10z"/>
<path d="M918 13668 c7 -7 47 -30 90 -53 42 -22 75 -44 72 -50 -3 -5 -7 -9
-10 -8 -3 1 -13 5 -22 8 -13 5 -18 2 -18 -10 0 -12 8 -16 28 -14 15 1 35 -1
44 -5 9 -4 27 -6 40 -4 20 3 24 10 29 63 4 32 5 65 2 72 -4 10 -38 13 -136 13
-103 0 -128 -3 -119 -12z m132 -33 c0 -17 -2 -18 -24 -9 -23 9 -20 24 4 24 11
0 20 -7 20 -15z m42 -27 c-6 -6 -16 -7 -22 -3 -9 6 -9 9 1 16 17 10 34 0 21
-13z"/>
<path d="M738 13663 c7 -3 16 -2 19 1 4 3 -2 6 -13 5 -11 0 -14 -3 -6 -6z"/>
<path d="M0 13595 c0 -52 1 -55 25 -55 20 0 25 5 25 25 0 14 5 25 10 25 6 0
10 4 10 10 0 17 -34 50 -52 50 -15 0 -18 -9 -18 -55z"/>
<path d="M4536 13050 c-17 -50 -16 -52 10 -113 15 -34 34 -70 42 -79 11 -13
13 -31 9 -69 -5 -43 -13 -58 -42 -84 -19 -18 -35 -40 -35 -48 0 -9 -5 -19 -10
-22 -20 -12 -40 17 -40 59 0 57 -11 72 -35 46 -10 -11 -26 -20 -35 -20 -18 0
-34 -26 -46 -75 -11 -46 -13 -154 -3 -161 14 -8 11 -40 -6 -54 -8 -7 -15 -24
-15 -39 0 -17 -10 -35 -31 -52 -23 -18 -29 -30 -23 -40 4 -8 7 -26 6 -40 -3
-23 1 -27 30 -32 60 -9 108 48 79 95 -9 14 -8 18 3 18 8 0 20 2 28 5 7 3 19 1
26 -4 11 -6 9 -20 -8 -71 -23 -69 -21 -83 10 -55 35 31 42 8 36 -106 -9 -160
-12 -192 -23 -224 -6 -18 -7 -40 -1 -54 5 -16 5 -28 -2 -35 -15 -15 -12 -82 4
-95 11 -9 18 -6 35 15 12 15 21 32 21 39 0 6 6 25 14 41 8 16 18 78 22 140 6
104 5 114 -16 152 -22 39 -22 41 -11 223 11 190 18 222 62 299 43 76 69 130
69 146 0 8 9 40 19 72 10 31 22 87 26 123 6 65 6 66 -25 93 -17 14 -37 26 -45
26 -7 0 -18 7 -25 15 -7 8 -23 15 -35 15 -18 0 -26 -10 -39 -50z"/>
<path d="M0 12898 l0 -72 31 30 c49 47 54 62 28 90 -12 13 -31 24 -41 24 -16
0 -18 -9 -18 -72z"/>
<path d="M4325 12888 c-4 -42 -14 -80 -22 -90 -13 -15 -14 -20 -3 -33 8 -9 20
-13 29 -9 9 4 27 7 40 8 40 2 47 27 18 69 -13 20 -28 57 -31 82 -4 25 -11 45
-16 45 -4 0 -11 -33 -15 -72z"/>
<path d="M4420 12936 c0 -14 5 -28 10 -31 6 -4 10 7 10 24 0 17 -4 31 -10 31
-5 0 -10 -11 -10 -24z"/>
<path d="M4000 12893 c0 -49 3 -63 15 -63 25 0 28 45 6 86 l-20 39 -1 -62z"/>
<path d="M4918 12939 c-10 -6 -18 -22 -18 -37 0 -15 -7 -49 -15 -77 -19 -60
-14 -87 20 -109 33 -22 32 -31 -11 -83 -41 -50 -41 -77 -1 -81 31 -4 46 -27
28 -45 -6 -6 -11 -32 -11 -57 0 -25 -5 -51 -11 -57 -11 -11 2 -77 22 -115 5
-10 6 -72 2 -138 -3 -70 -2 -120 3 -120 13 0 56 75 83 145 13 33 33 85 46 115
13 30 26 66 30 79 13 45 44 70 79 64 23 -4 36 0 50 16 11 12 23 21 28 21 4 0
8 -29 8 -64 0 -71 -17 -99 -45 -76 -18 15 -45 -2 -45 -30 0 -9 -9 -52 -20 -95
-11 -43 -20 -102 -20 -131 0 -43 -3 -54 -19 -59 -19 -6 -39 -74 -27 -93 2 -4
0 -26 -5 -48 -6 -21 -15 -59 -20 -84 -12 -59 -44 -119 -81 -153 -16 -15 -28
-35 -26 -45 3 -16 37 -17 502 -20 l498 -2 -7 62 c-4 35 -13 99 -21 143 -7 44
-11 97 -7 117 7 44 -26 103 -119 213 -32 39 -69 89 -81 112 -55 102 -67 121
-79 126 -8 2 -26 31 -42 63 -43 88 -82 140 -171 230 -44 45 -89 93 -100 108
-14 19 -35 31 -70 38 -31 7 -65 23 -89 44 -42 36 -56 40 -73 23 -7 -7 -16 0
-31 25 -13 22 -32 38 -49 42 -15 4 -37 15 -48 25 -15 13 -25 15 -37 8z m112
-216 c0 -36 -3 -43 -20 -43 -17 0 -20 7 -20 49 0 27 3 57 7 66 10 28 32 -21
33 -72z m-73 -175 c-3 -8 -6 -5 -6 6 -1 11 2 17 5 13 3 -3 4 -12 1 -19z"/>
<path d="M3877 12933 c-9 -16 -17 -100 -11 -116 7 -20 43 -23 45 -4 1 6 0 21
0 33 -1 11 5 27 13 34 21 16 20 46 0 54 -21 8 -42 8 -47 -1z"/>
<path d="M4080 12804 c-11 -12 -11 -20 -3 -34 11 -17 3 -126 -11 -148 -3 -6 3
-21 14 -35 l20 -26 -40 -32 c-22 -18 -40 -38 -40 -45 0 -14 30 -27 50 -22 25
6 20 -21 -9 -55 -20 -22 -31 -45 -31 -64 0 -17 -8 -41 -19 -54 -20 -26 -45
-177 -34 -206 4 -10 14 -26 24 -36 12 -14 17 -45 22 -135 2 -64 3 -119 1 -121
-3 -3 -25 5 -50 17 -25 12 -50 20 -55 17 -14 -9 -49 4 -49 18 0 7 -14 27 -30
45 -23 24 -38 32 -65 32 -41 0 -59 25 -32 45 10 7 17 18 17 25 0 11 -15 11
-59 -1 -7 -2 -15 1 -18 8 -2 6 6 13 19 15 31 4 35 43 8 86 -21 35 -52 40 -58
11 -2 -11 7 -18 28 -22 16 -4 30 -13 30 -20 0 -19 -32 -47 -53 -47 -28 0 -21
-39 9 -50 27 -11 25 -25 -8 -48 -12 -9 -18 -26 -18 -51 0 -20 -5 -42 -11 -48
-5 -5 -9 -32 -7 -59 2 -37 7 -50 21 -52 13 -3 17 4 17 30 0 18 4 38 8 45 17
27 52 -27 52 -81 0 -22 6 -38 16 -44 12 -7 15 -20 13 -56 l-4 -46 410 1 c225
0 403 3 395 6 -8 3 -31 18 -50 33 -19 15 -52 35 -73 43 -35 15 -37 19 -35 52
3 47 -21 65 -40 30 l-12 -25 -44 22 c-45 22 -73 20 -81 -7 -3 -8 -7 -21 -9
-29 -8 -24 -46 -6 -99 45 -41 40 -48 51 -38 63 9 10 11 48 7 133 -9 191 -12
237 -17 252 -2 8 4 17 14 19 13 3 17 -3 17 -28 0 -42 17 -30 23 17 6 43 32
182 48 258 31 141 14 284 -41 345 -24 27 -29 29 -40 14z m-60 -638 c0 -13 -3
-32 -6 -41 -5 -13 -8 -14 -15 -3 -15 22 -11 68 6 68 9 0 15 -9 15 -24z"/>
<path d="M1230 12774 c-14 -3 -36 -7 -49 -10 l-24 -5 31 -32 c44 -46 62 -96
62 -174 -1 -141 -78 -223 -209 -223 -90 1 -162 55 -191 143 -17 55 -9 154 17
204 13 24 18 45 13 48 -13 8 -46 -11 -54 -30 -4 -11 -20 -15 -55 -15 -27 0
-53 -4 -56 -10 -3 -5 -14 -10 -24 -10 -10 0 -32 -13 -49 -30 -18 -16 -36 -30
-42 -30 -6 0 -10 -49 -10 -130 l0 -130 -45 0 -44 0 -3 93 -3 92 -24 -27 c-13
-15 -28 -25 -32 -22 -14 8 -99 139 -99 152 0 39 -92 30 -141 -15 -14 -13 -37
-23 -51 -23 -15 0 -30 -4 -33 -10 -10 -16 -47 -12 -82 10 l-33 20 0 -1525 0
-1525 180 0 180 0 0 155 c0 173 8 203 60 230 26 13 370 15 3060 15 2013 0
3030 3 3030 10 0 6 -8 10 -18 10 -26 0 -65 56 -58 84 4 18 0 26 -19 34 -17 8
-25 20 -25 37 0 14 -8 37 -17 51 -15 24 -15 27 1 55 22 37 15 59 -19 59 -20 0
-25 5 -25 26 0 24 -20 48 -84 101 -19 16 -26 31 -26 57 l0 36 -2885 0 c-3173
0 -2926 -5 -2960 60 -23 44 -23 876 0 920 32 63 -8 60 911 60 826 0 836 0 831
20 -6 23 13 42 32 31 8 -5 11 -17 6 -30 -6 -19 -3 -21 38 -21 42 0 44 1 57 39
11 36 11 44 -8 82 -19 37 -19 45 -7 68 18 36 53 71 69 71 15 0 36 71 36 123 0
20 -7 41 -18 50 -23 21 -81 22 -88 2 -10 -25 -31 -17 -37 14 -3 16 -2 44 3 62
4 19 11 52 15 74 5 32 9 36 16 22 15 -26 34 -21 64 19 17 23 32 33 42 30 13
-5 14 2 9 51 -9 71 -15 93 -26 93 -15 0 -24 -23 -21 -52 2 -19 -3 -28 -18 -33
-12 -3 -21 -13 -21 -21 0 -16 -16 -19 -25 -4 -19 30 -95 -28 -95 -73 0 -9 -6
-20 -13 -24 -20 -12 -43 -101 -30 -114 8 -8 13 -7 17 0 15 23 28 11 22 -19 -4
-22 -1 -32 9 -36 24 -10 17 -31 -15 -44 -16 -7 -39 -27 -50 -45 -16 -25 -25
-31 -44 -28 -29 6 -44 40 -57 133 -20 137 -21 141 -49 162 -16 11 -31 31 -34
43 -3 12 -16 26 -29 32 -27 12 -73 122 -63 148 3 8 0 26 -6 40 l-11 25 -35
-40 c-49 -58 -85 -70 -213 -70 l-109 0 0 200 0 199 -28 15 c-30 16 -131 27
-172 20z m996 -918 c-3 -33 -5 -76 -5 -94 -1 -18 -5 -31 -9 -28 -5 3 -23 -4
-40 -14 -25 -15 -32 -27 -32 -50 0 -32 -16 -38 -51 -20 -24 14 -24 32 1 55 11
10 22 27 26 39 4 11 15 33 26 49 14 19 18 36 13 57 -5 23 -1 35 19 55 40 40
57 25 52 -49z m-189 -58 c-3 -8 -6 -5 -6 6 -1 11 2 17 5 13 3 -3 4 -12 1 -19z"/>
<path d="M3900 12760 c0 -5 5 -10 10 -10 6 0 10 5 10 10 0 6 -4 10 -10 10 -5
0 -10 -4 -10 -10z"/>
<path d="M985 12678 c-124 -97 -22 -324 114 -253 81 41 82 211 2 258 -39 23
-83 21 -116 -5z"/>
<path d="M1520 12549 l0 -142 56 7 c84 10 110 33 128 116 9 43 -11 103 -44
133 -25 22 -39 27 -85 27 l-55 0 0 -141z"/>
<path d="M3887 12621 c-18 -30 -14 -41 15 -41 14 0 18 8 18 35 0 42 -10 44
-33 6z"/>
<path d="M2970 12528 c-19 -23 -55 -49 -80 -60 -61 -26 -150 -88 -150 -105 0
-7 -11 -19 -25 -25 -36 -16 -43 -48 -15 -70 13 -10 20 -24 16 -33 -8 -21 -26
-19 -52 6 -14 13 -29 19 -40 15 -14 -5 -16 -15 -10 -64 6 -56 6 -57 -24 -74
-34 -20 -39 -43 -11 -58 28 -14 31 -13 31 13 0 13 5 28 11 34 6 6 14 26 18 44
10 48 31 49 31 2 0 -22 5 -44 11 -50 9 -9 4 -18 -16 -37 -27 -25 -27 -27 -10
-46 15 -16 16 -26 7 -60 -5 -22 -8 -49 -5 -60 4 -15 1 -18 -16 -13 -12 3 -21
1 -21 -5 0 -6 -13 -20 -28 -30 -27 -20 -29 -20 -82 -2 -31 11 -56 25 -58 34
-5 25 -18 19 -32 -15 -12 -27 -11 -33 2 -40 40 -22 22 -180 -22 -194 -10 -3
-21 -12 -24 -20 -3 -8 -17 -15 -31 -15 -28 0 -32 -12 -11 -29 11 -10 16 -9 23
4 9 15 11 15 22 1 11 -13 41 -16 176 -16 173 0 175 1 175 50 0 10 7 20 15 24
8 3 15 12 15 20 0 23 17 28 34 10 15 -14 14 -18 -4 -41 -11 -14 -20 -35 -20
-46 0 -18 5 -19 50 -14 61 7 90 22 90 46 0 11 6 21 14 24 12 5 12 13 4 41 -10
30 -9 39 7 56 9 10 15 26 11 35 -8 21 -26 10 -26 -16 0 -28 -28 -36 -45 -13
-13 17 -14 16 -15 -21 0 -39 -19 -91 -20 -54 0 25 -39 69 -60 69 -11 0 -24 9
-30 20 -6 12 -7 20 -1 20 5 0 11 -5 13 -12 3 -7 11 -5 26 7 16 14 19 22 10 32
-8 10 -8 20 2 38 15 28 30 33 30 10 0 -8 5 -15 11 -15 7 0 8 14 4 43 -12 70
-21 85 -47 80 -24 -5 -67 -67 -69 -100 0 -10 -11 16 -25 57 -24 76 -23 102 3
132 12 13 21 15 40 7 17 -6 30 -6 38 1 13 11 20 1 55 -85 22 -52 40 -124 38
-146 -2 -19 2 -25 21 -27 l24 -4 -6 77 c-6 68 -5 76 8 65 8 -7 15 -22 15 -34
0 -11 7 -34 15 -50 8 -15 15 -39 15 -52 0 -12 5 -26 10 -29 16 -10 12 -34 -12
-65 -17 -23 -19 -33 -10 -42 7 -7 12 -31 12 -55 l0 -43 96 0 96 0 -7 63 c-3
34 -14 94 -24 132 -15 61 -22 73 -53 94 -31 20 -41 36 -63 103 -26 79 -27 84
-20 257 3 97 11 188 16 203 8 20 8 36 0 59 -8 24 -8 35 3 51 14 19 12 49 -3
47 -3 0 -22 -19 -41 -41z m-220 -420 c0 -5 -7 -8 -15 -8 -10 0 -15 10 -15 27
0 26 1 26 15 7 8 -10 15 -22 15 -26z"/>
<path d="M7284 12506 c-19 -19 -34 -41 -34 -49 0 -8 -7 -28 -15 -43 -19 -36
-19 -55 0 -80 8 -10 15 -31 15 -46 0 -14 11 -40 25 -56 14 -17 25 -34 25 -39
0 -6 9 -18 19 -27 29 -26 33 -64 15 -126 -9 -30 -17 -74 -18 -98 l-1 -43 -72
-31 c-65 -26 -73 -33 -73 -56 0 -31 -24 -64 -57 -81 -13 -7 -23 -21 -23 -32 0
-17 4 -20 28 -14 24 5 30 2 40 -20 9 -20 19 -25 49 -25 21 0 44 -4 52 -9 20
-13 5 -46 -27 -58 -20 -8 108 -11 493 -12 l521 -1 -4 39 c-3 27 -12 47 -31 63
-14 13 -38 52 -51 86 -14 34 -30 62 -37 62 -7 0 -13 7 -13 15 0 8 -4 15 -8 15
-5 0 -14 11 -22 24 -19 36 -47 40 -55 7 -7 -26 -7 -26 -18 -4 -5 13 -18 25
-28 28 -18 6 -24 18 -19 40 1 5 2 22 2 36 1 18 8 29 19 32 11 3 19 12 19 20 0
14 -21 65 -39 97 -5 8 -15 28 -22 43 -8 18 -30 35 -61 49 -26 11 -50 29 -53
39 -4 10 -14 26 -22 35 -15 15 -18 14 -34 -7 l-17 -22 -6 21 c-4 12 -14 22
-21 22 -8 0 -32 9 -54 21 -30 16 -58 20 -115 20 -83 0 -87 2 -96 64 -4 35 -9
40 -32 43 -20 2 -37 16 -58 48 -17 24 -36 44 -41 44 -6 0 -26 -15 -45 -34z
m368 -241 c-5 -29 -10 -31 -27 -9 -20 27 -18 36 8 32 16 -2 21 -9 19 -23z
m328 -435 c0 -13 -11 -13 -30 0 -12 8 -11 10 8 10 12 0 22 -4 22 -10z m160
-137 c0 -19 -3 -24 -10 -17 -6 6 -8 18 -4 27 9 24 14 21 14 -10z m-122 -48
c-2 -1 -20 -5 -41 -8 l-37 -6 26 35 27 34 14 -26 c7 -15 12 -28 11 -29z"/>
<path d="M2150 12430 l-25 -20 33 0 c39 0 75 17 67 31 -10 15 -48 10 -75 -11z"/>
<path d="M3220 12366 c-7 -13 -10 -39 -8 -58 3 -18 0 -49 -7 -68 -15 -44 -10
-59 18 -52 19 5 20 4 9 -11 -10 -12 -12 -33 -8 -74 18 -168 18 -189 -2 -227
-23 -42 -16 -66 32 -111 22 -21 26 -32 26 -83 0 -41 5 -63 15 -72 8 -7 15 -21
15 -31 0 -15 7 -19 36 -19 35 0 35 1 29 33 -4 17 -22 61 -40 97 -31 64 -32 69
-26 160 5 81 8 95 22 92 13 -2 18 8 21 44 2 25 0 48 -4 50 -14 9 -8 34 7 34 8
0 17 -11 21 -24 3 -14 14 -32 25 -42 10 -9 19 -21 19 -26 0 -5 14 -44 31 -86
31 -77 69 -225 69 -270 0 -17 -8 -27 -30 -35 -45 -17 -36 -27 25 -27 55 0 55
0 55 31 0 36 21 35 30 -2 4 -16 14 -25 32 -27 22 -3 26 1 31 30 6 41 2 48 -28
48 -19 0 -26 7 -31 28 -3 15 -12 41 -19 57 -8 17 -26 57 -40 90 -15 33 -37 83
-50 110 -13 28 -27 66 -31 85 -6 30 -5 33 9 22 12 -11 16 -8 21 14 9 32 1 42
-23 27 -12 -7 -23 -8 -35 -1 -23 13 -56 92 -58 137 -1 59 -13 73 -61 69 l-41
-3 3 43 c4 66 -33 97 -59 48z m103 -189 c3 -12 9 -32 12 -44 12 -38 -19 -27
-49 17 -23 35 -24 40 -9 49 23 12 40 4 46 -22z"/>
<path d="M3686 12341 c-7 -11 3 -41 14 -41 14 0 40 31 35 41 -8 12 -42 12 -49
0z"/>
<path d="M1980 12330 c0 -5 4 -10 9 -10 6 0 13 5 16 10 3 6 -1 10 -9 10 -9 0
-16 -4 -16 -10z"/>
<path d="M2512 12305 c-7 -14 -12 -44 -12 -65 0 -33 4 -40 19 -40 20 0 71 53
71 74 0 21 -31 56 -49 56 -10 0 -23 -11 -29 -25z"/>
<path d="M4665 12310 c-8 -24 1 -40 21 -40 9 0 14 11 14 30 0 35 -25 42 -35
10z"/>
<path d="M1925 12290 c-4 -6 -1 -18 6 -26 10 -12 14 -12 20 -2 5 7 9 19 9 26
0 15 -26 16 -35 2z"/>
<path d="M3820 12275 c0 -9 5 -15 11 -13 6 2 11 8 11 13 0 5 -5 11 -11 13 -6
2 -11 -4 -11 -13z"/>
<path d="M2075 12251 c-3 -5 -1 -12 5 -16 5 -3 10 1 10 9 0 18 -6 21 -15 7z"/>
<path d="M2410 12207 c0 -37 5 -59 15 -67 23 -19 29 -5 15 30 -7 16 -10 39 -7
50 3 10 -1 24 -9 31 -12 10 -14 2 -14 -44z"/>
<path d="M3665 12207 c-4 -10 -5 -21 -1 -24 10 -10 18 4 13 24 -4 17 -4 17
-12 0z"/>
<path d="M4407 12074 c-4 -4 -7 -18 -7 -31 0 -28 23 -27 28 1 4 20 -11 40 -21
30z"/>
<path d="M2378 12042 c-10 -2 -18 -9 -18 -17 0 -12 28 -42 33 -34 1 2 8 11 15
20 15 20 -3 38 -30 31z"/>
<path d="M2501 12036 c-7 -9 -8 -17 -2 -20 15 -10 40 5 34 20 -7 18 -17 18
-32 0z"/>
<path d="M4191 12034 c0 -11 3 -14 6 -6 3 7 2 16 -1 19 -3 4 -6 -2 -5 -13z"/>
<path d="M4880 12030 c0 -5 5 -10 11 -10 5 0 7 5 4 10 -3 6 -8 10 -11 10 -2 0
-4 -4 -4 -10z"/>
<path d="M3830 11980 c0 -19 11 -26 23 -14 8 8 -3 34 -14 34 -5 0 -9 -9 -9
-20z"/>
<path d="M7980 11987 c0 -13 33 -67 41 -67 15 0 10 37 -7 54 -14 14 -34 22
-34 13z"/>
<path d="M2360 11866 c0 -9 5 -16 10 -16 6 0 10 4 10 9 0 6 -4 13 -10 16 -5 3
-10 -1 -10 -9z"/>
<path d="M4381 11854 c0 -11 3 -14 6 -6 3 7 2 16 -1 19 -3 4 -6 -2 -5 -13z"/>
<path d="M7137 11864 c-11 -11 -8 -44 3 -44 15 0 24 30 13 41 -5 5 -12 6 -16
3z"/>
<path d="M3372 11846 c1 -10 8 -17 13 -17 15 1 12 24 -3 29 -9 3 -13 -2 -10
-12z"/>
<path d="M6983 11823 c-7 -3 -13 -11 -13 -19 0 -18 -31 -18 -56 1 -31 23 -34
19 -34 -49 0 -35 -3 -71 -6 -80 -12 -32 -84 -11 -84 24 0 32 -20 23 -27 -11
-3 -17 -12 -33 -19 -36 -6 -2 -15 -16 -19 -31 -3 -15 -8 -35 -11 -44 -5 -17 7
-18 164 -18 l170 0 6 34 c7 39 -1 66 -19 66 -22 0 -30 21 -35 96 -4 51 -9 70
-17 67z"/>
<path d="M6367 11767 c3 -13 -2 -29 -10 -35 -19 -16 -10 -52 13 -52 9 0 22 11
28 25 6 14 16 25 21 25 13 0 21 27 15 45 -4 9 -19 15 -39 15 -28 0 -32 -3 -28
-23z"/>
<path d="M4710 11688 c-11 -12 -20 -28 -20 -35 0 -7 -9 -17 -20 -23 -25 -13
-26 -32 -2 -52 24 -22 152 -22 152 0 0 8 -6 23 -13 31 -8 9 -19 35 -26 59 -14
49 -38 55 -71 20z"/>
<path d="M6531 11662 c-6 -11 -11 -30 -11 -41 0 -11 -4 -23 -10 -26 -13 -8
-13 -35 1 -35 6 0 24 10 41 21 24 18 28 26 23 48 -3 14 -12 32 -20 40 -11 11
-15 10 -24 -7z"/>
<path d="M6402 11633 c2 -9 9 -18 16 -21 18 -6 15 25 -4 32 -11 4 -14 1 -12
-11z"/>
<path d="M6156 11604 c-8 -22 1 -31 16 -16 9 9 9 15 1 23 -7 7 -12 5 -17 -7z"/>
<path d="M8483 11543 c9 -2 23 -2 30 0 6 3 -1 5 -18 5 -16 0 -22 -2 -12 -5z"/>
<path d="M7241 11390 c-46 -11 -100 -67 -111 -116 -5 -21 -10 -127 -10 -234 0
-107 5 -213 10 -234 5 -23 23 -54 43 -73 19 -20 50 -38 73 -43 21 -5 176 -10
344 -10 168 0 323 5 344 10 51 11 105 65 116 116 5 21 10 127 10 234 0 107 -5
213 -10 234 -11 51 -65 105 -116 116 -48 12 -646 11 -693 0z m250 -340 c15
-41 28 -81 28 -87 1 -21 -36 -15 -42 7 -4 14 -14 20 -35 20 -21 0 -31 -6 -35
-20 -3 -12 -14 -20 -26 -20 -20 0 -19 3 12 90 41 116 57 118 98 10z m159 -9
l0 -88 -36 -6 c-44 -7 -72 6 -84 39 -20 52 23 114 70 99 17 -5 20 -2 20 19 0
16 6 26 15 26 12 0 15 -17 15 -89z m160 0 l0 -88 -42 -6 c-63 -9 -88 11 -88
68 0 36 5 48 25 61 14 9 32 13 45 9 17 -5 20 -2 20 19 0 19 5 26 20 26 18 0
20 -7 20 -89z"/>
<path d="M7437 11056 c-11 -27 -8 -36 8 -36 16 0 17 5 6 34 -7 18 -8 18 -14 2z"/>
<path d="M7565 11031 c-8 -26 4 -51 25 -51 10 0 21 7 24 16 10 25 -3 54 -24
54 -10 0 -21 -8 -25 -19z"/>
<path d="M7721 11032 c-7 -14 -7 -24 3 -37 19 -27 48 -12 44 22 -4 33 -32 42
-47 15z"/>
<path d="M8805 11175 c-5 -11 -15 -25 -23 -30 -15 -12 -13 -77 3 -82 26 -8 36
15 33 73 -3 45 -5 54 -13 39z"/>
<path d="M8733 11014 c-17 -12 -25 -13 -41 -3 -16 10 -33 8 -93 -11 -41 -12
-82 -26 -92 -32 -12 -6 -23 -5 -32 2 -12 10 -15 -20 -17 -189 -2 -156 0 -201
10 -201 18 0 15 -27 -5 -36 -37 -16 -86 -17 -877 -20 l-808 -4 7 -73 c11 -123
8 -226 -10 -269 -4 -11 0 -23 13 -33 18 -16 18 -17 -1 -56 -11 -24 -26 -39
-37 -39 -14 0 -19 -10 -22 -45 -4 -50 5 -55 39 -24 20 20 23 20 29 5 4 -11 13
-15 25 -11 11 4 19 2 19 -4 0 -8 233 -11 776 -11 l776 0 34 -34 34 -34 0 -166
0 -166 180 0 180 0 0 334 c0 258 -3 336 -12 340 -10 5 -10 7 -1 12 9 4 12 95
12 352 l1 347 -29 16 c-23 14 -28 22 -24 43 6 29 -2 32 -34 10z"/>
<path d="M6453 10508 c-16 -20 -23 -129 -12 -173 25 -103 29 -160 14 -204 -7
-20 -5 -23 8 -18 16 6 26 -17 39 -86 6 -35 23 -17 28 30 3 27 15 65 28 86 12
21 22 49 22 62 0 13 7 28 15 32 14 8 25 66 41 231 l6 52 -55 0 c-35 0 -57 -5
-60 -12 -4 -10 -6 -10 -6 0 -1 6 -14 12 -30 12 -16 0 -33 -6 -38 -12z"/>
<path d="M6707 10183 c-4 -3 -7 -19 -7 -35 0 -23 4 -29 18 -26 21 4 28 41 9
56 -8 7 -17 9 -20 5z"/>
<path d="M6647 10119 c-17 -10 -23 -40 -10 -52 3 -4 15 0 25 10 31 28 20 61
-15 42z"/>
<path d="M6656 10014 c-14 -37 -7 -54 24 -54 31 0 31 0 15 29 -19 37 -31 45
-39 25z"/>
<path d="M2720 9325 c0 -98 1 -105 20 -105 19 0 20 7 20 105 0 98 -1 105 -20
105 -19 0 -20 -7 -20 -105z"/>
<path d="M2790 9325 c0 -98 1 -105 20 -105 19 0 20 7 20 105 0 98 -1 105 -20
105 -19 0 -20 -7 -20 -105z"/>
<path d="M3945 9419 c-10 -15 3 -25 16 -12 7 7 7 13 1 17 -6 3 -14 1 -17 -5z"/>
<path d="M5710 9325 c0 -63 4 -105 10 -105 6 0 10 42 10 105 0 63 -4 105 -10
105 -6 0 -10 -42 -10 -105z"/>
<path d="M6290 9390 c0 -37 -2 -40 -19 -30 -49 26 -95 -6 -95 -65 0 -58 58
-97 92 -63 10 10 15 10 22 -2 7 -10 10 21 10 93 0 59 -2 107 -5 107 -3 0 -5
-18 -5 -40z m-12 -69 c13 -38 -5 -75 -39 -79 -21 -2 -29 3 -38 26 -18 43 0 82
38 82 23 0 31 -6 39 -29z"/>
<path d="M2570 9418 c0 -2 -16 -47 -35 -100 l-35 -98 24 0 c17 0 26 7 30 25 5
21 12 25 41 25 29 0 36 -4 41 -25 4 -18 13 -25 29 -25 l24 0 -29 83 c-40 118
-40 117 -66 117 -13 0 -24 -1 -24 -2z m44 -95 c6 -20 4 -23 -18 -23 -30 0 -29
-2 -15 40 12 34 19 30 33 -17z"/>
<path d="M3563 9388 c-6 -18 -22 -63 -36 -100 -14 -38 -22 -68 -16 -68 6 0 15
14 20 30 10 27 15 30 54 30 39 0 44 -3 54 -30 5 -16 15 -30 20 -30 6 0 -3 37
-20 83 -17 45 -34 90 -36 100 -8 27 -29 20 -40 -15z m40 -43 l16 -45 -34 0
-34 0 16 45 c8 25 16 45 18 45 2 0 10 -20 18 -45z"/>
<path d="M4965 9395 c-20 -19 -25 -34 -25 -75 0 -64 30 -100 85 -100 34 0 75
27 75 50 0 17 -14 11 -28 -10 -8 -14 -23 -20 -47 -20 -41 0 -65 29 -65 80 0
51 24 80 65 80 24 0 39 -6 47 -20 7 -11 16 -20 20 -20 15 0 8 19 -14 40 -31
28 -83 26 -113 -5z"/>
<path d="M3860 9391 c0 -13 -7 -21 -17 -21 -17 -1 -17 -1 0 -14 12 -10 17 -28
17 -69 0 -41 4 -56 16 -61 23 -9 34 -7 34 4 0 6 -7 10 -15 10 -12 0 -15 13
-15 55 0 42 3 55 15 55 8 0 15 5 15 10 0 6 -7 10 -15 10 -8 0 -15 6 -15 14 0
8 -4 18 -10 21 -5 3 -10 -3 -10 -14z"/>
<path d="M5940 9391 c0 -13 -7 -21 -17 -21 -17 -1 -17 -1 0 -14 12 -10 17 -28
17 -69 0 -41 4 -56 16 -61 23 -9 34 -7 34 4 0 6 -7 10 -15 10 -12 0 -15 13
-15 55 0 42 3 55 15 55 8 0 15 5 15 10 0 6 -7 10 -15 10 -8 0 -15 6 -15 14 0
8 -4 18 -10 21 -5 3 -10 -3 -10 -14z"/>
<path d="M3707 9352 c-23 -26 -22 -94 1 -115 24 -22 66 -22 87 -1 9 9 13 19
10 22 -3 3 -11 0 -17 -6 -31 -31 -80 -4 -80 43 0 47 49 74 80 43 6 -6 14 -9
17 -6 3 3 -1 13 -10 22 -22 21 -68 20 -88 -2z"/>
<path d="M3940 9295 c0 -43 4 -75 10 -75 6 0 10 32 10 75 0 43 -4 75 -10 75
-6 0 -10 -32 -10 -75z"/>
<path d="M4018 9296 c15 -42 32 -76 38 -76 5 0 21 30 35 67 13 37 26 71 27 75
2 4 -1 8 -6 8 -5 0 -19 -27 -31 -61 -13 -33 -25 -59 -27 -56 -2 2 -12 28 -22
57 -10 30 -24 56 -30 58 -7 2 0 -29 16 -72z"/>
<path d="M4156 9348 c-36 -50 -7 -128 47 -128 27 0 65 25 54 36 -4 4 -13 2
-19 -4 -25 -25 -78 -8 -78 25 0 9 17 13 56 13 47 0 55 3 50 16 -3 9 -6 19 -6
24 0 18 -33 40 -60 40 -18 0 -34 -8 -44 -22z m84 -18 c10 -19 8 -20 -35 -20
-46 0 -54 7 -33 28 19 19 56 14 68 -8z"/>
<path d="M5150 9348 c-42 -46 -11 -128 49 -128 38 0 61 28 61 77 0 68 -65 99
-110 51z m80 -13 c16 -20 16 -61 0 -80 -21 -25 -63 -15 -74 17 -20 57 38 106
74 63z"/>
<path d="M5300 9295 c0 -91 17 -100 22 -12 4 67 1 87 -13 87 -5 0 -9 -34 -9
-75z"/>
<path d="M5335 9361 c-3 -5 7 -11 22 -13 27 -3 28 -6 31 -65 2 -35 7 -63 12
-63 5 0 10 28 12 63 3 62 3 62 33 62 30 0 30 0 33 -62 4 -78 22 -84 22 -7 0
86 -26 113 -80 84 -13 -7 -21 -7 -25 0 -8 13 -52 13 -60 1z"/>
<path d="M5540 9270 c0 -60 4 -100 10 -100 6 0 10 17 10 37 0 29 3 34 12 25
20 -20 65 -14 82 10 35 50 9 128 -43 128 -15 0 -32 -5 -39 -12 -9 -9 -12 -9
-12 0 0 7 -4 12 -10 12 -6 0 -10 -40 -10 -100z m98 68 c7 -7 12 -26 12 -43 0
-36 -15 -55 -45 -55 -30 0 -45 19 -45 55 0 36 15 55 45 55 12 0 26 -5 33 -12z"/>
<path d="M5781 9344 c-12 -15 -21 -37 -21 -49 0 -12 9 -34 21 -49 24 -30 69
-35 94 -10 19 20 12 32 -9 15 -23 -19 -68 -9 -77 17 -8 21 -6 22 46 22 51 0
55 2 55 23 0 56 -73 76 -109 31z m77 -6 c21 -21 13 -28 -28 -28 -38 0 -52 14
-33 33 11 11 48 8 61 -5z"/>
<path d="M6037 9352 c-23 -26 -22 -94 1 -115 10 -10 30 -17 43 -17 29 0 68 25
56 36 -4 4 -13 2 -19 -4 -25 -25 -78 -8 -78 25 0 9 16 13 50 13 46 0 50 2 50
23 0 50 -70 76 -103 39z m81 -24 c3 -15 -4 -18 -37 -18 -43 0 -50 7 -29 28 18
18 62 11 66 -10z"/>
<path d="M2383 8683 c1115 -2 2939 -2 4055 0 1115 1 202 2 -2028 2 -2230 0
-3143 -1 -2027 -2z"/>
<path d="M860 8233 c-95 -49 -87 -193 13 -232 105 -40 206 61 166 166 -27 70
-111 101 -179 66z m83 -65 c18 17 26 19 35 10 9 -9 7 -17 -10 -35 l-21 -23 21
-23 c17 -18 19 -26 10 -35 -9 -9 -17 -7 -35 10 l-23 21 -23 -21 c-18 -17 -26
-19 -35 -10 -9 9 -7 17 10 35 l21 23 -21 23 c-17 18 -19 26 -10 35 9 9 17 7
35 -10 l23 -21 23 21z"/>
<path d="M1340 8115 c0 -50 4 -85 10 -85 6 0 10 35 10 85 0 50 -4 85 -10 85
-6 0 -10 -35 -10 -85z"/>
<path d="M1932 8146 c-17 -30 -32 -59 -32 -65 0 -6 18 -11 40 -11 33 0 40 -3
40 -20 0 -11 5 -20 10 -20 6 0 10 9 10 19 0 11 6 22 13 25 10 5 10 7 0 12 -8
3 -13 26 -13 60 0 74 -24 74 -68 0z m44 -52 c-6 -15 -42 -19 -49 -6 -3 4 7 25
22 47 l26 40 3 -33 c2 -19 1 -40 -2 -48z"/>
<path d="M1410 8176 c0 -8 -6 -17 -12 -19 -10 -4 -10 -7 -1 -14 6 -5 13 -28
15 -52 3 -43 28 -75 45 -57 4 4 0 12 -10 17 -22 13 -25 89 -2 89 8 0 15 5 15
10 0 6 -7 10 -15 10 -8 0 -15 7 -15 15 0 8 -4 15 -10 15 -5 0 -10 -6 -10 -14z"/>
<path d="M1505 8146 c-13 -9 -19 -26 -19 -51 0 -25 6 -42 19 -51 25 -18 59
-18 75 1 10 13 7 14 -26 12 -30 -1 -39 2 -42 16 -3 14 4 17 37 17 34 0 41 3
41 19 0 43 -48 64 -85 37z m63 -28 c3 -14 -3 -18 -27 -18 -29 0 -41 17 -24 34
13 13 48 1 51 -16z"/>
<path d="M1630 8093 c0 -76 18 -85 22 -10 3 44 6 52 23 52 17 0 20 -8 23 -52
4 -63 22 -71 22 -10 0 51 11 70 36 65 15 -2 20 -14 22 -56 4 -69 22 -67 22 2
0 66 -17 85 -61 69 -16 -6 -31 -7 -34 -2 -3 4 -21 8 -40 7 l-35 -1 0 -64z"/>
<path d="M952 6987 l-71 -71 -31 29 c-16 16 -32 26 -35 24 -2 -3 11 -21 30
-39 l35 -34 77 76 c43 43 75 79 72 82 -3 3 -37 -27 -77 -67z"/>
<path d="M1340 7021 c0 -22 -6 -42 -12 -45 -10 -5 -10 -7 0 -12 6 -3 12 -21
12 -40 0 -19 5 -34 10 -34 6 0 10 16 10 35 0 30 3 35 24 35 19 0 25 -6 28 -26
3 -29 32 -54 45 -40 4 4 0 12 -10 17 -27 16 -22 49 8 49 18 0 26 -7 31 -25 11
-43 69 -60 95 -29 11 14 9 15 -24 9 -29 -6 -38 -4 -43 9 -8 22 -8 22 59 30
l57 6 0 -35 c0 -19 5 -35 10 -35 6 0 10 16 10 35 0 31 3 35 25 35 22 0 25 -4
25 -35 0 -19 5 -35 10 -35 6 0 10 16 10 35 0 32 2 35 30 35 28 0 30 -3 30 -35
0 -19 5 -35 10 -35 6 0 10 16 10 35 l0 35 94 0 c71 0 95 -3 99 -14 3 -7 0 -19
-6 -25 -16 -16 -57 -14 -63 4 -7 16 -24 21 -24 6 0 -19 32 -41 60 -41 31 0 68
40 55 60 -3 5 -1 10 4 10 6 0 11 5 11 10 0 6 -9 10 -20 10 -18 0 -19 2 -8 20
24 38 -14 69 -68 56 -23 -6 -35 -36 -14 -36 6 0 10 5 10 11 0 6 12 9 28 7 19
-2 27 -9 27 -23 0 -24 -29 -33 -113 -34 -55 -1 -66 2 -82 22 -16 20 -22 21
-49 10 -17 -6 -33 -7 -36 -2 -3 4 -21 8 -40 7 -27 -1 -35 -6 -35 -20 0 -24
-31 -23 -53 2 -9 11 -26 20 -37 20 -11 0 -29 -9 -40 -20 -21 -21 -70 -28 -70
-10 0 6 7 10 15 10 8 0 15 5 15 10 0 6 -7 10 -15 10 -8 0 -15 7 -15 15 0 8 -4
15 -10 15 -5 0 -10 -6 -10 -14 0 -8 -6 -17 -12 -20 -10 -5 -10 -7 0 -12 21
-10 13 -24 -13 -24 -22 0 -25 4 -25 40 0 22 -4 40 -10 40 -5 0 -10 -18 -10
-39z m225 -31 c4 -6 -7 -10 -25 -10 -18 0 -29 4 -25 10 3 6 15 10 25 10 10 0
22 -4 25 -10z m130 0 c4 -6 -5 -10 -20 -10 -15 0 -24 4 -20 10 3 6 12 10 20
10 8 0 17 -4 20 -10z m80 0 c4 -6 -5 -10 -19 -10 -14 0 -26 5 -26 10 0 6 9 10
19 10 11 0 23 -4 26 -10z"/>
<path d="M860 5953 c-95 -49 -87 -193 13 -232 105 -40 206 61 166 166 -27 70
-111 101 -179 66z m83 -65 c18 17 26 19 35 10 9 -9 7 -17 -10 -35 l-21 -23 21
-23 c17 -18 19 -26 10 -35 -9 -9 -17 -7 -35 10 l-23 21 -23 -21 c-18 -17 -26
-19 -35 -10 -9 9 -7 17 10 35 l21 23 -21 23 c-17 18 -19 26 -10 35 9 9 17 7
35 -10 l23 -21 23 21z"/>
<path d="M1340 5835 c0 -50 4 -85 10 -85 6 0 10 35 10 85 0 50 -4 85 -10 85
-6 0 -10 -35 -10 -85z"/>
<path d="M1910 5899 c-16 -29 -6 -35 19 -10 21 21 46 19 55 -4 5 -14 -37 -79
-67 -104 -29 -23 -19 -31 38 -31 30 0 55 5 55 10 0 6 -16 10 -35 10 -19 0 -35
3 -35 6 0 4 16 24 35 45 38 42 40 50 25 80 -15 27 -75 26 -90 -2z"/>
<path d="M1410 5896 c0 -8 -6 -17 -12 -19 -10 -4 -10 -7 -1 -14 6 -5 13 -28
15 -52 3 -43 28 -75 45 -57 4 4 0 12 -10 17 -22 13 -25 89 -2 89 8 0 15 5 15
10 0 6 -7 10 -15 10 -8 0 -15 7 -15 15 0 8 -4 15 -10 15 -5 0 -10 -6 -10 -14z"/>
<path d="M1505 5866 c-13 -9 -19 -26 -19 -51 0 -25 6 -42 19 -51 25 -18 59
-18 75 1 10 13 7 14 -26 12 -30 -1 -39 2 -42 16 -3 14 4 17 37 17 34 0 41 3
41 19 0 43 -48 64 -85 37z m63 -28 c3 -14 -3 -18 -27 -18 -29 0 -41 17 -24 34
13 13 48 1 51 -16z"/>
<path d="M1630 5813 c0 -76 18 -85 22 -10 3 44 6 52 23 52 17 0 20 -8 23 -52
4 -63 22 -71 22 -10 0 51 11 70 36 65 15 -2 20 -14 22 -56 4 -69 22 -67 22 2
0 66 -17 85 -61 69 -16 -6 -31 -7 -34 -2 -3 4 -21 8 -40 7 l-35 -1 0 -64z"/>
<path d="M952 4707 l-71 -71 -31 29 c-16 16 -32 26 -35 24 -2 -3 11 -21 30
-39 l35 -34 77 76 c43 43 75 79 72 82 -3 3 -37 -27 -77 -67z"/>
<path d="M1340 4741 c0 -22 -6 -42 -12 -45 -10 -5 -10 -7 0 -12 6 -3 12 -21
12 -40 0 -19 5 -34 10 -34 6 0 10 16 10 35 0 30 3 35 24 35 19 0 25 -6 28 -26
3 -29 32 -54 45 -40 4 4 0 12 -10 17 -27 16 -22 49 8 49 18 0 26 -7 31 -25 11
-43 69 -60 95 -29 11 14 9 15 -24 9 -29 -6 -38 -4 -43 9 -8 22 -8 22 59 30
l57 6 0 -35 c0 -19 5 -35 10 -35 6 0 10 16 10 35 0 31 3 35 25 35 22 0 25 -4
25 -35 0 -19 5 -35 10 -35 6 0 10 16 10 35 0 32 2 35 30 35 28 0 30 -3 30 -35
0 -19 5 -35 10 -35 6 0 10 16 10 35 l0 35 70 0 70 0 0 -35 c0 -19 5 -35 10
-35 6 0 10 16 10 35 0 24 5 35 15 35 8 0 15 5 15 10 0 6 -7 10 -15 10 -11 0
-15 11 -15 40 0 44 -16 52 -43 22 -23 -25 -21 -35 3 -22 18 9 20 8 20 -15 0
-24 -2 -25 -66 -25 -56 0 -68 3 -84 23 -16 20 -22 21 -49 10 -17 -6 -33 -7
-36 -2 -3 4 -21 8 -40 7 -27 -1 -35 -6 -35 -20 0 -24 -31 -23 -53 2 -9 11 -26
20 -37 20 -11 0 -29 -9 -40 -20 -21 -21 -70 -28 -70 -10 0 6 7 10 15 10 8 0
15 5 15 10 0 6 -7 10 -15 10 -8 0 -15 7 -15 15 0 8 -4 15 -10 15 -5 0 -10 -6
-10 -14 0 -8 -6 -17 -12 -20 -10 -5 -10 -7 0 -12 21 -10 13 -24 -13 -24 -22 0
-25 4 -25 40 0 22 -4 40 -10 40 -5 0 -10 -18 -10 -39z m225 -31 c4 -6 -7 -10
-25 -10 -18 0 -29 4 -25 10 3 6 15 10 25 10 10 0 22 -4 25 -10z m130 0 c4 -6
-5 -10 -20 -10 -15 0 -24 4 -20 10 3 6 12 10 20 10 8 0 17 -4 20 -10z m80 0
c4 -6 -5 -10 -19 -10 -14 0 -26 5 -26 10 0 6 9 10 19 10 11 0 23 -4 26 -10z"/>
</g>
</svg>
