<?xml version="1.0" standalone="no"?>
<!DOCTYPE svg PUBLIC "-//W3C//DTD SVG 20010904//EN"
 "http://www.w3.org/TR/2001/REC-SVG-20010904/DTD/svg10.dtd">
<svg version="1.0" xmlns="http://www.w3.org/2000/svg"
 width="2770.000000pt" height="1368.000000pt" viewBox="0 0 2770.000000 1368.000000"
 preserveAspectRatio="xMidYMid meet">

<g transform="translate(0.000000,1368.000000) scale(0.100000,-0.100000)"
fill="#000000" stroke="none">
<path d="M20 13390 l0 -290 64 0 c60 0 64 -1 68 -25 4 -17 1 -25 -8 -25 -8 0
-14 -6 -14 -14 0 -8 -9 -18 -20 -21 -11 -3 -20 -12 -20 -20 0 -14 -21 -25 -51
-25 -18 0 -19 -13 -19 -435 l0 -435 64 0 c36 0 68 5 71 10 3 6 26 10 50 10 24
0 47 5 50 10 3 6 17 10 31 10 28 0 32 24 7 39 -12 7 -14 13 -7 18 6 5 14 18
18 31 7 20 14 22 74 22 56 0 69 -3 80 -20 7 -11 23 -20 36 -20 13 0 37 -7 52
-15 l29 -15 -45 0 c-73 0 -90 -8 -90 -41 0 -19 5 -29 15 -29 11 0 15 -11 15
-40 0 -22 -5 -40 -11 -40 -6 0 -22 -9 -36 -20 l-26 -20 25 0 c36 0 42 -12 16
-32 -21 -17 -21 -19 -6 -28 9 -6 23 -17 31 -24 7 -8 22 -16 33 -18 16 -4 15
-6 -9 -16 -24 -10 -32 -8 -69 18 -46 33 -69 37 -88 15 -15 -18 -30 -11 -30 16
0 10 -4 19 -8 19 -11 0 -42 -34 -42 -46 0 -14 -48 -32 -105 -40 -27 -4 -67
-14 -87 -23 l-38 -16 -1 -620 c0 -341 0 -641 1 -667 1 -29 -3 -48 -9 -48 -6 0
-11 -14 -11 -31 0 -17 4 -28 10 -24 7 4 10 -63 10 -195 0 -132 -3 -199 -10
-195 -6 4 -10 -12 -10 -42 0 -35 3 -44 10 -33 6 10 10 -55 10 -192 l0 -208
2401 0 c2120 0 2402 2 2415 15 9 8 20 15 25 15 5 0 12 -7 15 -15 5 -12 25 -15
95 -15 53 0 89 4 89 10 0 6 11 10 25 10 23 0 65 31 65 48 0 4 -7 17 -15 29
-15 21 -14 23 9 38 14 9 23 22 20 29 -3 8 10 22 30 34 33 20 36 20 36 4 0 -10
-4 -22 -10 -28 -6 -6 8 -10 42 -12 50 -2 51 -2 34 17 -17 19 -17 20 3 30 11 6
26 11 34 11 8 0 20 7 27 15 14 17 30 11 30 -11 0 -8 -7 -14 -15 -14 -8 0 -15
-7 -15 -15 0 -8 7 -15 15 -15 8 0 15 5 15 10 0 6 9 10 19 10 25 0 38 20 20 30
-18 12 6 40 34 40 11 0 31 10 43 21 22 21 54 21 54 0 0 -5 -11 -23 -25 -39
-14 -17 -25 -38 -25 -49 0 -10 -13 -26 -29 -36 -19 -11 -28 -25 -28 -42 0 -31
6 -31 32 -2 11 12 37 30 58 39 22 11 42 29 49 45 14 34 68 93 84 93 6 0 14 7
18 15 9 26 36 18 36 -11 0 -27 6 -28 53 -9 13 5 17 2 17 -14 0 -12 -3 -21 -8
-21 -4 0 -13 -14 -21 -32 -13 -28 -12 -32 3 -44 22 -16 17 -45 -10 -59 -12 -6
-34 -25 -49 -43 l-27 -33 26 -24 27 -25 595 0 594 0 0 166 0 166 34 34 34 34
240 0 240 0 6 23 c5 18 8 19 15 7 5 -8 7 -18 5 -22 -3 -4 650 -8 1450 -8
l1456 0 0 38 c0 32 -4 39 -29 49 -25 9 -30 18 -35 54 -11 82 -11 112 -1 115
22 8 38 -16 39 -60 1 -26 9 -53 19 -64 9 -10 17 -24 17 -30 0 -6 9 -16 20 -22
14 -8 20 -21 20 -45 l0 -35 4964 0 c4400 0 4965 2 4976 15 7 8 16 15 21 15 5
0 9 -7 9 -15 0 -13 22 -15 141 -15 l141 0 34 -34 34 -34 0 -166 0 -166 139 0
c102 0 141 3 145 13 5 10 7 10 12 0 4 -10 140 -13 630 -13 343 0 624 4 624 9
0 4 -12 26 -26 47 -15 21 -27 52 -28 69 -1 25 3 31 24 33 14 2 40 18 57 35 29
27 35 29 58 19 19 -9 25 -19 25 -43 0 -43 28 -99 46 -92 19 7 18 29 -2 37 -12
5 -15 14 -11 35 3 15 2 32 -3 37 -5 5 -10 24 -12 43 -4 42 -21 50 -45 22 -25
-30 -78 -27 -122 6 -20 15 -40 33 -44 40 -4 7 -21 13 -36 13 -21 0 -31 6 -36
23 l-8 22 -4 -22 c-2 -13 -11 -23 -19 -23 -11 0 -8 -9 11 -35 15 -19 24 -39
20 -45 -16 -25 -106 3 -168 53 l-29 22 28 30 27 29 10 -22 c7 -15 19 -22 39
-22 33 0 34 3 12 25 -16 15 -15 18 14 45 l31 28 -22 14 c-12 8 -32 17 -44 20
-19 5 -23 2 -23 -16 0 -25 -17 -46 -37 -46 -16 0 -17 43 -3 71 6 10 9 19 8 19
-2 0 -18 -4 -35 -9 -20 -6 -35 -6 -38 0 -4 5 3 9 14 9 12 0 21 5 21 10 0 13
-47 13 -55 0 -4 -6 -43 -9 -93 -8 -85 3 -87 2 -90 -21 -2 -13 1 -28 7 -34 6
-6 11 -21 11 -34 0 -28 20 -73 33 -73 6 0 23 -15 39 -32 31 -35 32 -52 7 -113
-7 -16 -11 -34 -10 -39 1 -6 0 -20 -4 -33 -6 -27 -30 -30 -82 -8 -26 11 -33
18 -25 28 5 6 10 25 10 40 0 21 -7 31 -27 39 -14 6 -40 17 -58 24 -17 8 -38
11 -47 8 -17 -7 -80 28 -113 63 -12 13 -32 23 -45 23 -40 0 -138 83 -138 117
0 9 -7 24 -16 34 -14 15 -18 34 -23 92 -1 4 -9 7 -20 7 -10 0 -24 7 -31 15 -7
8 -15 15 -19 15 -11 0 -35 -63 -35 -95 -1 -29 -2 -29 -58 -32 -45 -2 -58 1
-58 12 0 8 -17 19 -40 25 -47 13 -58 26 -30 35 32 10 5 38 -31 33 -29 -5 -26
-11 -45 96 -4 22 -14 37 -30 45 -13 6 -24 15 -24 20 0 5 -13 23 -29 40 -17 18
-33 41 -36 52 -6 19 -8 19 -37 -6 l-30 -25 -284 0 c-222 0 -283 -3 -281 -12 1
-8 -8 -13 -23 -13 -14 0 -24 5 -23 12 2 9 -28 12 -116 12 -104 0 -120 -2 -123
-17 -3 -9 -1 -26 3 -37 4 -11 10 -28 13 -38 5 -17 8 -16 36 4 18 14 30 32 30
46 0 16 6 23 20 23 30 0 36 -43 11 -78 -11 -16 -25 -41 -31 -56 -9 -24 -13
-26 -52 -20 -24 4 -47 13 -53 20 -5 7 -28 14 -50 16 -49 4 -54 28 -10 42 41
14 43 16 22 31 -15 11 -16 18 -8 33 6 11 7 22 4 26 -10 10 -95 7 -89 -3 10
-15 -17 -27 -59 -25 -63 3 -65 3 -65 19 0 13 -34 15 -267 13 l-268 -3 -13 -39
c-21 -66 -28 -69 -81 -39 -25 14 -58 39 -73 55 l-27 28 -4282 0 -4281 0 7 -22
c4 -13 8 -39 9 -58 1 -28 -3 -35 -19 -35 -25 0 -33 -48 -13 -72 11 -14 8 -13
-14 1 -16 10 -28 22 -28 27 0 15 -19 10 -39 -10 -12 -12 -17 -27 -14 -40 3
-12 2 -21 -2 -21 -14 0 -80 64 -77 74 2 5 5 34 7 64 2 29 7 62 10 73 6 19 -17
19 -1555 19 l-1562 0 -34 34 c-24 24 -34 43 -34 65 0 26 -4 31 -23 31 -13 0
-28 5 -35 12 -9 9 -12 7 -12 -10 0 -16 -6 -22 -24 -22 -13 0 -35 -9 -49 -20
-28 -23 -48 -25 -64 -9 -15 15 -44 4 -37 -15 7 -19 -21 -33 -66 -32 -34 1 -35
2 -35 41 0 32 -5 42 -22 50 -32 14 -29 32 10 54 17 11 41 29 52 39 11 11 31
22 45 24 19 2 25 9 25 28 0 21 -4 25 -25 23 l-25 -3 24 21 c40 33 92 12 56
-24 -8 -9 -14 -24 -13 -34 3 -36 -2 -55 -14 -50 -14 4 -48 -39 -48 -60 0 -25
38 -14 44 12 4 14 17 30 30 35 13 5 27 14 32 21 5 9 10 7 20 -5 11 -16 14 -15
35 13 13 17 29 31 36 31 8 0 12 -3 10 -7 -3 -5 1 -13 8 -20 10 -9 17 -8 31 8
13 15 19 16 26 7 4 -8 8 6 8 35 0 26 -4 47 -9 47 -5 0 -14 15 -20 33 -20 59
-111 106 -111 57 0 -11 -4 -20 -10 -20 -5 0 -10 5 -10 10 0 6 -7 10 -15 10
-21 0 -19 17 4 23 10 2 27 23 37 46 10 22 21 41 26 41 4 0 17 9 28 20 22 22
27 69 9 87 -9 9 -8 21 5 46 9 19 16 42 16 51 0 18 -62 38 -137 42 -57 3 -76
-9 -47 -31 11 -7 16 -17 12 -21 -4 -3 -35 19 -68 50 -41 37 -70 56 -86 56 -14
0 -41 12 -61 27 -31 24 -44 27 -112 28 -69 0 -77 -2 -86 -22 -5 -12 -20 -24
-32 -28 -14 -3 -23 -13 -23 -25 0 -33 -30 -23 -77 26 -23 25 -43 50 -43 55 0
5 -12 12 -27 15 -16 4 -42 21 -58 39 -22 23 -43 35 -75 40 -25 4 -58 14 -75
24 -25 13 -38 14 -80 6 -27 -6 -67 -19 -89 -28 -21 -9 -63 -17 -93 -17 -30 0
-64 -5 -76 -11 -32 -17 -76 -62 -77 -77 0 -8 -12 -26 -28 -40 -59 -57 -82 -99
-82 -146 0 -50 -17 -96 -36 -96 -13 0 -24 22 -24 50 0 28 -32 62 -52 55 -19
-7 -42 -96 -28 -105 11 -7 1 -50 -10 -50 -5 0 -18 -26 -30 -57 -23 -60 -42
-82 -76 -83 -11 0 -23 -3 -27 -6 -3 -4 -46 -8 -96 -10 -49 -2 -101 -8 -116
-14 -14 -5 -37 -10 -49 -10 -13 0 -38 -8 -56 -17 -29 -14 -35 -14 -38 -2 -3 8
-27 35 -53 61 -27 26 -49 54 -49 62 0 9 -4 16 -9 16 -5 0 -8 7 -7 16 2 31 -24
27 -35 -5 -11 -30 -13 -31 -57 -27 -26 3 -61 8 -79 11 -26 6 -32 4 -38 -14 -9
-29 -23 -26 -27 6 -3 31 -29 41 -62 24 -46 -23 -122 -48 -133 -44 -7 3 -13 15
-13 28 0 14 -8 29 -19 34 -22 12 -32 52 -18 77 7 12 5 26 -6 48 -9 17 -21 43
-26 58 -7 18 -20 30 -38 34 -32 8 -43 20 -43 51 0 12 -14 32 -32 47 -18 14
-40 33 -49 41 -9 8 -23 15 -32 15 -9 0 -23 13 -31 29 -13 24 -25 30 -78 41
-83 16 -96 24 -104 65 -4 21 -13 37 -25 40 -14 5 -19 16 -19 39 0 54 -29 71
-127 75 -7 1 -13 12 -13 26 0 20 -5 25 -25 25 -19 0 -25 5 -25 23 0 36 -22 58
-66 64 -31 4 -51 16 -84 49 -36 36 -50 44 -80 44 -23 0 -43 -7 -51 -17 -8 -9
-33 -25 -56 -35 -24 -10 -43 -23 -43 -27 0 -10 -221 -8 -238 2 -6 5 -12 16
-12 26 0 10 -10 31 -21 46 -18 22 -27 26 -53 21 -28 -5 -36 -1 -64 30 -25 28
-32 45 -32 78 0 39 -26 135 -39 146 -3 3 -14 22 -23 43 -10 20 -29 42 -42 48
-28 13 -36 35 -36 104 0 29 -7 60 -16 73 -20 29 -69 30 -86 2 -16 -25 -40 -26
-55 -1 -16 26 -72 35 -94 15 -13 -11 -32 -15 -66 -13 l-48 4 3 -32 c4 -31 2
-33 -26 -33 -50 0 -92 12 -92 26 0 10 -14 14 -50 14 -29 0 -50 -5 -50 -11 0
-17 -27 -39 -48 -39 -11 0 -22 -9 -25 -20 -4 -15 -14 -20 -36 -20 -17 0 -31
-4 -31 -10 0 -5 -7 -10 -16 -10 -9 0 -35 -13 -58 -28 -23 -16 -55 -32 -69 -36
-15 -3 -27 -12 -27 -20 0 -20 -52 -38 -86 -31 -57 13 -63 16 -66 38 -2 14 -14
24 -35 31 -18 5 -33 13 -33 18 0 4 -8 4 -17 -1 -46 -22 -87 -30 -100 -20 -9 9
-17 8 -28 -1 -12 -10 -15 -10 -15 3 0 9 13 17 35 21 31 6 34 9 21 21 -19 20
-24 19 -63 -11 -18 -14 -50 -28 -71 -31 -20 -3 -47 -17 -59 -30 -17 -18 -33
-23 -71 -23 -27 0 -57 -6 -68 -15 -25 -19 -44 -19 -44 1 0 13 -20 15 -152 12
-87 -2 -156 -7 -161 -13 -8 -11 -1 127 9 183 4 19 12 32 21 32 18 0 43 24 43
43 0 7 3 17 8 21 4 4 7 11 7 15 0 15 40 61 52 61 6 0 15 -9 18 -20 5 -16 15
-20 55 -20 31 0 63 -8 85 -20 20 -11 53 -20 75 -20 l40 0 0 -75 c0 -47 4 -75
11 -75 20 0 4 -45 -21 -57 -24 -12 -23 -13 17 -13 23 0 45 5 48 11 4 6 13 8
21 5 19 -7 18 3 -3 26 -15 17 -15 20 -3 28 21 14 52 12 73 -4 14 -11 23 -11
42 -2 24 11 24 13 27 161 l3 150 72 3 72 3 3 47 c2 38 6 47 21 46 9 -1 26 11
38 27 22 32 24 30 -36 33 -17 1 -21 9 -23 49 l-3 47 -75 0 -75 0 3 28 c3 26 5
27 76 30 67 3 74 1 79 -18 6 -23 4 -23 102 -20 l73 2 44 -43 c24 -24 44 -49
44 -56 0 -8 12 -13 30 -13 23 0 30 4 30 20 0 18 7 20 65 20 62 0 65 -1 65 -24
0 -19 6 -25 28 -28 26 -3 27 -5 30 -70 3 -66 2 -68 -21 -68 -16 0 -26 7 -30
20 -6 24 -22 25 -71 5 -49 -21 -41 -39 17 -43 41 -3 46 -6 49 -30 3 -26 5 -27
73 -30 39 -2 74 -7 79 -13 18 -17 44 -9 70 22 30 35 31 43 13 61 -14 13 -13
36 4 73 5 11 13 32 18 47 6 16 19 28 33 30 17 2 24 11 26 31 3 23 8 27 33 27
19 0 29 5 29 15 0 8 5 15 10 15 17 0 11 42 -7 56 -10 7 -28 14 -40 14 -13 0
-23 5 -23 10 0 6 -32 10 -75 10 -68 0 -75 2 -75 20 0 19 -7 20 -160 20 -100 0
-160 -4 -160 -10 0 -5 -7 -10 -16 -10 -8 0 -22 -7 -30 -15 -17 -16 -90 -21
-96 -5 -1 5 -38 10 -81 12 -44 2 -81 6 -84 11 -2 4 -42 7 -88 7 -66 0 -92 4
-120 20 -20 11 -44 20 -55 20 -10 0 -22 5 -26 12 -5 7 -10 4 -15 -10 -9 -23
-43 -30 -54 -12 -3 6 -17 10 -30 10 -13 0 -27 5 -30 10 -3 6 -22 10 -41 10
-19 0 -34 4 -34 9 0 13 -64 41 -93 41 -22 0 -24 4 -23 33 1 30 4 32 46 39 25
3 72 7 106 7 34 1 82 4 108 7 40 6 46 10 46 30 0 19 5 24 28 24 15 0 44 3 65
6 36 6 37 8 21 25 -21 24 -71 49 -96 49 -14 0 -18 8 -18 40 0 36 3 40 24 40
14 0 28 -4 31 -10 3 -5 23 -10 44 -10 23 0 44 -6 52 -16 10 -12 24 -14 63 -10
28 3 101 7 161 8 61 0 117 5 125 11 11 6 27 3 53 -12 40 -22 77 -28 77 -11 0
6 9 10 20 10 11 0 20 6 20 13 0 23 -64 37 -173 37 -65 0 -107 4 -107 10 0 6 9
10 20 10 11 0 20 4 20 9 0 5 9 11 20 14 26 7 26 37 0 44 -11 3 -20 9 -20 14 0
5 -9 9 -19 9 -25 0 -29 14 -20 69 4 25 9 80 10 121 1 41 4 65 6 53 2 -13 9
-23 14 -23 5 0 9 -9 9 -20 0 -16 7 -20 30 -20 20 0 30 -5 30 -15 0 -23 88
-107 108 -103 13 3 18 16 20 66 3 57 1 62 -18 62 -11 0 -20 7 -20 15 0 8 5 15
10 15 6 0 10 9 10 20 0 11 5 20 10 20 6 0 10 9 10 20 0 19 -7 20 -140 20 -77
0 -140 -4 -140 -8 0 -19 26 -62 38 -62 8 0 12 -9 10 -22 -3 -20 -9 -23 -43
-23 l-40 0 -3 48 -3 47 -75 0 -74 0 0 -75 0 -75 -27 0 c-19 0 -36 10 -52 30
-14 18 -33 30 -47 30 -21 0 -23 5 -26 53 l-3 52 -145 3 c-100 2 -153 -1 -170
-10 -35 -17 -90 -69 -90 -85 0 -7 -11 -13 -25 -13 -22 0 -25 4 -25 35 0 23 -5
35 -13 35 -8 0 -22 9 -32 20 -17 19 -31 20 -287 20 l-268 0 0 -290z m338 198
c7 -16 20 -28 28 -28 11 0 14 -16 14 -76 l0 -77 -44 5 c-25 3 -49 1 -55 -5 -7
-7 -12 -5 -17 6 -3 10 1 24 11 34 15 14 17 29 12 96 -6 77 -6 78 16 75 12 -2
28 -15 35 -30z m388 -543 l29 -15 -32 0 c-18 0 -33 -4 -33 -10 0 -5 -15 -10
-34 -10 -19 0 -38 -5 -41 -10 -5 -8 -11 -8 -19 -1 -6 5 -43 11 -81 13 -43 2
-70 8 -73 16 -3 9 16 12 72 12 41 0 78 5 81 10 9 15 99 12 131 -5z m-99 -81
c-3 -3 -12 -4 -19 -1 -8 3 -5 6 6 6 11 1 17 -2 13 -5z m281 -342 c3 -23 7 -23
73 -20 38 2 72 7 75 11 4 4 40 7 81 7 l73 0 0 -35 0 -35 -74 0 c-41 0 -77 3
-80 8 -7 12 -203 15 -211 3 -3 -6 -22 -11 -41 -11 -19 0 -34 -4 -34 -10 0 -5
-4 -10 -10 -10 -5 0 -10 24 -10 54 0 54 0 55 33 59 17 2 52 4 77 3 39 -1 45
-4 48 -24z m-370 -74 c-7 -19 -38 -22 -38 -4 0 10 9 16 21 16 12 0 19 -5 17
-12z m1351 -367 c18 -12 0 -21 -28 -14 -17 4 -19 8 -9 14 16 11 20 11 37 0z
m-1072 -186 c-15 -14 -35 -25 -43 -25 -8 0 -23 -5 -33 -12 -11 -7 -26 -8 -37
-3 -18 8 -17 9 3 12 13 3 29 13 36 23 12 17 37 26 82 28 18 1 17 -2 -8 -23z
m-187 1 c0 -2 -7 -6 -15 -10 -8 -3 -15 -1 -15 4 0 6 7 10 15 10 8 0 15 -2 15
-4z m-30 -57 c10 -18 9 -20 -7 -17 -10 2 -19 11 -21 21 -5 24 15 21 28 -4z
m1357 -344 c-7 -14 -18 -25 -24 -25 -17 0 -16 11 3 38 20 29 36 19 21 -13z
m1498 -35 c3 -5 -1 -10 -9 -10 -9 0 -16 5 -16 10 0 6 4 10 9 10 6 0 13 -4 16
-10z m-1377 -52 c-4 -12 -15 -19 -80 -48 -29 -14 -63 -7 -53 11 4 6 18 8 31 5
19 -5 24 -2 24 13 0 15 8 21 33 24 17 2 36 5 40 5 5 1 7 -4 5 -10z m-120 -85
c-10 -2 -26 -2 -35 0 -10 3 -2 5 17 5 19 0 27 -2 18 -5z m-509 -12 c11 -7 9
-11 -9 -21 -25 -13 -35 -8 -27 15 7 17 16 19 36 6z m-135 -211 c6 -6 -2 -13
-18 -20 -22 -8 -32 -6 -51 8 -14 9 -25 21 -25 26 0 11 81 -2 94 -14z m66 10
c0 -5 -10 -10 -22 -10 -19 0 -20 2 -8 10 19 13 30 13 30 0z m-190 -18 c0 -8
-43 -32 -55 -32 -16 0 -1 18 23 27 15 6 28 11 30 12 1 1 2 -3 2 -7z m-87 -39
c-7 -2 -21 -2 -30 0 -10 3 -4 5 12 5 17 0 24 -2 18 -5z m5647 -278 c0 -8 -4
-15 -10 -15 -5 0 -7 7 -4 15 4 8 8 15 10 15 2 0 4 -7 4 -15z m-4127 -52 c-7
-2 -19 -2 -25 0 -7 3 -2 5 12 5 14 0 19 -2 13 -5z m-1013 -33 c0 -5 -6 -10
-12 -10 -7 0 -24 -9 -38 -20 -27 -21 -50 -26 -50 -11 0 12 61 49 83 50 9 1 17
-3 17 -9z m3432 -222 c-8 -8 -9 -4 -5 13 4 13 8 18 11 10 2 -7 -1 -18 -6 -23z
m1429 -139 c16 -11 29 -28 29 -38 0 -32 -56 -69 -117 -77 -20 -2 -39 -6 -41
-9 -6 -6 -32 15 -32 26 0 4 10 10 23 12 19 4 19 4 2 6 -11 0 -32 -10 -47 -24
-28 -25 -73 -35 -66 -13 2 6 18 19 36 28 17 10 47 29 66 44 19 14 38 26 41 26
4 0 18 9 32 20 32 25 38 25 74 -1z m12637 -97 c10 -7 9 -16 -5 -43 -31 -63
-83 -82 -83 -30 0 53 51 96 88 73z m1226 -10 c9 -14 -12 -35 -28 -29 -23 9
-20 37 3 37 11 0 22 -4 25 -8z m-14201 -64 c-13 -6 -23 -17 -23 -23 0 -7 -7
-15 -15 -19 -8 -3 -15 -1 -15 4 0 18 35 48 55 48 18 1 18 0 -2 -10z m185 -5
c-2 -10 -22 -27 -44 -38 -23 -11 -49 -26 -58 -34 -14 -11 -16 -11 -16 1 0 9
19 28 43 44 23 16 44 32 45 37 7 15 33 7 30 -10z m14335 -152 c28 -30 35 -65
16 -76 -6 -4 -8 -13 -5 -21 8 -22 -13 -27 -41 -9 -20 13 -23 19 -12 26 11 7
10 11 -6 23 -11 9 -23 16 -26 16 -4 0 -10 8 -13 17 -5 11 1 23 16 35 31 24 39
23 71 -11z m-10466 -23 c-3 -8 -6 -5 -6 6 -1 11 2 17 5 13 3 -3 4 -12 1 -19z
m10337 -49 c-3 -5 -10 -7 -15 -3 -5 3 -7 10 -3 15 3 5 10 7 15 3 5 -3 7 -10 3
-15z m466 1 c0 -5 -9 -10 -20 -10 -11 0 -20 5 -20 10 0 6 9 10 20 10 11 0 20
-4 20 -10z m180 -46 c0 -21 -4 -33 -10 -29 -5 3 -10 19 -10 36 0 16 5 29 10
29 6 0 10 -16 10 -36z m750 1 c7 -8 21 -15 31 -15 21 0 26 -25 8 -36 -16 -10
-59 17 -59 37 0 9 -6 20 -12 22 -8 4 -7 6 3 6 9 1 22 -6 29 -14z m-740 -180
c0 -32 -10 -56 -21 -49 -10 6 -12 67 -3 77 12 11 24 -3 24 -28z m88 -182 c-2
-20 -9 -29 -25 -31 -19 -3 -23 1 -23 21 0 25 11 35 38 36 9 1 12 -9 10 -26z
m-16696 -15 c-9 -9 -12 -7 -12 12 0 19 3 21 12 12 9 -9 9 -15 0 -24z"/>
<path d="M3080 13435 c0 -12 14 -15 76 -15 56 0 75 3 72 13 -3 8 -30 13 -76
15 -60 2 -72 0 -72 -13z"/>
<path d="M3355 13421 c-30 -6 -30 -6 -30 -78 0 -83 11 -102 49 -85 13 6 55 14
94 17 l70 7 6 49 c4 27 12 49 18 49 6 0 8 3 4 7 -4 4 -45 6 -91 4 -56 -2 -85
1 -85 8 0 6 7 11 15 11 8 0 15 5 15 10 0 11 -18 11 -65 1z"/>
<path d="M1840 13414 c0 -20 25 -44 46 -44 21 0 44 24 33 34 -7 6 -79 15 -79
10z"/>
<path d="M2320 13380 c0 -24 6 -25 26 -6 19 20 18 26 -6 26 -13 0 -20 -7 -20
-20z"/>
<path d="M3860 13371 c0 -25 4 -29 38 -34 23 -4 50 -19 72 -40 33 -32 38 -34
88 -29 28 2 52 8 52 13 0 5 -8 9 -18 9 -10 0 -24 9 -32 20 -8 12 -26 20 -42
20 -23 0 -28 4 -28 25 0 23 -4 25 -45 25 -25 0 -45 5 -45 10 0 6 -9 10 -20 10
-15 0 -20 -7 -20 -29z"/>
<path d="M3660 13281 c0 -5 -10 -12 -22 -14 -17 -3 -14 -5 10 -6 22 -1 32 3
32 14 0 8 -4 15 -10 15 -5 0 -10 -4 -10 -9z"/>
<path d="M4125 13260 c3 -5 8 -10 11 -10 2 0 4 5 4 10 0 6 -5 10 -11 10 -5 0
-7 -4 -4 -10z"/>
<path d="M13955 13216 c-30 -22 -30 -84 1 -151 38 -82 38 -122 3 -157 -15 -16
-31 -37 -34 -49 -11 -34 -30 -15 -33 32 -2 37 -10 52 -42 83 -26 25 -41 50
-46 75 -8 51 -12 61 -24 61 -10 0 -15 -40 -12 -91 1 -15 -5 -32 -13 -39 -16
-13 -21 -50 -7 -50 5 0 29 6 53 13 73 22 93 3 35 -31 -25 -15 -38 -31 -45 -59
-10 -43 -10 -138 2 -149 13 -14 7 -33 -14 -39 -14 -5 -17 -10 -10 -19 12 -14
3 -30 -21 -39 -12 -4 -18 -17 -18 -40 0 -41 19 -60 57 -55 22 2 32 12 48 45
34 72 41 55 18 -45 -5 -21 -3 -22 21 -16 25 6 26 5 28 -42 1 -27 1 -58 -1 -69
-1 -11 -3 -46 -5 -78 -2 -32 -8 -63 -15 -70 -13 -13 -15 -126 -2 -146 8 -12
12 -13 26 -1 28 23 36 49 50 150 14 96 10 145 -14 174 -6 7 -7 69 -2 166 l8
155 44 85 c49 93 72 161 89 259 11 60 10 65 -11 87 -12 13 -39 32 -60 43 -30
16 -40 17 -54 7z"/>
<path d="M13844 13097 c-7 -20 -2 -47 11 -50 14 -3 19 43 6 56 -7 7 -12 6 -17
-6z"/>
<path d="M13500 13088 c0 -42 14 -88 26 -88 17 0 18 26 3 69 -11 31 -29 43
-29 19z"/>
<path d="M14245 13088 c-12 -37 -35 -139 -35 -158 0 -13 8 -24 20 -27 27 -7
25 -31 -5 -63 -34 -35 -38 -74 -7 -76 32 -2 33 -5 25 -65 -7 -45 -12 -54 -33
-60 -14 -4 -20 -7 -14 -8 6 -1 21 -10 33 -20 19 -17 22 -30 23 -99 0 -78 -7
-122 -22 -132 -5 -3 -10 -14 -12 -25 -2 -16 3 -20 26 -20 34 0 49 22 88 130
14 39 38 97 54 130 25 51 33 60 59 63 17 2 35 8 42 14 21 17 35 -1 28 -35 -10
-45 -23 -55 -31 -23 -7 27 -7 27 -25 -14 -11 -23 -19 -53 -19 -67 0 -13 -5
-34 -11 -45 -7 -12 -13 -51 -15 -87 -2 -43 -8 -67 -16 -70 -22 -7 -28 -24 -28
-83 0 -31 -4 -60 -10 -63 -5 -3 -10 -23 -10 -44 0 -29 -9 -50 -37 -87 -34 -43
-38 -56 -40 -110 0 -34 -7 -72 -14 -85 -7 -13 -12 -36 -11 -50 3 -40 -21 -41
-51 -4 -24 30 -27 43 -27 107 0 75 -34 198 -57 205 -6 2 -16 -11 -22 -29 -6
-18 -23 -45 -38 -60 -21 -22 -24 -30 -14 -41 12 -15 5 -47 -10 -47 -17 0 -93
41 -117 63 -13 12 -37 26 -55 32 -28 9 -32 15 -30 42 3 39 -12 51 -37 28 -18
-16 -22 -16 -51 -2 -40 19 -59 12 -59 -19 0 -36 -30 -29 -92 21 -24 20 -25 23
-21 120 3 69 0 117 -11 155 -8 31 -11 56 -5 58 5 2 9 12 9 22 0 10 5 22 10 25
6 3 10 1 10 -6 0 -8 3 -9 9 -3 13 13 31 85 42 170 5 40 13 84 19 99 5 14 10
41 10 60 0 33 -28 132 -43 150 -4 6 -14 19 -21 29 -13 19 -14 19 -25 -3 -8
-14 -9 -26 -3 -34 6 -8 6 -36 1 -76 -6 -42 -6 -68 1 -75 15 -15 13 -23 -16
-50 -33 -30 -27 -60 11 -50 31 8 31 2 1 -31 -14 -15 -28 -41 -31 -58 -4 -18
-13 -39 -20 -47 -7 -8 -14 -31 -17 -51 -3 -30 -1 -35 16 -35 12 1 22 -7 24
-16 2 -13 -3 -18 -17 -18 -11 0 -22 -9 -26 -21 -9 -27 13 -69 31 -62 8 3 14 0
14 -6 0 -6 -5 -11 -11 -11 -11 0 -8 -59 7 -163 l6 -38 -39 19 c-21 11 -55 22
-75 26 -26 5 -38 12 -40 27 -3 19 -12 26 -83 60 -16 8 -30 21 -30 29 0 7 -6
15 -14 18 -9 3 -11 -1 -7 -16 5 -14 0 -27 -14 -40 -23 -21 -39 -75 -40 -130 0
-43 21 -38 33 7 6 27 11 30 22 21 8 -7 17 -28 21 -49 3 -20 13 -47 21 -60 12
-19 13 -33 3 -85 -6 -34 -11 -66 -10 -71 7 -34 -2 -75 -15 -75 -11 0 -15 13
-15 53 -1 30 -7 60 -15 71 -8 11 -15 40 -15 65 -1 37 -3 42 -11 28 -11 -20
-29 -14 -29 9 0 9 -16 47 -35 85 -19 39 -35 76 -35 82 0 7 -9 29 -20 50 -11
20 -20 44 -20 54 0 9 -10 30 -23 47 -27 36 -55 107 -59 151 -2 25 -8 31 -33
33 -19 3 -33 -2 -43 -15 -11 -16 -12 -11 -6 36 5 39 3 55 -6 61 -27 16 -41 -1
-39 -49 1 -25 -2 -59 -6 -74 l-7 -28 53 3 53 3 7 -37 c7 -46 -10 -51 -39 -11
-11 16 -24 25 -28 21 -4 -4 -8 -60 -9 -125 -1 -65 -5 -130 -9 -145 -6 -22 -3
-29 18 -43 22 -15 26 -25 26 -68 0 -32 6 -57 16 -68 13 -14 13 -24 4 -58 -6
-23 -8 -46 -5 -51 13 -21 35 -8 51 28 18 44 9 87 -31 146 -24 35 -25 42 -19
124 4 55 12 93 22 104 10 12 12 28 8 54 -11 54 13 39 47 -32 17 -32 34 -67 38
-77 12 -23 35 -92 49 -147 6 -25 18 -50 25 -56 12 -9 9 -17 -18 -47 -63 -68
-65 -71 -39 -63 14 5 22 3 22 -4 0 -24 49 27 58 60 l9 35 17 -38 c15 -34 15
-40 0 -68 -8 -17 -13 -36 -11 -43 3 -7 1 -19 -4 -27 -7 -11 -9 -10 -9 6 0 11
-12 27 -28 36 l-27 15 0 -60 c0 -41 6 -69 17 -85 15 -22 16 -27 2 -53 -8 -16
-19 -26 -24 -23 -5 3 -14 -4 -20 -15 -6 -12 -19 -19 -33 -18 -12 1 -37 -9 -55
-22 l-32 -24 -25 25 c-42 42 -107 240 -106 324 0 22 -9 80 -19 130 -17 78 -24
94 -54 120 -51 45 -70 115 -68 250 3 157 13 287 23 307 6 10 5 19 -1 23 -5 3
-10 2 -10 -4 0 -15 -52 -65 -80 -76 -92 -37 -171 -109 -169 -153 0 -13 3 -11
11 6 6 12 17 22 24 22 27 0 25 -22 -5 -56 -27 -31 -31 -41 -30 -92 1 -31 4
-46 6 -32 8 50 12 55 31 37 14 -15 15 -21 4 -37 -10 -17 -10 -21 2 -26 8 -3
23 -1 34 5 25 13 32 5 32 -36 0 -35 36 -123 51 -123 5 0 9 14 9 31 0 65 36 7
61 -97 8 -31 6 -47 -6 -70 -14 -27 -14 -30 4 -45 16 -13 19 -24 14 -55 -3 -22
-10 -47 -15 -57 -9 -17 -10 -16 -26 4 l-18 21 -47 -22 c-39 -18 -47 -27 -47
-49 0 -36 10 -45 25 -24 8 10 19 14 29 10 15 -6 17 -14 11 -48 -5 -29 -4 -40
4 -35 6 4 11 14 11 22 0 8 7 14 16 14 14 0 16 -8 11 -50 -6 -46 4 -68 16 -37
3 6 6 2 6 -9 1 -21 -5 -22 -86 -26 -99 -5 -110 0 -132 64 -13 40 -9 58 15 58
9 0 14 11 14 30 0 21 -4 28 -14 24 -11 -4 -13 4 -10 43 2 26 8 95 13 153 9
101 7 139 -6 92 -3 -12 -9 -19 -14 -17 -4 3 -6 12 -2 20 3 8 1 15 -5 15 -6 0
-12 -5 -14 -12 -3 -7 -12 -9 -23 -5 -17 7 -17 8 1 22 10 8 14 15 8 15 -5 0
-15 -5 -21 -11 -9 -9 -26 -9 -69 0 -78 15 -77 16 -71 -26 6 -44 -11 -124 -29
-138 -8 -6 -15 -47 -18 -105 -8 -149 -17 -189 -46 -203 -14 -7 -33 -28 -42
-48 -9 -19 -24 -42 -33 -49 -15 -12 -19 -12 -31 5 -8 10 -16 35 -20 54 -3 20
-10 45 -15 56 -5 11 -10 46 -12 77 -1 32 -7 60 -13 62 -6 2 -15 35 -19 73 -4
37 -13 77 -21 88 -18 26 -18 54 1 61 20 8 19 23 -2 46 -15 17 -15 18 4 18 27
0 43 20 50 64 5 29 3 36 -11 36 -9 0 -24 -15 -32 -32 -32 -67 -39 -78 -51 -78
-7 0 -13 8 -13 19 0 10 -7 35 -15 54 -8 20 -16 55 -18 79 -1 24 -8 52 -14 63
-9 16 -13 17 -27 6 -14 -11 -16 -11 -16 3 0 9 6 16 14 16 32 0 23 32 -24 89
-53 64 -80 118 -80 162 0 16 -7 43 -15 61 -8 18 -19 52 -25 74 -8 33 -22 50
-67 85 -80 62 -80 62 -106 44 -22 -14 -27 -13 -77 11 -61 29 -100 32 -250 16
-144 -14 -211 -30 -237 -54 -14 -13 -29 -18 -39 -14 -40 15 -144 -50 -144 -90
0 -21 -34 -42 -55 -34 -24 9 -45 -6 -45 -32 0 -37 -34 -14 -90 60 -50 68 -57
73 -84 68 -16 -4 -37 -12 -45 -20 -9 -7 -40 -19 -69 -27 -47 -11 -57 -11 -85
3 -18 9 -41 18 -52 20 -14 2 -21 14 -26 41 -10 61 -23 68 -138 71 -56 2 -104
6 -108 9 -9 9 -60 -20 -67 -39 -5 -14 -15 -16 -59 -11 -28 4 -62 9 -75 13 -22
6 -23 5 -17 -29 6 -29 3 -37 -14 -46 -12 -7 -21 -22 -21 -36 0 -13 -5 -27 -11
-31 -10 -6 -8 -47 4 -96 2 -7 2 -10 0 -5 -6 10 -33 9 -33 -2 0 -11 25 -21 50
-21 20 0 30 19 30 60 0 32 16 48 32 32 8 -8 8 -15 0 -24 -5 -7 -10 -33 -10
-58 0 -28 -10 -67 -26 -103 -29 -65 -31 -71 -15 -61 17 10 29 -17 18 -39 -11
-20 4 -47 26 -47 19 0 45 34 56 74 5 20 14 36 19 36 5 0 18 9 29 21 23 25 41
18 41 -16 0 -28 -114 -145 -141 -145 -10 0 -21 -4 -24 -10 -15 -24 -33 -7 -43
38 -6 31 -10 38 -11 20 -2 -45 -10 -55 -40 -50 -16 2 -32 -1 -35 -7 -10 -16
-73 -14 -79 3 -3 8 7 31 24 52 16 20 29 43 29 50 0 8 5 14 10 14 6 0 10 -4 10
-10 0 -22 26 -8 39 20 10 24 10 34 1 45 -9 10 -10 38 -4 102 5 48 7 107 6 131
-2 26 1 42 8 42 6 0 10 6 8 13 -1 6 2 22 6 35 10 30 -9 55 -33 42 -10 -5 -28
-6 -39 -3 -32 8 -48 -11 -56 -65 -4 -26 -10 -67 -15 -92 -7 -44 -8 -44 -16
-16 -5 18 -4 36 4 47 15 25 14 40 -3 33 -16 -6 -46 -79 -46 -113 0 -13 -9 -39
-21 -57 -15 -25 -21 -53 -22 -101 -1 -43 -6 -68 -14 -71 -8 -2 -13 5 -13 18 0
11 -7 32 -16 46 -13 20 -19 22 -31 12 -12 -10 -13 -33 -8 -132 4 -67 12 -127
17 -134 10 -11 2 -107 -18 -239 -3 -19 1 -36 9 -45 21 -21 37 -54 37 -77 0
-32 -16 -25 -26 11 -5 17 -15 33 -22 36 -10 3 -12 -9 -8 -54 6 -62 13 -76 25
-55 6 9 18 11 35 7 34 -8 84 17 88 46 2 12 9 23 16 26 10 3 13 -5 10 -29 -4
-44 12 -45 40 -3 19 30 21 44 16 85 -5 34 -3 49 5 49 11 0 14 -33 14 -138 0
-36 -5 -58 -16 -70 -11 -10 -17 -12 -17 -4 0 7 -4 12 -10 12 -17 0 -12 -80 5
-86 15 -6 14 -52 0 -146 l-4 -28 74 0 75 0 0 36 c0 19 4 43 9 52 5 9 12 37 15
62 3 25 9 61 12 80 8 42 51 130 63 130 5 0 20 21 32 46 13 25 27 47 30 50 4 2
11 -16 15 -41 4 -29 14 -51 25 -58 20 -13 26 -66 9 -83 -5 -5 -11 -68 -12
-139 l-3 -130 1708 -3 c965 -1 1706 2 1705 7 -2 4 8 18 22 29 l25 20 -17 54
c-29 92 -30 102 -3 138 14 19 25 42 25 51 0 25 15 32 30 14 16 -19 6 -86 -15
-97 -17 -10 -20 -53 -5 -63 6 -4 20 -27 32 -52 18 -38 19 -51 11 -74 l-11 -29
543 0 543 0 -6 45 c-3 31 0 52 12 69 9 14 16 41 16 61 0 19 4 35 9 35 14 0 13
-193 -2 -202 -6 -4 157 -7 363 -5 l375 2 3 23 c4 29 -23 39 -48 17 -10 -9 -27
-15 -37 -13 -24 5 -29 39 -7 55 10 7 14 13 8 14 -5 1 -17 2 -28 3 -10 0 -27
17 -38 36 -17 30 -19 47 -14 127 4 50 2 111 -3 135 -20 89 -38 234 -34 264 6
41 -24 99 -89 171 -27 31 -59 75 -69 99 -11 23 -38 66 -60 94 -22 28 -47 68
-56 87 -20 49 -71 115 -111 144 -18 13 -48 47 -66 75 -29 43 -40 52 -73 57
-22 4 -58 20 -81 37 -23 16 -49 30 -59 30 -9 0 -26 9 -37 19 -20 18 -91 61
-102 61 -2 0 -7 -6 -9 -12z m82 -180 c-2 -13 -4 -5 -4 17 -1 22 1 32 4 23 2
-10 2 -28 0 -40z m-4390 -64 c-3 -3 -12 -4 -19 -1 -8 3 -5 6 6 6 11 1 17 -2
13 -5z m-374 -238 c4 4 7 2 7 -4 0 -7 -6 -12 -13 -12 -16 0 -37 -55 -38 -101
0 -34 0 -33 -16 14 -16 46 -15 48 5 70 12 13 22 34 22 48 l1 24 12 -23 c7 -12
16 -19 20 -16z m303 -33 c-11 -11 -19 6 -11 24 8 17 8 17 12 0 3 -10 2 -21 -1
-24z m-231 -33 c3 -5 -3 -10 -14 -10 -12 0 -21 5 -21 10 0 6 6 10 14 10 8 0
18 -4 21 -10z m2845 -60 c0 -5 -4 -10 -10 -10 -5 0 -10 5 -10 10 0 6 5 10 10
10 6 0 10 -4 10 -10z m-3063 -72 c-3 -7 -5 -2 -5 12 0 14 2 19 5 13 2 -7 2
-19 0 -25z m-5 -50 l3 -23 23 23 c22 22 22 22 22 1 0 -33 -18 -56 -43 -56 -21
0 -24 5 -25 38 -2 41 14 55 20 17z m3203 13 c3 -5 1 -12 -5 -16 -5 -3 -10 1
-10 9 0 18 6 21 15 7z m-2665 -10 c0 -5 -6 -14 -14 -21 -8 -6 -24 -40 -36 -76
-15 -45 -27 -64 -39 -64 -9 0 -27 -7 -39 -16 -25 -17 -23 -19 -42 54 -13 52
-5 65 48 83 20 7 48 20 61 30 25 20 61 26 61 10z m102 -31 c-3 -31 -54 -74
-64 -56 -9 15 1 56 13 56 5 0 9 7 9 16 0 10 7 14 23 12 17 -2 21 -9 19 -28z
m-552 -10 c0 -5 -2 -10 -4 -10 -3 0 -8 5 -11 10 -3 6 -1 10 4 10 6 0 11 -4 11
-10z m509 -136 c-6 -7 -8 -18 -4 -23 3 -6 3 -38 -1 -71 l-7 -60 -38 0 c-47 0
-57 14 -32 48 11 15 23 41 27 57 4 17 14 45 24 63 15 29 18 31 29 16 9 -13 10
-21 2 -30z m-547 -256 c-9 -9 -12 -7 -12 12 0 19 3 21 12 12 9 -9 9 -15 0 -24z
m3313 -90 c4 -29 10 -75 14 -103 3 -27 11 -49 16 -48 6 1 16 3 24 5 8 2 17 -5
19 -16 3 -16 -1 -17 -40 -11 -49 8 -87 45 -88 85 0 14 -6 45 -14 70 -17 58
-12 70 28 70 32 0 33 -1 41 -52z m-365 -78 c0 -28 -4 -40 -15 -40 -7 0 -18 -8
-24 -17 -19 -35 -22 -4 -4 46 22 62 43 67 43 11z m770 -12 c0 -16 -4 -28 -10
-28 -5 0 -10 19 -10 43 0 31 3 38 10 27 5 -8 10 -27 10 -42z m30 -100 c0 -44
-24 -29 -28 17 -3 34 -2 37 12 26 9 -8 16 -27 16 -43z"/>
<path d="M13409 13083 c-13 -3 -17 -17 -18 -60 0 -43 3 -53 11 -45 20 20 28
14 28 -19 0 -16 4 -28 8 -25 4 2 7 29 5 60 -1 30 2 58 7 61 6 4 10 13 10 21 0
14 -18 16 -51 7z"/>
<path d="M3085 12958 c-2 -7 -6 -29 -7 -48 l-3 -35 -100 -3 c-54 -1 -102 -7
-105 -11 -3 -5 -23 -19 -45 -32 -32 -19 -60 -24 -145 -29 -89 -4 -105 -8 -108
-23 -2 -10 4 -20 15 -24 10 -4 23 -12 28 -19 6 -7 26 -15 45 -18 19 -3 50 -8
68 -12 19 -4 38 -2 46 5 10 8 16 9 21 1 3 -5 24 -10 45 -10 21 0 41 -4 44 -9
3 -5 77 -9 164 -10 l158 -2 58 31 c32 16 66 30 75 30 20 0 41 19 41 37 0 8
-12 13 -29 13 -17 0 -39 11 -57 28 -17 16 -38 31 -47 35 -21 8 -23 57 -3 57 7
0 19 6 25 14 18 22 -3 29 -76 27 -39 -1 -63 2 -63 8 0 15 -40 14 -45 -1z"/>
<path d="M13420 12834 c-10 -18 -11 -27 -3 -35 16 -16 33 -2 33 26 0 34 -15
39 -30 9z"/>
<path d="M2451 12843 c0 -7 -14 -13 -31 -13 -23 0 -30 -4 -30 -20 0 -11 5 -20
10 -20 6 0 10 -6 10 -14 0 -17 41 -29 54 -16 13 13 46 13 46 0 0 -5 7 -10 15
-10 8 0 15 9 15 19 0 16 -8 20 -37 23 -33 3 -39 7 -44 33 -4 17 -7 24 -8 18z"/>
<path d="M4310 12816 c0 -18 -3 -48 -6 -65 -4 -19 -2 -31 4 -31 6 0 12 15 14
33 l3 32 65 0 c65 0 65 0 68 -30 5 -44 16 -50 56 -31 27 13 36 23 36 41 0 21
5 25 28 25 32 0 52 16 52 42 0 16 -10 18 -85 18 -72 0 -85 -3 -85 -16 0 -13
-7 -15 -32 -10 -18 4 -34 11 -36 16 -2 6 -21 10 -43 10 -38 0 -39 -1 -39 -34z"/>
<path d="M5003 12793 c-29 -11 -10 -23 37 -23 49 0 66 12 34 24 -18 7 -53 7
-71 -1z"/>
<path d="M4898 12783 c6 -2 18 -2 25 0 6 3 1 5 -13 5 -14 0 -19 -2 -12 -5z"/>
<path d="M16167 12753 c-14 -21 -35 -60 -46 -86 -19 -44 -20 -51 -6 -70 8 -12
15 -31 15 -42 0 -11 18 -44 40 -74 22 -29 40 -60 40 -70 0 -32 -18 -79 -39
-100 -12 -12 -19 -26 -16 -31 12 -20 -7 -31 -20 -13 -10 13 -17 15 -25 7 -8
-8 -8 -14 -1 -18 14 -9 2 -36 -15 -36 -8 0 -14 7 -14 16 0 9 -7 14 -17 12 -14
-2 -19 -15 -21 -61 -2 -44 -7 -60 -20 -64 -9 -4 -23 -15 -30 -25 -25 -34 -42
-22 -42 30 0 52 -9 92 -20 92 -4 0 -12 -11 -18 -25 -9 -20 -15 -23 -34 -16
-18 6 -24 17 -26 51 -2 23 2 48 7 53 14 14 14 57 1 57 -5 0 -10 -6 -10 -14 0
-7 -6 -18 -12 -24 -9 -7 -13 -44 -12 -122 1 -92 -1 -113 -14 -117 -9 -4 -22 3
-33 15 -9 12 -21 22 -26 22 -10 0 -33 -50 -52 -112 -7 -20 -19 -42 -27 -48 -7
-7 -14 -18 -14 -24 -1 -6 -14 -27 -30 -46 -17 -19 -30 -42 -30 -51 0 -24 26
-42 52 -36 29 8 38 1 63 -47 11 -21 35 -51 53 -65 18 -14 41 -45 52 -68 l19
-43 646 0 646 0 -26 27 c-14 15 -25 32 -25 37 0 5 -12 24 -26 43 -15 19 -28
53 -31 76 -3 23 -15 71 -28 107 -12 36 -26 91 -29 123 -5 37 -15 67 -30 85
-31 36 -46 67 -46 91 0 11 -8 26 -19 33 -41 29 -75 83 -103 165 -42 123 -53
141 -98 159 -23 9 -48 30 -63 53 -24 36 -27 37 -115 50 -50 8 -101 11 -112 8
-32 -8 -50 2 -50 29 0 14 -10 33 -22 44 -13 11 -43 38 -67 60 -24 22 -44 40
-46 40 -1 0 -14 -17 -28 -37z m-99 -722 c24 -21 29 -50 10 -69 -20 -20 -25
-14 -24 26 1 27 -3 37 -14 37 -9 0 -15 -10 -16 -28 -1 -38 -12 -45 -20 -13 -4
19 -1 33 11 46 22 24 24 24 53 1z"/>
<path d="M14150 12750 c0 -5 5 -10 10 -10 6 0 10 5 10 10 0 6 -4 10 -10 10 -5
0 -10 -4 -10 -10z"/>
<path d="M12014 12669 c-9 -15 12 -33 30 -26 9 4 16 13 16 22 0 17 -35 21 -46
4z"/>
<path d="M13700 12651 c0 -25 6 -27 13 -6 4 8 2 17 -3 20 -6 4 -10 -3 -10 -14z"/>
<path d="M12139 12609 c-1 -8 -1 -21 0 -29 2 -24 -50 -64 -84 -64 -28 -1 -31
-5 -38 -46 -8 -45 -9 -131 -2 -138 12 -12 24 15 31 66 8 67 20 88 41 70 12 -9
20 -5 44 23 24 29 28 40 24 77 -4 44 -14 69 -16 41z"/>
<path d="M13247 12603 c-9 -9 12 -33 29 -33 8 0 14 9 14 20 0 19 -28 28 -43
13z"/>
<path d="M3390 12574 c0 -26 21 -32 38 -11 8 9 4 15 -14 24 -22 10 -24 9 -24
-13z"/>
<path d="M12310 12570 c-5 -10 -10 -35 -10 -55 l0 -36 31 29 c23 21 30 35 25
50 -9 28 -34 35 -46 12z"/>
<path d="M14044 12575 c-7 -18 3 -35 22 -35 8 0 14 10 14 25 0 27 -27 35 -36
10z"/>
<path d="M12390 12504 c0 -31 23 -28 28 4 2 15 -2 22 -12 22 -11 0 -16 -9 -16
-26z"/>
<path d="M1703 12460 c0 -36 2 -50 4 -32 2 17 2 47 0 65 -2 17 -4 3 -4 -33z"/>
<path d="M13231 12493 c0 -5 4 -17 9 -28 8 -18 9 -17 9 8 1 15 -3 27 -9 27 -5
0 -10 -3 -9 -7z"/>
<path d="M2141 12464 c0 -11 3 -14 6 -6 3 7 2 16 -1 19 -3 4 -6 -2 -5 -13z"/>
<path d="M15828 12408 c-21 -17 -43 -87 -31 -99 6 -6 20 10 37 42 27 52 24 80
-6 57z"/>
<path d="M13261 12371 c-1 -28 3 -41 8 -35 6 5 6 24 1 44 l-8 35 -1 -44z"/>
<path d="M13836 12379 c-14 -23 -15 -34 -7 -42 9 -9 14 -8 21 3 9 13 14 70 7
70 -1 0 -11 -14 -21 -31z"/>
<path d="M9237 12393 c-3 -5 -8 -39 -12 -77 -6 -56 -5 -68 6 -64 8 3 18 20 24
39 6 19 16 45 24 58 12 22 11 26 -5 38 -20 15 -31 16 -37 6z"/>
<path d="M1540 12365 c0 -24 2 -25 75 -25 73 0 75 1 75 25 0 24 -2 25 -75 25
-73 0 -75 -1 -75 -25z"/>
<path d="M13080 12375 c0 -8 5 -15 10 -15 6 0 10 7 10 15 0 8 -4 15 -10 15 -5
0 -10 -7 -10 -15z"/>
<path d="M4470 12350 c0 -11 16 -34 35 -51 19 -17 35 -37 35 -45 0 -8 5 -14
10 -14 6 0 10 -11 10 -24 0 -35 47 -43 62 -10 9 19 19 24 49 24 46 0 58 15 30
39 -12 10 -21 26 -21 35 0 10 -11 19 -31 23 -19 3 -34 14 -36 25 -5 15 -16 18
-74 18 -63 0 -69 -2 -69 -20z"/>
<path d="M6364 12356 c-20 -22 16 -89 42 -79 21 8 17 51 -5 58 -11 3 -21 12
-23 19 -2 11 -6 11 -14 2z"/>
<path d="M13660 12355 c0 -8 5 -15 10 -15 6 0 10 7 10 15 0 8 -4 15 -10 15 -5
0 -10 -7 -10 -15z"/>
<path d="M3118 12343 c23 -2 59 -2 80 0 20 2 1 4 -43 4 -44 0 -61 -2 -37 -4z"/>
<path d="M1702 12310 c0 -14 2 -19 5 -12 2 6 2 18 0 25 -3 6 -5 1 -5 -13z"/>
<path d="M2578 12318 c9 -9 15 -9 24 0 9 9 7 12 -12 12 -19 0 -21 -3 -12 -12z"/>
<path d="M12080 12307 c0 -13 5 -28 11 -34 9 -9 9 -23 1 -55 -12 -48 -11 -52
16 -44 20 7 36 38 47 92 5 29 3 34 -26 48 -42 21 -49 20 -49 -7z"/>
<path d="M13220 12320 c0 -5 5 -10 10 -10 6 0 10 5 10 10 0 6 -4 10 -10 10 -5
0 -10 -4 -10 -10z"/>
<path d="M13370 12304 c0 -8 5 -12 10 -9 6 4 8 11 5 16 -9 14 -15 11 -15 -7z"/>
<path d="M6200 12286 c0 -22 16 -36 41 -36 14 0 11 30 -5 46 -22 21 -36 17
-36 -10z"/>
<path d="M8819 12298 c-1 -7 0 -31 1 -53 2 -39 2 -39 -18 -22 -19 17 -21 17
-46 -6 -20 -19 -26 -34 -26 -65 0 -40 14 -64 23 -40 2 7 8 10 12 6 4 -4 0 -23
-9 -42 -9 -19 -16 -41 -16 -49 0 -9 -5 -19 -11 -22 -6 -4 -8 -22 -4 -45 6 -37
6 -37 -31 -43 -58 -10 -72 29 -33 93 14 22 22 55 24 91 1 30 7 65 13 76 13 23
12 63 -1 81 -5 6 -22 12 -38 12 -24 0 -29 -4 -29 -24 0 -19 -4 -23 -19 -19
-11 3 -21 -2 -24 -11 -7 -18 18 -83 34 -88 19 -6 13 -58 -10 -82 -37 -40 -20
-146 25 -146 18 0 17 -10 -1 -34 -8 -11 -15 -30 -15 -42 0 -21 -45 -54 -72
-54 -6 0 -7 53 -3 128 4 70 7 132 7 137 0 6 -3 22 -7 37 -6 23 -3 29 15 36 18
7 19 10 8 20 -8 6 -33 14 -56 18 -48 8 -50 4 -29 -67 8 -25 11 -54 7 -65 -4
-10 -8 -56 -9 -102 -2 -82 -8 -102 -43 -151 -28 -37 -22 -111 8 -111 13 0 18
-21 17 -73 0 -16 18 -17 270 -15 l271 3 8 30 c12 41 17 226 7 247 -5 9 -5 29
0 45 5 15 12 76 15 134 l6 107 -31 11 c-81 28 -115 -5 -111 -106 1 -34 3 -68
4 -75 2 -8 -9 -14 -29 -16 -33 -3 -41 6 -23 24 6 6 14 34 19 62 6 39 5 55 -5
63 -20 16 -17 40 5 46 11 3 22 10 24 17 7 17 -7 85 -24 121 -15 31 -48 46 -50
23z m121 -204 c0 -8 -5 -12 -10 -9 -6 4 -8 11 -5 16 9 14 15 11 15 -7z m-137
-111 c-21 -16 -33 -16 -33 -2 0 19 34 39 42 26 4 -7 0 -18 -9 -24z m173 -50
c-10 -10 -19 5 -10 18 6 11 8 11 12 0 2 -7 1 -15 -2 -18z m-150 -114 c18 -20
18 -21 -16 -49 -19 -16 -39 -28 -45 -27 -5 1 -9 -8 -8 -20 2 -13 -2 -23 -7
-23 -15 0 -12 -17 8 -36 16 -17 16 -17 0 -11 -10 3 -20 2 -23 -4 -14 -22 -21
4 -14 54 8 62 24 97 43 97 8 0 16 9 19 20 7 26 19 25 43 -1z m-126 -28 c0 -5
-8 -19 -18 -31 -16 -19 -19 -20 -30 -7 -11 13 -9 19 9 36 21 19 39 20 39 2z"/>
<path d="M3384 12286 c-3 -8 -4 -28 -2 -44 l3 -30 38 16 c37 17 52 52 22 52
-8 0 -15 5 -15 10 0 15 -40 12 -46 -4z"/>
<path d="M3080 12255 l0 -35 75 0 75 0 0 35 0 35 -75 0 -75 0 0 -35z"/>
<path d="M15647 12283 c-4 -3 -7 -15 -7 -25 0 -26 24 -17 28 10 3 21 -8 29
-21 15z"/>
<path d="M3540 12255 c0 -8 7 -15 15 -15 8 0 15 7 15 15 0 8 -7 15 -15 15 -8
0 -15 -7 -15 -15z"/>
<path d="M12510 12240 c0 -5 5 -10 10 -10 6 0 10 5 10 10 0 6 -4 10 -10 10 -5
0 -10 -4 -10 -10z"/>
<path d="M13810 12216 c0 -9 5 -16 10 -16 6 0 10 4 10 9 0 6 -4 13 -10 16 -5
3 -10 -1 -10 -9z"/>
<path d="M2540 12180 c0 -15 21 -23 32 -12 6 6 2 11 -11 15 -12 3 -21 1 -21
-3z"/>
<path d="M1327 12166 c-7 -16 1 -26 20 -26 7 0 13 9 13 20 0 23 -25 27 -33 6z"/>
<path d="M15413 12158 c-5 -7 -10 -34 -11 -59 -2 -40 0 -47 23 -57 15 -7 25
-20 25 -32 0 -25 26 -27 33 -2 2 9 8 24 12 34 4 11 0 18 -15 23 -20 6 -20 8
-6 31 20 30 20 60 0 68 -25 10 -51 7 -61 -6z"/>
<path d="M2600 12130 c0 -5 5 -10 10 -10 6 0 10 5 10 10 0 6 -4 10 -10 10 -5
0 -10 -4 -10 -10z"/>
<path d="M14241 12104 c0 -11 3 -14 6 -6 3 7 2 16 -1 19 -3 4 -6 -2 -5 -13z"/>
<path d="M1520 12100 c0 -5 9 -10 21 -10 11 0 17 5 14 10 -3 6 -13 10 -21 10
-8 0 -14 -4 -14 -10z"/>
<path d="M15545 12058 c-4 -29 -11 -61 -17 -71 -15 -29 0 -37 37 -19 26 13 35
23 35 43 0 32 -27 99 -39 99 -5 0 -12 -24 -16 -52z"/>
<path d="M12030 12090 c-9 -6 -14 -31 -15 -74 -2 -63 -1 -66 21 -66 36 0 59
52 45 101 -12 39 -29 52 -51 39z"/>
<path d="M12484 12076 c-3 -8 -1 -23 5 -33 9 -15 10 -13 11 15 0 34 -7 42 -16
18z"/>
<path d="M20 12045 c0 -24 2 -25 65 -25 63 0 65 -1 65 -25 0 -19 5 -25 23 -25
23 0 52 34 42 50 -4 6 -17 10 -29 10 -15 0 -26 7 -29 20 -4 17 -14 20 -71 20
-64 0 -66 -1 -66 -25z"/>
<path d="M2738 12024 c-5 -4 -8 -16 -8 -28 0 -14 3 -17 11 -9 6 6 9 19 7 28
-1 9 -6 13 -10 9z"/>
<path d="M15252 12018 c-17 -17 -15 -48 2 -48 17 0 48 39 40 52 -7 12 -28 10
-42 -4z"/>
<path d="M4250 12007 c0 -16 -62 -77 -78 -77 -7 0 -13 -4 -13 -10 -5 -41 -3
-45 31 -51 19 -4 29 -7 23 -8 -7 0 -13 -5 -13 -11 0 -17 129 -12 146 5 9 8 24
15 35 15 17 0 20 6 17 42 -3 38 -7 44 -43 63 -22 11 -44 26 -48 33 -11 16 -57
16 -57 -1z"/>
<path d="M17264 12006 c-8 -20 1 -69 13 -73 11 -4 22 55 15 76 -5 15 -22 14
-28 -3z"/>
<path d="M17373 11991 c5 -23 1 -32 -15 -43 l-22 -15 23 -37 c24 -39 22 -66
-5 -66 -11 0 -14 -5 -10 -16 3 -9 6 -24 6 -35 0 -10 7 -19 15 -19 11 0 14 7 9
25 -7 29 3 33 22 8 16 -21 18 -73 4 -73 -5 0 -10 -10 -10 -23 0 -12 -6 -31
-14 -42 -7 -11 -15 -37 -18 -57 l-4 -38 93 0 c92 0 93 0 93 24 0 13 3 26 8 29
4 2 2 3 -4 1 -18 -4 -76 35 -72 48 8 22 38 34 47 19 12 -19 41 -6 41 18 0 11
5 23 10 26 17 11 11 44 -10 55 -11 6 -20 18 -20 26 0 8 -5 12 -11 9 -5 -4 -9
-17 -8 -28 1 -12 -3 -34 -9 -48 -9 -22 -15 -25 -46 -21 -39 4 -51 29 -14 28
15 -1 24 6 26 19 2 11 10 24 18 28 8 4 14 17 14 27 0 13 5 17 14 14 19 -7 29
28 21 76 -4 27 -17 48 -37 65 -37 31 -78 34 -78 5 0 -13 -7 -20 -20 -20 -16 0
-20 7 -20 30 0 17 -5 30 -11 30 -7 0 -9 -11 -6 -29z m91 -119 c2 -4 1 -23 -4
-42 -4 -19 -8 -26 -9 -15 -1 11 -4 30 -7 43 -6 21 9 32 20 14z"/>
<path d="M306 12001 c-7 -11 22 -23 36 -15 6 4 5 10 -3 15 -18 11 -26 11 -33
0z"/>
<path d="M17125 11971 c-3 -7 -10 -25 -15 -42 -8 -26 -6 -31 12 -38 18 -7 19
-9 5 -14 -10 -4 -17 -16 -17 -27 0 -15 7 -20 25 -20 27 0 35 -26 13 -48 -9 -9
-8 -12 4 -12 28 0 48 29 48 70 0 24 5 40 15 44 37 14 -2 82 -53 92 -17 4 -32
1 -37 -5z m50 -61 c3 -5 1 -10 -4 -10 -6 0 -11 5 -11 10 0 6 2 10 4 10 3 0 8
-4 11 -10z"/>
<path d="M3482 11937 c-9 -10 -35 -27 -57 -37 -32 -15 -37 -20 -22 -26 10 -3
40 -4 68 -2 32 3 55 0 67 -8 10 -8 44 -13 83 -14 37 0 70 -5 77 -12 9 -9 12
-9 12 0 0 7 13 12 30 12 34 0 41 19 10 27 -20 5 -20 6 1 24 18 15 20 21 9 34
-15 18 -67 20 -73 3 -3 -10 -9 -10 -28 -1 -13 7 -55 14 -92 15 -56 2 -72 0
-85 -15z"/>
<path d="M325 11940 c3 -5 15 -10 26 -10 10 0 19 5 19 10 0 6 -12 10 -26 10
-14 0 -23 -4 -19 -10z"/>
<path d="M8286 11905 c-4 -11 -13 -14 -30 -9 -19 4 -27 1 -36 -16 -16 -29 2
-70 29 -70 15 0 23 -10 30 -37 14 -49 14 -53 -2 -53 -16 0 -51 -37 -61 -64
-11 -32 4 -86 24 -86 14 0 20 11 25 50 4 31 12 50 20 50 25 0 83 76 90 118 7
43 -3 71 -38 110 -24 26 -42 28 -51 7z"/>
<path d="M15255 11901 c-8 -15 3 -31 21 -31 9 0 14 7 12 17 -4 20 -24 28 -33
14z"/>
<path d="M15431 11894 c0 -11 3 -14 6 -6 3 7 2 16 -1 19 -3 4 -6 -2 -5 -13z"/>
<path d="M2680 11892 c0 -24 27 -40 58 -35 38 6 43 23 6 23 -14 0 -34 5 -45
10 -10 6 -19 7 -19 2z"/>
<path d="M8402 11893 c-6 -3 -10 -9 -6 -14 7 -12 44 -12 44 0 0 11 -21 19 -38
14z"/>
<path d="M17267 11893 c-13 -13 -7 -32 8 -27 8 4 15 12 15 20 0 15 -12 19 -23
7z"/>
<path d="M20 11865 c0 -9 6 -12 15 -9 8 4 12 10 9 15 -8 14 -24 10 -24 -6z"/>
<path d="M3298 11863 c7 -3 16 -2 19 1 4 3 -2 6 -13 5 -11 0 -14 -3 -6 -6z"/>
<path d="M3338 11843 c7 -3 16 -2 19 1 4 3 -2 6 -13 5 -11 0 -14 -3 -6 -6z"/>
<path d="M13042 11828 c2 -12 10 -23 18 -23 22 0 19 39 -3 43 -15 3 -18 -1
-15 -20z"/>
<path d="M17267 11815 c6 -17 25 -15 31 3 2 7 -5 12 -17 12 -14 0 -19 -5 -14
-15z"/>
<path d="M17659 11794 c-15 -31 -15 -36 -2 -50 12 -11 12 -18 3 -29 -7 -8 -9
-23 -5 -32 5 -15 10 -11 26 21 10 22 19 45 19 52 0 7 6 14 12 16 9 3 8 12 -5
31 -23 35 -29 34 -48 -9z"/>
<path d="M9404 11791 c-26 -16 -30 -16 -41 -2 -10 13 -12 9 -13 -26 0 -45 16
-60 22 -20 2 18 10 23 41 25 23 2 37 8 37 17 0 23 -15 25 -46 6z"/>
<path d="M12545 11800 c-7 -12 2 -30 16 -30 12 0 12 27 0 35 -5 3 -12 1 -16
-5z"/>
<path d="M15250 11794 c-7 -7 -10 -25 -8 -38 5 -23 3 -24 -30 -19 -27 5 -34 3
-30 -8 3 -8 14 -13 24 -12 10 1 22 -4 26 -10 17 -28 70 36 61 73 -7 25 -29 32
-43 14z"/>
<path d="M12931 11754 c0 -11 3 -14 6 -6 3 7 2 16 -1 19 -3 4 -6 -2 -5 -13z"/>
<path d="M15519 11744 c-10 -12 -10 -17 0 -23 7 -5 12 -17 11 -27 -4 -32 -1
-44 11 -44 6 0 9 13 8 28 -2 18 3 36 14 46 9 10 15 22 12 27 -9 14 -41 11 -56
-7z"/>
<path d="M15637 11753 c-2 -4 -7 -29 -11 -54 -7 -50 -46 -97 -101 -121 -28
-12 -22 -13 74 -16 57 -1 108 1 113 6 8 8 -4 77 -24 134 -11 30 -44 63 -51 51z"/>
<path d="M17717 11725 c-4 -8 -2 -17 3 -20 6 -4 10 3 10 14 0 25 -6 27 -13 6z"/>
<path d="M9471 11704 c0 -11 3 -14 6 -6 3 7 2 16 -1 19 -3 4 -6 -2 -5 -13z"/>
<path d="M17296 11712 c-2 -4 -1 -14 5 -22 7 -12 9 -10 9 8 0 23 -5 28 -14 14z"/>
<path d="M9351 11667 c-14 -25 -21 -54 -19 -72 3 -29 5 -30 61 -33 l58 -2 -7
62 c-8 76 -10 81 -36 72 -11 -3 -23 -1 -27 5 -4 6 -17 -8 -30 -32z"/>
<path d="M15472 11660 c0 -14 2 -19 5 -12 2 6 2 18 0 25 -3 6 -5 1 -5 -13z"/>
<path d="M17833 11640 c-25 -10 -31 -40 -9 -40 7 0 16 -9 19 -20 4 -17 14 -20
62 -20 l56 0 -25 43 c-27 45 -58 56 -103 37z"/>
<path d="M9211 11609 c-14 -41 -14 -39 9 -39 17 0 19 5 13 33 -8 43 -9 43 -22
6z"/>
<path d="M8340 11610 c0 -5 5 -10 10 -10 6 0 10 5 10 10 0 6 -4 10 -10 10 -5
0 -10 -4 -10 -10z"/>
<path d="M9832 11594 c-27 -18 -20 -34 14 -34 25 0 27 4 16 33 -7 16 -9 16
-30 1z"/>
<path d="M17670 11600 c-13 -8 -12 -10 3 -10 9 0 17 5 17 10 0 12 -1 12 -20 0z"/>
<path d="M7348 11589 c-35 -20 -17 -29 59 -29 74 0 76 1 55 16 -13 9 -34 14
-48 11 -13 -2 -27 0 -30 4 -7 11 -15 11 -36 -2z"/>
<path d="M7163 11563 c9 -2 25 -2 35 0 9 3 1 5 -18 5 -19 0 -27 -2 -17 -5z"/>
<path d="M3650 11553 c8 -4 20 -13 27 -22 7 -9 13 -11 13 -5 0 15 -22 34 -39
33 -14 0 -14 -1 -1 -6z"/>
<path d="M4048 11553 c23 -2 59 -2 80 0 20 2 1 4 -43 4 -44 0 -61 -2 -37 -4z"/>
<path d="M3681 11454 c0 -11 3 -14 6 -6 3 7 2 16 -1 19 -3 4 -6 -2 -5 -13z"/>
<path d="M3818 11403 c6 -2 18 -2 25 0 6 3 1 5 -13 5 -14 0 -19 -2 -12 -5z"/>
<path d="M3818 11343 c6 -2 18 -2 25 0 6 3 1 5 -13 5 -14 0 -19 -2 -12 -5z"/>
<path d="M18911 11310 c-46 -11 -100 -67 -111 -116 -5 -21 -10 -127 -10 -234
0 -107 5 -213 10 -234 5 -23 23 -54 43 -73 19 -20 50 -38 73 -43 51 -12 1287
-12 1338 0 51 11 105 65 116 116 5 21 10 127 10 234 0 107 -5 213 -10 234 -11
51 -65 105 -116 116 -48 12 -1296 11 -1343 0z m573 -336 c15 -41 30 -82 33
-90 3 -9 -2 -14 -17 -14 -13 0 -24 8 -27 20 -4 14 -14 20 -33 20 -20 0 -31 -6
-35 -20 -3 -11 -15 -20 -26 -20 -23 0 -23 7 -6 51 8 19 22 55 31 82 27 71 47
64 80 -29z m166 -14 c0 -87 -1 -90 -22 -90 -13 0 -33 -3 -45 -6 -14 -4 -28 1
-42 15 -45 45 -11 141 45 127 21 -6 24 -3 24 19 0 18 5 25 20 25 19 0 20 -7
20 -90z m150 1 l0 -88 -41 -6 c-53 -7 -64 -2 -79 34 -22 53 11 116 56 105 21
-6 24 -3 24 19 0 18 5 25 20 25 18 0 20 -7 20 -89z"/>
<path d="M19427 10960 c-3 -13 0 -20 9 -20 15 0 19 26 5 34 -5 3 -11 -3 -14
-14z"/>
<path d="M19564 10956 c-10 -26 0 -51 21 -51 16 0 20 7 20 30 0 33 -30 49 -41
21z"/>
<path d="M19714 10956 c-10 -26 0 -51 21 -51 16 0 20 7 20 30 0 33 -30 49 -41
21z"/>
<path d="M4350 10879 c0 -5 5 -7 10 -4 6 3 10 8 10 11 0 2 -4 4 -10 4 -5 0
-10 -5 -10 -11z"/>
<path d="M4685 10790 c-3 -5 3 -10 15 -10 12 0 18 5 15 10 -3 6 -10 10 -15 10
-5 0 -12 -4 -15 -10z"/>
<path d="M20781 10624 c0 -11 3 -14 6 -6 3 7 2 16 -1 19 -3 4 -6 -2 -5 -13z"/>
<path d="M6621 10474 c0 -11 3 -14 6 -6 3 7 2 16 -1 19 -3 4 -6 -2 -5 -13z"/>
<path d="M10237 10354 c-9 -10 2 -24 19 -24 8 0 14 7 14 15 0 15 -21 21 -33 9z"/>
<path d="M10120 10305 c0 -22 18 -55 31 -55 18 0 6 65 -13 68 -11 2 -18 -3
-18 -13z"/>
<path d="M10120 10196 c0 -9 5 -16 10 -16 6 0 10 4 10 9 0 6 -4 13 -10 16 -5
3 -10 -1 -10 -9z"/>
<path d="M21048 10122 c-35 -4 -36 -20 -3 -28 28 -7 55 0 55 15 0 12 -20 17
-52 13z"/>
<path d="M22870 10013 c0 -11 20 -40 20 -30 0 21 40 -17 40 -38 0 -20 5 -25
27 -25 25 0 25 1 10 18 -10 10 -17 22 -17 25 0 13 38 7 50 -8 7 -8 19 -15 26
-15 20 0 17 -30 -3 -46 -15 -10 -16 -15 -5 -25 6 -7 12 -22 12 -33 1 -12 15
-57 33 -101 25 -64 36 -80 50 -77 32 6 47 -16 41 -59 l-7 -39 57 0 c35 0 55 4
51 10 -8 13 39 60 60 60 21 0 45 -24 45 -44 0 -9 4 -16 9 -16 5 0 17 -3 26 -7
16 -5 17 1 13 64 -4 76 -21 111 -44 92 -10 -8 -11 -15 -1 -32 7 -12 16 -25 22
-29 6 -5 6 -11 -1 -18 -16 -16 -44 14 -44 46 0 18 -5 24 -21 24 -16 0 -20 5
-16 20 4 16 0 20 -17 20 -12 0 -28 -6 -34 -12 -9 -9 -15 -10 -20 -2 -4 7 -31
10 -64 9 -59 -3 -69 3 -43 25 19 16 10 30 -21 30 -27 0 -34 27 -9 36 10 4 13
15 10 30 -3 13 -7 35 -10 49 -3 14 -10 25 -16 25 -6 0 -27 14 -46 30 -23 21
-44 30 -68 30 -18 0 -37 5 -40 10 -7 12 -55 14 -55 3z m320 -289 c0 -2 -7 -4
-15 -4 -8 0 -15 4 -15 10 0 5 7 7 15 4 8 -4 15 -8 15 -10z"/>
<path d="M23115 9941 c-3 -5 2 -16 10 -24 17 -18 20 -67 4 -67 -5 0 -7 -5 -3
-12 5 -7 11 -5 21 7 14 20 17 62 7 89 -7 17 -29 21 -39 7z"/>
<path d="M22397 9903 c-6 -10 9 -49 20 -56 5 -3 15 -2 23 3 11 7 12 14 2 34
-11 25 -36 35 -45 19z"/>
<path d="M21551 9874 c0 -11 3 -14 6 -6 3 7 2 16 -1 19 -3 4 -6 -2 -5 -13z"/>
<path d="M22591 9864 c0 -11 3 -14 6 -6 3 7 2 16 -1 19 -3 4 -6 -2 -5 -13z"/>
<path d="M22720 9815 c0 -41 5 -43 30 -13 16 21 16 23 1 35 -25 19 -31 16 -31
-22z"/>
<path d="M22585 9810 c-4 -16 -4 -34 -1 -39 4 -5 2 -12 -4 -16 -5 -3 -10 -20
-10 -36 0 -28 1 -29 16 -15 20 21 30 20 39 -1 6 -17 7 -17 16 -1 6 10 5 26 -1
43 -5 14 -10 36 -10 48 0 12 -9 28 -19 34 -17 11 -20 9 -26 -17z"/>
<path d="M22722 9700 c0 -14 2 -19 5 -12 2 6 2 18 0 25 -3 6 -5 1 -5 -13z"/>
<path d="M22357 9673 c-13 -12 -7 -63 9 -88 14 -21 24 -25 65 -25 40 0 49 3
49 18 0 13 -2 14 -9 4 -11 -17 -34 5 -62 59 -18 37 -37 48 -52 32z"/>
<path d="M23440 9611 c0 -40 14 -61 30 -45 12 12 -3 77 -18 82 -8 2 -12 -9
-12 -37z"/>
<path d="M23496 9631 c-11 -12 -13 -20 -6 -23 6 -2 12 -13 13 -26 1 -17 7 -22
28 -22 35 0 47 31 25 65 -20 30 -37 32 -60 6z"/>
<path d="M27586 9605 c4 -8 12 -15 20 -15 8 0 14 7 14 15 0 8 -9 15 -20 15
-13 0 -18 -5 -14 -15z"/>
<path d="M11950 9424 c-9 -3 -31 -49 -52 -109 l-37 -105 24 0 c18 0 26 7 31
25 5 21 12 25 45 25 33 0 40 -4 45 -25 4 -18 13 -25 31 -25 16 0 23 5 21 13
-3 6 -18 50 -33 97 -15 47 -32 91 -38 98 -10 12 -11 13 -37 6z m28 -91 c10
-31 10 -33 -14 -33 -27 0 -29 6 -14 46 12 31 13 30 28 -13z"/>
<path d="M12090 9320 c0 -103 1 -110 20 -110 19 0 20 7 20 110 0 103 -1 110
-20 110 -19 0 -20 -7 -20 -110z"/>
<path d="M12180 9320 c0 -103 1 -110 20 -110 19 0 20 7 20 110 0 103 -1 110
-20 110 -19 0 -20 -7 -20 -110z"/>
<path d="M12966 9422 c-9 -16 -76 -193 -76 -203 0 -20 17 -7 31 24 12 28 19
32 54 32 39 0 49 -9 68 -60 3 -5 8 -7 12 -3 7 7 -59 196 -75 211 -4 5 -10 4
-14 -1z m38 -109 c7 -21 4 -23 -28 -23 -42 0 -41 0 -19 59 l17 45 12 -30 c6
-16 15 -39 18 -51z"/>
<path d="M13352 9419 c2 -6 8 -10 13 -10 5 0 11 4 13 10 2 6 -4 11 -13 11 -9
0 -15 -5 -13 -11z"/>
<path d="M14420 9418 c-62 -33 -68 -151 -11 -195 37 -28 131 -5 131 33 0 19
-6 18 -30 -6 -29 -29 -74 -26 -100 8 -42 53 -9 152 52 152 10 0 30 -11 44 -25
28 -29 34 -30 34 -12 0 38 -77 67 -120 45z"/>
<path d="M15190 9320 c0 -67 4 -110 10 -110 6 0 10 43 10 110 0 67 -4 110 -10
110 -6 0 -10 -43 -10 -110z"/>
<path d="M15800 9388 c0 -33 -3 -39 -12 -30 -19 19 -66 14 -88 -8 -13 -13 -20
-33 -20 -60 0 -64 48 -98 101 -70 13 7 19 7 19 0 0 -5 5 -10 10 -10 6 0 10 43
10 110 0 67 -4 110 -10 110 -5 0 -10 -19 -10 -42z m-10 -57 c15 -29 12 -62 -7
-83 -45 -50 -106 19 -73 83 7 12 21 19 40 19 19 0 33 -7 40 -19z"/>
<path d="M13260 9391 c0 -11 -6 -22 -12 -25 -10 -5 -10 -7 0 -12 7 -4 12 -27
12 -63 0 -59 11 -81 42 -81 24 0 23 16 -2 23 -17 4 -20 14 -20 61 0 49 2 56
20 56 11 0 20 5 20 10 0 6 -9 10 -20 10 -13 0 -20 7 -20 20 0 11 -4 20 -10 20
-5 0 -10 -9 -10 -19z"/>
<path d="M15430 9391 c0 -11 -6 -22 -12 -25 -10 -5 -10 -7 0 -12 7 -4 12 -27
12 -63 0 -59 11 -81 42 -81 24 0 23 16 -2 23 -17 4 -20 14 -20 61 0 49 2 56
20 56 11 0 20 5 20 10 0 6 -9 10 -20 10 -13 0 -20 7 -20 20 0 11 -4 20 -10 20
-5 0 -10 -9 -10 -19z"/>
<path d="M13100 9350 c-45 -45 -14 -140 46 -140 33 0 64 17 64 35 0 19 -16 19
-24 0 -8 -21 -49 -19 -69 3 -19 21 -22 54 -7 83 13 23 68 26 76 4 8 -19 24
-19 24 0 0 36 -78 47 -110 15z"/>
<path d="M13360 9289 c0 -51 4 -78 10 -74 6 3 10 40 10 81 0 43 -4 74 -10 74
-6 0 -10 -34 -10 -81z"/>
<path d="M13410 9363 c0 -23 54 -153 64 -153 6 0 22 30 35 68 13 37 26 73 29
80 2 6 0 12 -6 12 -6 0 -20 -30 -33 -67 l-22 -68 -19 44 c-10 24 -21 54 -24
67 -6 22 -24 34 -24 17z"/>
<path d="M13580 9350 c-13 -13 -20 -33 -20 -60 0 -48 27 -80 68 -80 31 0 71
24 59 36 -4 4 -13 2 -19 -4 -18 -18 -53 -14 -72 7 -27 30 -11 43 47 39 60 -4
71 12 37 55 -26 33 -71 36 -100 7z m84 -16 c11 -29 6 -34 -39 -34 -49 0 -50 1
-35 31 13 24 65 26 74 3z"/>
<path d="M14595 9350 c-27 -29 -24 -99 5 -122 33 -27 75 -23 99 8 43 54 11
134 -53 134 -20 0 -40 -8 -51 -20z m93 -32 c25 -54 -31 -113 -74 -78 -17 15
-19 81 -2 98 21 21 61 10 76 -20z"/>
<path d="M14750 9290 c0 -47 4 -80 10 -80 6 0 10 20 10 44 0 69 14 98 48 94
26 -3 27 -5 30 -70 4 -83 22 -91 22 -10 0 60 11 82 42 82 25 0 38 -31 38 -89
0 -28 5 -51 10 -51 13 0 13 101 0 134 -7 20 -17 26 -38 26 -15 0 -33 -5 -40
-12 -9 -9 -15 -9 -24 0 -7 7 -24 12 -38 12 -14 0 -31 -5 -38 -12 -9 -9 -12 -9
-12 0 0 7 -4 12 -10 12 -6 0 -10 -33 -10 -80z"/>
<path d="M15010 9265 c0 -63 4 -105 10 -105 6 0 10 16 10 35 0 32 2 35 19 25
53 -28 101 6 101 70 0 27 -7 47 -20 60 -22 22 -69 27 -88 8 -9 -9 -12 -9 -12
0 0 7 -4 12 -10 12 -6 0 -10 -42 -10 -105z m110 66 c15 -29 12 -62 -7 -83 -45
-50 -106 19 -73 83 7 12 21 19 40 19 19 0 33 -7 40 -19z"/>
<path d="M15266 9348 c-39 -55 -7 -138 52 -138 31 0 71 24 59 36 -4 4 -13 2
-19 -4 -15 -15 -61 -15 -76 0 -7 7 -12 20 -12 31 0 16 7 18 48 17 70 -3 71 -2
65 23 -15 58 -86 79 -117 35z m82 -10 c25 -25 13 -38 -33 -38 -30 0 -45 4 -45
13 0 19 21 37 45 37 12 0 26 -5 33 -12z"/>
<path d="M15531 9344 c-60 -76 27 -175 100 -114 20 16 21 19 7 20 -9 0 -20 -4
-23 -10 -11 -18 -53 -11 -69 12 -22 31 -11 40 48 37 44 -3 51 -1 54 17 4 28
-33 64 -68 64 -19 0 -35 -9 -49 -26z m89 -13 c15 -30 14 -31 -35 -31 -30 0
-45 4 -45 13 0 37 62 51 80 18z"/>
<path d="M10393 8683 c1908 -2 5026 -2 6930 0 1904 1 344 2 -3468 2 -3811 0
-5369 -1 -3462 -2z"/>
<path d="M7430 8233 c-95 -49 -87 -193 13 -232 48 -18 103 -7 138 28 52 53 46
150 -12 193 -37 28 -97 33 -139 11z m83 -65 c18 17 26 19 35 10 9 -9 7 -17
-10 -35 l-21 -23 21 -23 c17 -18 19 -26 10 -35 -9 -9 -17 -7 -35 10 l-23 21
-23 -21 c-18 -17 -26 -19 -35 -10 -9 9 -7 17 10 35 l21 23 -21 23 c-17 18 -19
26 -10 35 9 9 17 7 35 -10 l23 -21 23 21z"/>
<path d="M7910 8120 c0 -60 4 -100 10 -100 6 0 10 40 10 100 0 60 -4 100 -10
100 -6 0 -10 -40 -10 -100z"/>
<path d="M8582 8153 c-23 -37 -42 -73 -42 -80 0 -9 16 -13 50 -13 43 0 50 -3
50 -20 0 -11 5 -20 10 -20 6 0 10 9 10 20 0 11 7 20 15 20 8 0 15 4 15 9 0 5
-7 11 -15 15 -11 4 -15 22 -15 71 0 89 -20 88 -78 -2z m54 -59 c-5 -14 -66
-20 -66 -7 0 3 15 29 33 57 l32 51 3 -44 c2 -24 1 -50 -2 -57z"/>
<path d="M7990 8190 c0 -11 -7 -20 -15 -20 -8 0 -15 -4 -15 -10 0 -5 7 -10 15
-10 12 0 15 -13 15 -59 0 -52 3 -61 21 -66 27 -9 39 4 16 16 -23 13 -25 109
-2 109 8 0 15 5 15 10 0 6 -7 10 -15 10 -8 0 -15 9 -15 20 0 11 -4 20 -10 20
-5 0 -10 -9 -10 -20z"/>
<path d="M8086 8148 c-37 -53 -9 -128 48 -128 19 0 39 7 46 15 18 22 7 28 -24
14 -22 -10 -29 -9 -46 6 -28 25 -16 35 42 35 42 0 49 3 44 16 -3 9 -6 19 -6
24 0 18 -33 40 -60 40 -18 0 -34 -8 -44 -22z m74 -13 c18 -21 9 -27 -36 -23
-36 3 -37 4 -20 21 21 21 40 22 56 2z"/>
<path d="M8230 8094 c0 -58 3 -74 15 -74 10 0 15 16 17 63 3 59 4 62 28 62 24
0 25 -3 28 -62 3 -72 22 -86 22 -17 0 54 14 84 39 84 24 0 31 -19 31 -81 0
-27 5 -49 10 -49 14 0 13 123 -2 138 -15 15 -51 15 -66 0 -8 -8 -15 -8 -24 0
-8 6 -33 11 -56 10 l-42 0 0 -74z"/>
<path d="M7910 7031 c0 -30 -5 -52 -12 -55 -10 -5 -10 -7 0 -12 6 -3 12 -23
12 -45 0 -21 5 -39 10 -39 6 0 10 18 10 40 0 38 2 40 30 40 28 0 30 -3 30 -34
0 -26 5 -36 21 -41 27 -9 39 4 16 16 -9 6 -17 21 -17 34 0 21 5 25 30 25 22 0
30 -5 30 -18 0 -10 7 -28 16 -40 18 -26 75 -30 94 -7 18 22 7 28 -24 14 -22
-10 -29 -9 -46 6 -27 25 -17 32 58 38 l62 5 0 -39 c0 -28 4 -39 15 -39 11 0
15 11 15 40 0 38 2 40 30 40 28 0 30 -2 30 -40 0 -22 5 -40 10 -40 6 0 10 18
10 40 0 39 1 40 35 40 34 0 35 -1 35 -40 0 -22 5 -40 10 -40 6 0 10 18 10 40
l0 40 109 0 c61 0 113 -4 116 -10 3 -5 1 -19 -5 -30 -13 -24 -52 -27 -70 -5
-16 19 -30 19 -30 0 0 -35 85 -48 113 -17 10 10 17 28 17 40 0 12 5 22 10 22
6 0 10 5 10 10 0 6 -11 10 -25 10 -25 0 -25 1 -9 25 15 23 15 27 0 50 -12 18
-25 25 -50 25 -29 0 -66 -24 -66 -43 0 -13 23 -7 35 9 17 24 65 11 65 -17 0
-30 -56 -49 -142 -49 -66 0 -74 2 -83 23 -11 25 -49 34 -71 17 -10 -9 -18 -9
-27 -2 -7 6 -32 11 -55 10 -37 0 -42 -3 -42 -24 0 -17 -6 -24 -20 -24 -11 0
-20 4 -20 9 0 19 -32 41 -60 41 -20 0 -35 -8 -46 -25 -19 -29 -74 -36 -74 -10
0 8 7 15 15 15 8 0 15 5 15 10 0 6 -7 10 -15 10 -8 0 -15 9 -15 20 0 11 -4 20
-10 20 -5 0 -10 -9 -10 -20 0 -11 -7 -20 -15 -20 -8 0 -15 -4 -15 -10 0 -5 7
-10 15 -10 8 0 15 -7 15 -15 0 -10 -10 -15 -30 -15 -29 0 -30 1 -30 50 0 28
-4 50 -10 50 -5 0 -10 -22 -10 -49z m250 -36 c11 -13 7 -15 -24 -15 -35 0 -49
13 -23 23 22 9 34 7 47 -8z m158 -2 c2 -9 -7 -13 -27 -13 -30 0 -39 9 -24 24
11 10 46 3 51 -11z m86 2 c4 -11 -2 -15 -24 -15 -29 0 -38 9 -23 23 12 12 41
7 47 -8z"/>
<path d="M7522 6987 l-71 -71 -31 29 c-16 16 -32 26 -35 24 -2 -3 11 -21 30
-39 l35 -34 77 76 c43 43 75 79 72 82 -3 3 -37 -27 -77 -67z"/>
<path d="M7430 5953 c-95 -49 -87 -193 13 -232 48 -18 103 -7 138 28 52 53 46
150 -12 193 -37 28 -97 33 -139 11z m83 -65 c18 17 26 19 35 10 9 -9 7 -17
-10 -35 l-21 -23 21 -23 c17 -18 19 -26 10 -35 -9 -9 -17 -7 -35 10 l-23 21
-23 -21 c-18 -17 -26 -19 -35 -10 -9 9 -7 17 10 35 l21 23 -21 23 c-17 18 -19
26 -10 35 9 9 17 7 35 -10 l23 -21 23 21z"/>
<path d="M7910 5840 c0 -60 4 -100 10 -100 6 0 10 40 10 100 0 60 -4 100 -10
100 -6 0 -10 -40 -10 -100z"/>
<path d="M8568 5929 c-10 -5 -18 -19 -18 -29 0 -26 12 -25 28 0 15 25 48 26
61 1 8 -15 4 -27 -18 -57 -15 -22 -38 -48 -50 -58 -37 -34 -27 -46 39 -46 33
0 60 4 60 10 0 6 -18 10 -40 10 -22 0 -40 3 -40 6 0 4 18 26 40 50 43 47 51
82 24 108 -17 18 -60 20 -86 5z"/>
<path d="M7990 5910 c0 -11 -7 -20 -15 -20 -8 0 -15 -4 -15 -10 0 -5 7 -10 15
-10 12 0 15 -13 15 -59 0 -52 3 -61 21 -66 27 -9 39 4 16 16 -23 13 -25 109
-2 109 8 0 15 5 15 10 0 6 -7 10 -15 10 -8 0 -15 9 -15 20 0 11 -4 20 -10 20
-5 0 -10 -9 -10 -20z"/>
<path d="M8086 5868 c-37 -53 -9 -128 48 -128 19 0 39 7 46 15 18 22 7 28 -24
14 -22 -10 -29 -9 -46 6 -28 25 -16 35 42 35 42 0 49 3 44 16 -3 9 -6 19 -6
24 0 18 -33 40 -60 40 -18 0 -34 -8 -44 -22z m74 -13 c18 -21 9 -27 -36 -23
-36 3 -37 4 -20 21 21 21 40 22 56 2z"/>
<path d="M8230 5814 c0 -58 3 -74 15 -74 10 0 15 16 17 63 3 59 4 62 28 62 24
0 25 -3 28 -62 3 -72 22 -86 22 -17 0 54 14 84 39 84 24 0 31 -19 31 -81 0
-27 5 -49 10 -49 14 0 13 123 -2 138 -15 15 -51 15 -66 0 -8 -8 -15 -8 -24 0
-8 6 -33 11 -56 10 l-42 0 0 -74z"/>
<path d="M7910 4751 c0 -30 -5 -52 -12 -55 -10 -5 -10 -7 0 -12 6 -3 12 -23
12 -45 0 -21 5 -39 10 -39 6 0 10 18 10 40 0 38 2 40 30 40 28 0 30 -3 30 -34
0 -26 5 -36 21 -41 27 -9 39 4 16 16 -9 6 -17 21 -17 34 0 21 5 25 30 25 22 0
30 -5 30 -18 0 -10 7 -28 16 -40 18 -26 75 -30 94 -7 18 22 7 28 -24 14 -22
-10 -29 -9 -46 6 -27 25 -17 32 58 38 l62 5 0 -39 c0 -28 4 -39 15 -39 11 0
15 11 15 40 0 38 2 40 30 40 28 0 30 -2 30 -40 0 -22 5 -40 10 -40 6 0 10 18
10 40 0 39 1 40 35 40 34 0 35 -1 35 -40 0 -22 5 -40 10 -40 6 0 10 18 10 40
l0 40 85 0 85 0 0 -40 c0 -22 5 -40 10 -40 6 0 10 18 10 40 0 29 4 40 15 40 8
0 15 5 15 10 0 6 -7 10 -15 10 -11 0 -15 12 -15 50 0 37 -4 50 -14 50 -20 0
-73 -47 -63 -56 4 -4 13 -2 19 4 21 21 38 13 38 -18 l0 -30 -83 0 c-76 0 -83
2 -92 23 -11 25 -49 34 -71 17 -10 -9 -18 -9 -27 -2 -7 6 -32 11 -55 10 -37 0
-42 -3 -42 -24 0 -17 -6 -24 -20 -24 -11 0 -20 4 -20 9 0 19 -32 41 -60 41
-20 0 -35 -8 -46 -25 -19 -29 -74 -36 -74 -10 0 8 7 15 15 15 8 0 15 5 15 10
0 6 -7 10 -15 10 -8 0 -15 9 -15 20 0 11 -4 20 -10 20 -5 0 -10 -9 -10 -20 0
-11 -7 -20 -15 -20 -8 0 -15 -4 -15 -10 0 -5 7 -10 15 -10 8 0 15 -7 15 -15 0
-10 -10 -15 -30 -15 -29 0 -30 1 -30 50 0 28 -4 50 -10 50 -5 0 -10 -22 -10
-49z m250 -36 c11 -13 7 -15 -24 -15 -35 0 -49 13 -23 23 22 9 34 7 47 -8z
m158 -2 c2 -9 -7 -13 -27 -13 -30 0 -39 9 -24 24 11 10 46 3 51 -11z m86 2 c4
-11 -2 -15 -24 -15 -29 0 -38 9 -23 23 12 12 41 7 47 -8z"/>
<path d="M7522 4707 l-71 -71 -31 29 c-16 16 -32 26 -35 24 -2 -3 11 -21 30
-39 l35 -34 77 76 c43 43 75 79 72 82 -3 3 -37 -27 -77 -67z"/>
</g>
</svg>
